<?xml version="1.0" encoding="UTF-8" standalone="no"?>
<!DOCTYPE svg PUBLIC "-//W3C//DTD SVG 1.1//EN"
 "http://www.w3.org/Graphics/SVG/1.1/DTD/svg11.dtd">
<!-- Generated by graphviz version 7.1.0 (0)
 -->
<!-- Title: snakemake_dag Pages: 1 -->
<svg width="1465pt" height="476pt"
 viewBox="0.00 0.00 1465.00 476.00" xmlns="http://www.w3.org/2000/svg" xmlns:xlink="http://www.w3.org/1999/xlink">
<g id="graph0" class="graph" transform="scale(1 1) rotate(0) translate(4 472)">
<title>snakemake_dag</title>
<polygon fill="white" stroke="none" points="-4,4 -4,-472 1461,-472 1461,4 -4,4"/>
<!-- 0 -->
<g id="node1" class="node">
<title>0</title>
<path fill="none" stroke="#70d856" stroke-width="2" d="M833,-36C833,-36 803,-36 803,-36 797,-36 791,-30 791,-24 791,-24 791,-12 791,-12 791,-6 797,0 803,0 803,0 833,0 833,0 839,0 845,-6 845,-12 845,-12 845,-24 845,-24 845,-30 839,-36 833,-36"/>
<text text-anchor="middle" x="818" y="-15.5" font-family="sans" font-size="10.00">all</text>
</g>
<!-- 1 -->
<g id="node2" class="node">
<title>1</title>
<path fill="none" stroke="#d8cb56" stroke-width="2" d="M244,-108C244,-108 146,-108 146,-108 140,-108 134,-102 134,-96 134,-96 134,-84 134,-84 134,-78 140,-72 146,-72 146,-72 244,-72 244,-72 250,-72 256,-78 256,-84 256,-84 256,-96 256,-96 256,-102 250,-108 244,-108"/>
<text text-anchor="middle" x="195" y="-87.5" font-family="sans" font-size="10.00">deploy_to_github_pages</text>
</g>
<!-- 1&#45;&gt;0 -->
<g id="edge10" class="edge">
<title>1&#45;&gt;0</title>
<path fill="none" stroke="grey" stroke-width="2" d="M256.94,-80.68C278.75,-77.83 303.45,-74.68 326,-72 493.45,-52.12 693.36,-31.57 777.51,-23.06"/>
<polygon fill="grey" stroke="grey" stroke-width="2" points="777.62,-26.57 787.22,-22.08 776.92,-19.6 777.62,-26.57"/>
</g>
<!-- 2 -->
<g id="node3" class="node">
<title>2</title>
<path fill="none" stroke="#d86e56" stroke-width="2" d="M74,-180C74,-180 12,-180 12,-180 6,-180 0,-174 0,-168 0,-168 0,-156 0,-156 0,-150 6,-144 12,-144 12,-144 74,-144 74,-144 80,-144 86,-150 86,-156 86,-156 86,-168 86,-168 86,-174 80,-180 74,-180"/>
<text text-anchor="middle" x="43" y="-159.5" font-family="sans" font-size="10.00">dot_rules_graph</text>
</g>
<!-- 2&#45;&gt;1 -->
<g id="edge17" class="edge">
<title>2&#45;&gt;1</title>
<path fill="none" stroke="grey" stroke-width="2" d="M81.75,-143.15C100.79,-134.38 123.98,-123.71 144.4,-114.3"/>
<polygon fill="grey" stroke="grey" stroke-width="2" points="145.69,-117.56 153.31,-110.2 142.76,-111.2 145.69,-117.56"/>
</g>
<!-- 3 -->
<g id="node4" class="node">
<title>3</title>
<path fill="none" stroke="#d88556" stroke-width="2" d="M160,-180C160,-180 116,-180 116,-180 110,-180 104,-174 104,-168 104,-168 104,-156 104,-156 104,-150 110,-144 116,-144 116,-144 160,-144 160,-144 166,-144 172,-150 172,-156 172,-156 172,-168 172,-168 172,-174 166,-180 160,-180"/>
<text text-anchor="middle" x="138" y="-159.5" font-family="sans" font-size="10.00">project_tree</text>
</g>
<!-- 3&#45;&gt;1 -->
<g id="edge16" class="edge">
<title>3&#45;&gt;1</title>
<path fill="none" stroke="grey" stroke-width="2" d="M152.38,-143.34C158.41,-135.93 165.57,-127.14 172.28,-118.9"/>
<polygon fill="grey" stroke="grey" stroke-width="2" points="174.91,-121.21 178.51,-111.25 169.48,-116.79 174.91,-121.21"/>
</g>
<!-- 4 -->
<g id="node5" class="node">
<title>4</title>
<path fill="none" stroke="#88d856" stroke-width="2" d="M299.5,-180C299.5,-180 202.5,-180 202.5,-180 196.5,-180 190.5,-174 190.5,-168 190.5,-168 190.5,-156 190.5,-156 190.5,-150 196.5,-144 202.5,-144 202.5,-144 299.5,-144 299.5,-144 305.5,-144 311.5,-150 311.5,-156 311.5,-156 311.5,-168 311.5,-168 311.5,-174 305.5,-180 299.5,-180"/>
<text text-anchor="middle" x="251" y="-159.5" font-family="sans" font-size="10.00">snakemake_html_report</text>
</g>
<!-- 4&#45;&gt;1 -->
<g id="edge15" class="edge">
<title>4&#45;&gt;1</title>
<path fill="none" stroke="grey" stroke-width="2" d="M236.87,-143.34C230.95,-135.93 223.91,-127.14 217.32,-118.9"/>
<polygon fill="grey" stroke="grey" stroke-width="2" points="220.19,-116.89 211.21,-111.27 214.73,-121.26 220.19,-116.89"/>
</g>
<!-- 5 -->
<g id="node6" class="node">
<title>5</title>
<path fill="none" stroke="#56d8b1" stroke-width="2" d="M496,-324C496,-324 390,-324 390,-324 384,-324 378,-318 378,-312 378,-312 378,-300 378,-300 378,-294 384,-288 390,-288 390,-288 496,-288 496,-288 502,-288 508,-294 508,-300 508,-300 508,-312 508,-312 508,-318 502,-324 496,-324"/>
<text text-anchor="middle" x="443" y="-303.5" font-family="sans" font-size="10.00">qiime2_validate_metadata</text>
</g>
<!-- 5&#45;&gt;0 -->
<g id="edge6" class="edge">
<title>5&#45;&gt;0</title>
<path fill="none" stroke="grey" stroke-width="2" d="M397.16,-287.01C382.26,-278.72 367.41,-267.25 359,-252 320.97,-183.04 385.09,-110.43 442,-72 496.13,-35.45 691.73,-23.73 777.37,-20.3"/>
<polygon fill="grey" stroke="grey" stroke-width="2" points="777.24,-23.8 787.1,-19.93 776.98,-16.81 777.24,-23.8"/>
</g>
<!-- 10 -->
<g id="node11" class="node">
<title>10</title>
<path fill="none" stroke="#d8b456" stroke-width="2" d="M506,-252C506,-252 380,-252 380,-252 374,-252 368,-246 368,-240 368,-240 368,-228 368,-228 368,-222 374,-216 380,-216 380,-216 506,-216 506,-216 512,-216 518,-222 518,-228 518,-228 518,-240 518,-240 518,-246 512,-252 506,-252"/>
<text text-anchor="middle" x="443" y="-231.5" font-family="sans" font-size="10.00">qiime2_create_n_view_qc_qvz</text>
</g>
<!-- 5&#45;&gt;10 -->
<g id="edge23" class="edge">
<title>5&#45;&gt;10</title>
<path fill="none" stroke="grey" stroke-width="2" d="M443,-287.34C443,-280.75 443,-273.08 443,-265.67"/>
<polygon fill="grey" stroke="grey" stroke-width="2" points="446.5,-265.93 443,-255.93 439.5,-265.93 446.5,-265.93"/>
</g>
<!-- 6 -->
<g id="node7" class="node">
<title>6</title>
<path fill="none" stroke="#56d86b" stroke-width="2" d="M643.5,-468C643.5,-468 524.5,-468 524.5,-468 518.5,-468 512.5,-462 512.5,-456 512.5,-456 512.5,-444 512.5,-444 512.5,-438 518.5,-432 524.5,-432 524.5,-432 643.5,-432 643.5,-432 649.5,-432 655.5,-438 655.5,-444 655.5,-444 655.5,-456 655.5,-456 655.5,-462 649.5,-468 643.5,-468"/>
<text text-anchor="middle" x="584" y="-447.5" font-family="sans" font-size="10.00">import_qiime2_mapping_files</text>
</g>
<!-- 6&#45;&gt;5 -->
<g id="edge18" class="edge">
<title>6&#45;&gt;5</title>
<path fill="none" stroke="grey" stroke-width="2" d="M552.92,-431.08C538.11,-421.71 520.68,-409.4 507,-396 488.62,-378 471.81,-354.19 460.03,-335.73"/>
<polygon fill="grey" stroke="grey" stroke-width="2" points="463.06,-333.98 454.81,-327.33 457.12,-337.67 463.06,-333.98"/>
</g>
<!-- 7 -->
<g id="node8" class="node">
<title>7</title>
<path fill="none" stroke="#d89c56" stroke-width="2" d="M640,-396C640,-396 528,-396 528,-396 522,-396 516,-390 516,-384 516,-384 516,-372 516,-372 516,-366 522,-360 528,-360 528,-360 640,-360 640,-360 646,-360 652,-366 652,-372 652,-372 652,-384 652,-384 652,-390 646,-396 640,-396"/>
<text text-anchor="middle" x="584" y="-375.5" font-family="sans" font-size="10.00">qiime2_import_paired_fastq</text>
</g>
<!-- 6&#45;&gt;7 -->
<g id="edge19" class="edge">
<title>6&#45;&gt;7</title>
<path fill="none" stroke="grey" stroke-width="2" d="M584,-431.34C584,-424.75 584,-417.08 584,-409.67"/>
<polygon fill="grey" stroke="grey" stroke-width="2" points="587.5,-409.93 584,-399.93 580.5,-409.93 587.5,-409.93"/>
</g>
<!-- 18 -->
<g id="node19" class="node">
<title>18</title>
<path fill="none" stroke="#d85656" stroke-width="2" d="M1445,-180C1445,-180 1291,-180 1291,-180 1285,-180 1279,-174 1279,-168 1279,-168 1279,-156 1279,-156 1279,-150 1285,-144 1291,-144 1291,-144 1445,-144 1445,-144 1451,-144 1457,-150 1457,-156 1457,-156 1457,-168 1457,-168 1457,-174 1451,-180 1445,-180"/>
<text text-anchor="middle" x="1368" y="-159.5" font-family="sans" font-size="10.00">merge_features_taxonomy_metadata</text>
</g>
<!-- 6&#45;&gt;18 -->
<g id="edge31" class="edge">
<title>6&#45;&gt;18</title>
<path fill="none" stroke="grey" stroke-width="2" d="M656.37,-438.65C824.34,-413.31 1234.05,-343.47 1335,-252 1351.59,-236.97 1359.87,-212.83 1363.98,-193.48"/>
<polygon fill="grey" stroke="grey" stroke-width="2" points="1367.41,-194.17 1365.72,-183.71 1360.52,-192.94 1367.41,-194.17"/>
</g>
<!-- 7&#45;&gt;0 -->
<g id="edge7" class="edge">
<title>7&#45;&gt;0</title>
<path fill="none" stroke="grey" stroke-width="2" d="M577.25,-359.08C554.15,-297.14 480.79,-94.68 500,-72 535.07,-30.6 699.38,-21.51 777.09,-19.54"/>
<polygon fill="grey" stroke="grey" stroke-width="2" points="777.15,-23.03 787.07,-19.32 777,-16.04 777.15,-23.03"/>
</g>
<!-- 8 -->
<g id="node9" class="node">
<title>8</title>
<path fill="none" stroke="#569ad8" stroke-width="2" d="M622.5,-108C622.5,-108 521.5,-108 521.5,-108 515.5,-108 509.5,-102 509.5,-96 509.5,-96 509.5,-84 509.5,-84 509.5,-78 515.5,-72 521.5,-72 521.5,-72 622.5,-72 622.5,-72 628.5,-72 634.5,-78 634.5,-84 634.5,-84 634.5,-96 634.5,-96 634.5,-102 628.5,-108 622.5,-108"/>
<text text-anchor="middle" x="572" y="-87.5" font-family="sans" font-size="10.00">qiime2_summarize_fastq</text>
</g>
<!-- 7&#45;&gt;8 -->
<g id="edge20" class="edge">
<title>7&#45;&gt;8</title>
<path fill="none" stroke="grey" stroke-width="2" d="M583.25,-359.11C581.25,-311.56 575.8,-181.6 573.29,-121.83"/>
<polygon fill="grey" stroke="grey" stroke-width="2" points="576.79,-121.75 572.88,-111.91 569.8,-122.05 576.79,-121.75"/>
</g>
<!-- 9 -->
<g id="node10" class="node">
<title>9</title>
<path fill="none" stroke="#56d89a" stroke-width="2" d="M800.5,-324C800.5,-324 739.5,-324 739.5,-324 733.5,-324 727.5,-318 727.5,-312 727.5,-312 727.5,-300 727.5,-300 727.5,-294 733.5,-288 739.5,-288 739.5,-288 800.5,-288 800.5,-288 806.5,-288 812.5,-294 812.5,-300 812.5,-300 812.5,-312 812.5,-312 812.5,-318 806.5,-324 800.5,-324"/>
<text text-anchor="middle" x="770" y="-303.5" font-family="sans" font-size="10.00">qiime2_read_qc</text>
</g>
<!-- 7&#45;&gt;9 -->
<g id="edge21" class="edge">
<title>7&#45;&gt;9</title>
<path fill="none" stroke="grey" stroke-width="2" d="M631.42,-359.15C656.78,-349.61 688.16,-337.8 714.64,-327.83"/>
<polygon fill="grey" stroke="grey" stroke-width="2" points="715.85,-331.12 723.98,-324.32 713.38,-324.57 715.85,-331.12"/>
</g>
<!-- 8&#45;&gt;0 -->
<g id="edge14" class="edge">
<title>8&#45;&gt;0</title>
<path fill="none" stroke="grey" stroke-width="2" d="M635.03,-71.06C680.05,-58.25 739.26,-41.4 777.96,-30.39"/>
<polygon fill="grey" stroke="grey" stroke-width="2" points="778.67,-33.83 787.33,-27.73 776.76,-27.1 778.67,-33.83"/>
</g>
<!-- 9&#45;&gt;0 -->
<g id="edge4" class="edge">
<title>9&#45;&gt;0</title>
<path fill="none" stroke="grey" stroke-width="2" d="M752.77,-287.29C715.17,-246.47 632.95,-143.75 682,-72 703.3,-40.83 745.87,-27.99 777.73,-22.7"/>
<polygon fill="grey" stroke="grey" stroke-width="2" points="777.81,-26.23 787.22,-21.35 776.82,-19.3 777.81,-26.23"/>
</g>
<!-- 9&#45;&gt;10 -->
<g id="edge22" class="edge">
<title>9&#45;&gt;10</title>
<path fill="none" stroke="grey" stroke-width="2" d="M726.58,-295.7C676.98,-285.09 594.54,-267.44 531.29,-253.9"/>
<polygon fill="grey" stroke="grey" stroke-width="2" points="532.38,-250.55 521.87,-251.88 530.92,-257.4 532.38,-250.55"/>
</g>
<!-- 11 -->
<g id="node12" class="node">
<title>11</title>
<path fill="none" stroke="#5682d8" stroke-width="2" d="M795,-108C795,-108 703,-108 703,-108 697,-108 691,-102 691,-96 691,-96 691,-84 691,-84 691,-78 697,-72 703,-72 703,-72 795,-72 795,-72 801,-72 807,-78 807,-84 807,-84 807,-96 807,-96 807,-102 801,-108 795,-108"/>
<text text-anchor="middle" x="749" y="-87.5" font-family="sans" font-size="10.00">qiime2_denovo_cluster</text>
</g>
<!-- 9&#45;&gt;11 -->
<g id="edge24" class="edge">
<title>9&#45;&gt;11</title>
<path fill="none" stroke="grey" stroke-width="2" d="M768.25,-287.12C764.66,-250.62 756.47,-167.13 752.02,-121.74"/>
<polygon fill="grey" stroke="grey" stroke-width="2" points="755.52,-121.6 751.06,-111.99 748.55,-122.28 755.52,-121.6"/>
</g>
<!-- 12 -->
<g id="node13" class="node">
<title>12</title>
<path fill="none" stroke="#56d8c9" stroke-width="2" d="M938.5,-108C938.5,-108 837.5,-108 837.5,-108 831.5,-108 825.5,-102 825.5,-96 825.5,-96 825.5,-84 825.5,-84 825.5,-78 831.5,-72 837.5,-72 837.5,-72 938.5,-72 938.5,-72 944.5,-72 950.5,-78 950.5,-84 950.5,-84 950.5,-96 950.5,-96 950.5,-102 944.5,-108 938.5,-108"/>
<text text-anchor="middle" x="888" y="-87.5" font-family="sans" font-size="10.00">qiime2_closedref_cluster</text>
</g>
<!-- 9&#45;&gt;12 -->
<g id="edge25" class="edge">
<title>9&#45;&gt;12</title>
<path fill="none" stroke="grey" stroke-width="2" d="M777.4,-287.3C785.18,-269.12 798.06,-240.14 811,-216 829.19,-182.06 852.72,-144.65 868.96,-119.68"/>
<polygon fill="grey" stroke="grey" stroke-width="2" points="871.87,-121.63 874.42,-111.35 866.01,-117.79 871.87,-121.63"/>
</g>
<!-- 13 -->
<g id="node14" class="node">
<title>13</title>
<path fill="none" stroke="#ced856" stroke-width="2" d="M925.5,-252C925.5,-252 832.5,-252 832.5,-252 826.5,-252 820.5,-246 820.5,-240 820.5,-240 820.5,-228 820.5,-228 820.5,-222 826.5,-216 832.5,-216 832.5,-216 925.5,-216 925.5,-216 931.5,-216 937.5,-222 937.5,-228 937.5,-228 937.5,-240 937.5,-240 937.5,-246 931.5,-252 925.5,-252"/>
<text text-anchor="middle" x="879" y="-231.5" font-family="sans" font-size="10.00">qiime2_openref_cluster</text>
</g>
<!-- 9&#45;&gt;13 -->
<g id="edge26" class="edge">
<title>9&#45;&gt;13</title>
<path fill="none" stroke="grey" stroke-width="2" d="M797.79,-287.15C810.73,-278.84 826.34,-268.82 840.4,-259.79"/>
<polygon fill="grey" stroke="grey" stroke-width="2" points="842.19,-262.8 848.72,-254.45 838.41,-256.91 842.19,-262.8"/>
</g>
<!-- 14 -->
<g id="node15" class="node">
<title>14</title>
<path fill="none" stroke="#59d856" stroke-width="2" d="M1065,-252C1065,-252 969,-252 969,-252 963,-252 957,-246 957,-240 957,-240 957,-228 957,-228 957,-222 963,-216 969,-216 969,-216 1065,-216 1065,-216 1071,-216 1077,-222 1077,-228 1077,-228 1077,-240 1077,-240 1077,-246 1071,-252 1065,-252"/>
<text text-anchor="middle" x="1017" y="-231.5" font-family="sans" font-size="10.00">qiime2_mafft_alignment</text>
</g>
<!-- 9&#45;&gt;14 -->
<g id="edge27" class="edge">
<title>9&#45;&gt;14</title>
<path fill="none" stroke="grey" stroke-width="2" d="M813.31,-292.73C849.32,-282.52 901.37,-267.77 943.83,-255.74"/>
<polygon fill="grey" stroke="grey" stroke-width="2" points="944.52,-259.18 953.19,-253.08 942.62,-252.44 944.52,-259.18"/>
</g>
<!-- 17 -->
<g id="node18" class="node">
<title>17</title>
<path fill="none" stroke="#56c9d8" stroke-width="2" d="M1314,-252C1314,-252 1188,-252 1188,-252 1182,-252 1176,-246 1176,-240 1176,-240 1176,-228 1176,-228 1176,-222 1182,-216 1188,-216 1188,-216 1314,-216 1314,-216 1320,-216 1326,-222 1326,-228 1326,-228 1326,-240 1326,-240 1326,-246 1320,-252 1314,-252"/>
<text text-anchor="middle" x="1251" y="-231.5" font-family="sans" font-size="10.00">qiime2_process_tsv_nwk_files</text>
</g>
<!-- 9&#45;&gt;17 -->
<g id="edge30" class="edge">
<title>9&#45;&gt;17</title>
<path fill="none" stroke="grey" stroke-width="2" d="M813.11,-298.73C891.58,-287.31 1059.19,-262.91 1162.77,-247.84"/>
<polygon fill="grey" stroke="grey" stroke-width="2" points="1163,-251.34 1172.39,-246.44 1161.99,-244.42 1163,-251.34"/>
</g>
<!-- 10&#45;&gt;0 -->
<g id="edge8" class="edge">
<title>10&#45;&gt;0</title>
<path fill="none" stroke="grey" stroke-width="2" d="M439.56,-215.04C434.33,-181.76 428.67,-110.4 467,-72 509.84,-29.08 694.24,-20.83 777.24,-19.31"/>
<polygon fill="grey" stroke="grey" stroke-width="2" points="777.14,-22.81 787.09,-19.16 777.03,-15.81 777.14,-22.81"/>
</g>
<!-- 11&#45;&gt;0 -->
<g id="edge3" class="edge">
<title>11&#45;&gt;0</title>
<path fill="none" stroke="grey" stroke-width="2" d="M766.41,-71.34C773.95,-63.69 782.95,-54.56 791.31,-46.08"/>
<polygon fill="grey" stroke="grey" stroke-width="2" points="793.7,-48.64 798.23,-39.06 788.72,-43.72 793.7,-48.64"/>
</g>
<!-- 12&#45;&gt;0 -->
<g id="edge9" class="edge">
<title>12&#45;&gt;0</title>
<path fill="none" stroke="grey" stroke-width="2" d="M870.34,-71.34C862.69,-63.69 853.56,-54.56 845.08,-46.08"/>
<polygon fill="grey" stroke="grey" stroke-width="2" points="847.59,-43.64 838.04,-39.04 842.64,-48.59 847.59,-43.64"/>
</g>
<!-- 13&#45;&gt;0 -->
<g id="edge12" class="edge">
<title>13&#45;&gt;0</title>
<path fill="none" stroke="grey" stroke-width="2" d="M900.21,-215.18C934.14,-184.5 993.54,-120.32 960,-72 937.28,-39.27 891.77,-26.72 858.37,-21.92"/>
<polygon fill="grey" stroke="grey" stroke-width="2" points="859.14,-18.49 848.79,-20.76 858.3,-25.44 859.14,-18.49"/>
</g>
<!-- 14&#45;&gt;0 -->
<g id="edge11" class="edge">
<title>14&#45;&gt;0</title>
<path fill="none" stroke="grey" stroke-width="2" d="M1017.93,-215.2C1018.62,-182.51 1015.31,-112.51 978,-72 947.19,-38.55 894.82,-26.18 858.42,-21.62"/>
<polygon fill="grey" stroke="grey" stroke-width="2" points="859.13,-18.18 848.82,-20.6 858.39,-25.14 859.13,-18.18"/>
</g>
<!-- 15 -->
<g id="node16" class="node">
<title>15</title>
<path fill="none" stroke="#b6d856" stroke-width="2" d="M1155,-180C1155,-180 1057,-180 1057,-180 1051,-180 1045,-174 1045,-168 1045,-168 1045,-156 1045,-156 1045,-150 1051,-144 1057,-144 1057,-144 1155,-144 1155,-144 1161,-144 1167,-150 1167,-156 1167,-156 1167,-168 1167,-168 1167,-174 1161,-180 1155,-180"/>
<text text-anchor="middle" x="1106" y="-159.5" font-family="sans" font-size="10.00">qiime2_mask_alignment</text>
</g>
<!-- 14&#45;&gt;15 -->
<g id="edge28" class="edge">
<title>14&#45;&gt;15</title>
<path fill="none" stroke="grey" stroke-width="2" d="M1039.46,-215.34C1049.71,-207.27 1062.05,-197.57 1073.3,-188.72"/>
<polygon fill="grey" stroke="grey" stroke-width="2" points="1075.16,-191.71 1080.86,-182.77 1070.84,-186.2 1075.16,-191.71"/>
</g>
<!-- 15&#45;&gt;0 -->
<g id="edge1" class="edge">
<title>15&#45;&gt;0</title>
<path fill="none" stroke="grey" stroke-width="2" d="M1095.72,-143.04C1083.11,-122.67 1059.81,-89.95 1031,-72 977.39,-38.6 903.91,-26.23 858.77,-21.66"/>
<polygon fill="grey" stroke="grey" stroke-width="2" points="859.29,-18.2 849.01,-20.78 858.65,-25.17 859.29,-18.2"/>
</g>
<!-- 16 -->
<g id="node17" class="node">
<title>16</title>
<path fill="none" stroke="#566bd8" stroke-width="2" d="M1210.5,-108C1210.5,-108 1095.5,-108 1095.5,-108 1089.5,-108 1083.5,-102 1083.5,-96 1083.5,-96 1083.5,-84 1083.5,-84 1083.5,-78 1089.5,-72 1095.5,-72 1095.5,-72 1210.5,-72 1210.5,-72 1216.5,-72 1222.5,-78 1222.5,-84 1222.5,-84 1222.5,-96 1222.5,-96 1222.5,-102 1216.5,-108 1210.5,-108"/>
<text text-anchor="middle" x="1153" y="-87.5" font-family="sans" font-size="10.00">qiime2_masked_aligned_viz</text>
</g>
<!-- 15&#45;&gt;16 -->
<g id="edge29" class="edge">
<title>15&#45;&gt;16</title>
<path fill="none" stroke="grey" stroke-width="2" d="M1117.86,-143.34C1122.72,-136.1 1128.47,-127.53 1133.9,-119.45"/>
<polygon fill="grey" stroke="grey" stroke-width="2" points="1136.62,-121.67 1139.29,-111.41 1130.81,-117.77 1136.62,-121.67"/>
</g>
<!-- 16&#45;&gt;0 -->
<g id="edge5" class="edge">
<title>16&#45;&gt;0</title>
<path fill="none" stroke="grey" stroke-width="2" d="M1082.77,-74.33C1014.74,-60.11 913.96,-39.05 858.41,-27.44"/>
<polygon fill="grey" stroke="grey" stroke-width="2" points="859.43,-24.08 848.92,-25.46 858,-30.93 859.43,-24.08"/>
</g>
<!-- 17&#45;&gt;0 -->
<g id="edge13" class="edge">
<title>17&#45;&gt;0</title>
<path fill="none" stroke="grey" stroke-width="2" d="M1255.16,-215.04C1261.7,-181.76 1270.02,-110.4 1232,-72 1205.98,-45.72 958.18,-27.65 858.87,-21.41"/>
<polygon fill="grey" stroke="grey" stroke-width="2" points="859.1,-17.92 848.9,-20.79 858.67,-24.9 859.1,-17.92"/>
</g>
<!-- 17&#45;&gt;18 -->
<g id="edge32" class="edge">
<title>17&#45;&gt;18</title>
<path fill="none" stroke="grey" stroke-width="2" d="M1280.83,-215.15C1294.99,-206.68 1312.14,-196.42 1327.46,-187.25"/>
<polygon fill="grey" stroke="grey" stroke-width="2" points="1328.85,-190.5 1335.63,-182.37 1325.25,-184.5 1328.85,-190.5"/>
</g>
<!-- 18&#45;&gt;0 -->
<g id="edge2" class="edge">
<title>18&#45;&gt;0</title>
<path fill="none" stroke="grey" stroke-width="2" d="M1353.38,-143.1C1335.12,-122.14 1301.76,-88.21 1265,-72 1192.51,-40.04 954.47,-25.46 858.57,-20.78"/>
<polygon fill="grey" stroke="grey" stroke-width="2" points="858.93,-17.29 848.78,-20.31 858.6,-24.28 858.93,-17.29"/>
</g>
</g>
</svg>
