<?xml version="1.0" encoding="UTF-8" standalone="no"?>
<!DOCTYPE svg PUBLIC "-//W3C//DTD SVG 1.1//EN"
 "http://www.w3.org/Graphics/SVG/1.1/DTD/svg11.dtd">
<!-- Generated by graphviz version 7.1.0 (0)
 -->
<!-- Title: snakemake_dag Pages: 1 -->
<svg width="1213pt" height="332pt"
 viewBox="0.00 0.00 1212.50 332.00" xmlns="http://www.w3.org/2000/svg" xmlns:xlink="http://www.w3.org/1999/xlink">
<g id="graph0" class="graph" transform="scale(1 1) rotate(0) translate(4 328)">
<title>snakemake_dag</title>
<polygon fill="white" stroke="none" points="-4,4 -4,-328 1208.5,-328 1208.5,4 -4,4"/>
<!-- 0 -->
<g id="node1" class="node">
<title>0</title>
<path fill="none" stroke="#56d8c9" stroke-width="2" d="M615,-36C615,-36 585,-36 585,-36 579,-36 573,-30 573,-24 573,-24 573,-12 573,-12 573,-6 579,0 585,0 585,0 615,0 615,0 621,0 627,-6 627,-12 627,-12 627,-24 627,-24 627,-30 621,-36 615,-36"/>
<text text-anchor="middle" x="600" y="-15.5" font-family="sans" font-size="10.00">all</text>
</g>
<!-- 1 -->
<g id="node2" class="node">
<title>1</title>
<path fill="none" stroke="#d85656" stroke-width="2" d="M74,-108C74,-108 12,-108 12,-108 6,-108 0,-102 0,-96 0,-96 0,-84 0,-84 0,-78 6,-72 12,-72 12,-72 74,-72 74,-72 80,-72 86,-78 86,-84 86,-84 86,-96 86,-96 86,-102 80,-108 74,-108"/>
<text text-anchor="middle" x="43" y="-87.5" font-family="sans" font-size="10.00">dot_rules_graph</text>
</g>
<!-- 1&#45;&gt;0 -->
<g id="edge1" class="edge">
<title>1&#45;&gt;0</title>
<path fill="none" stroke="grey" stroke-width="2" d="M86.8,-73.96C89.56,-73.24 92.31,-72.57 95,-72 265.01,-35.72 472.76,-23.88 559.22,-20.36"/>
<polygon fill="grey" stroke="grey" stroke-width="2" points="559.15,-23.87 569.01,-19.98 558.88,-16.87 559.15,-23.87"/>
</g>
<!-- 2 -->
<g id="node3" class="node">
<title>2</title>
<path fill="none" stroke="#d87d56" stroke-width="2" d="M214,-108C214,-108 116,-108 116,-108 110,-108 104,-102 104,-96 104,-96 104,-84 104,-84 104,-78 110,-72 116,-72 116,-72 214,-72 214,-72 220,-72 226,-78 226,-84 226,-84 226,-96 226,-96 226,-102 220,-108 214,-108"/>
<text text-anchor="middle" x="165" y="-87.5" font-family="sans" font-size="10.00">deploy_to_github_pages</text>
</g>
<!-- 2&#45;&gt;0 -->
<g id="edge2" class="edge">
<title>2&#45;&gt;0</title>
<path fill="none" stroke="grey" stroke-width="2" d="M226.88,-73.83C229.96,-73.19 233.01,-72.57 236,-72 352.76,-49.57 492.21,-31.73 559.59,-23.67"/>
<polygon fill="grey" stroke="grey" stroke-width="2" points="559.94,-27.16 569.45,-22.5 559.11,-20.2 559.94,-27.16"/>
</g>
<!-- 3 -->
<g id="node4" class="node">
<title>3</title>
<path fill="none" stroke="#56d8a2" stroke-width="2" d="M353.5,-108C353.5,-108 256.5,-108 256.5,-108 250.5,-108 244.5,-102 244.5,-96 244.5,-96 244.5,-84 244.5,-84 244.5,-78 250.5,-72 256.5,-72 256.5,-72 353.5,-72 353.5,-72 359.5,-72 365.5,-78 365.5,-84 365.5,-84 365.5,-96 365.5,-96 365.5,-102 359.5,-108 353.5,-108"/>
<text text-anchor="middle" x="305" y="-87.5" font-family="sans" font-size="10.00">snakemake_html_report</text>
</g>
<!-- 3&#45;&gt;0 -->
<g id="edge9" class="edge">
<title>3&#45;&gt;0</title>
<path fill="none" stroke="grey" stroke-width="2" d="M366.48,-74.41C424.46,-60.65 509.68,-40.43 559.54,-28.6"/>
<polygon fill="grey" stroke="grey" stroke-width="2" points="560.15,-32.05 569.07,-26.34 558.53,-25.24 560.15,-32.05"/>
</g>
<!-- 4 -->
<g id="node5" class="node">
<title>4</title>
<path fill="none" stroke="#56c9d8" stroke-width="2" d="M550,-180C550,-180 444,-180 444,-180 438,-180 432,-174 432,-168 432,-168 432,-156 432,-156 432,-150 438,-144 444,-144 444,-144 550,-144 550,-144 556,-144 562,-150 562,-156 562,-156 562,-168 562,-168 562,-174 556,-180 550,-180"/>
<text text-anchor="middle" x="497" y="-159.5" font-family="sans" font-size="10.00">qiime2_validate_metadata</text>
</g>
<!-- 4&#45;&gt;0 -->
<g id="edge11" class="edge">
<title>4&#45;&gt;0</title>
<path fill="none" stroke="grey" stroke-width="2" d="M451.16,-143.01C436.26,-134.72 421.41,-123.25 413,-108 405.27,-93.99 403.35,-84.76 413,-72 430.61,-48.7 509.93,-32.67 559.44,-24.74"/>
<polygon fill="grey" stroke="grey" stroke-width="2" points="559.89,-28.21 569.24,-23.23 558.82,-21.29 559.89,-28.21"/>
</g>
<!-- 9 -->
<g id="node10" class="node">
<title>9</title>
<path fill="none" stroke="#d8a456" stroke-width="2" d="M560,-108C560,-108 434,-108 434,-108 428,-108 422,-102 422,-96 422,-96 422,-84 422,-84 422,-78 428,-72 434,-72 434,-72 560,-72 560,-72 566,-72 572,-78 572,-84 572,-84 572,-96 572,-96 572,-102 566,-108 560,-108"/>
<text text-anchor="middle" x="497" y="-87.5" font-family="sans" font-size="10.00">qiime2_create_n_view_qc_qvz</text>
</g>
<!-- 4&#45;&gt;9 -->
<g id="edge16" class="edge">
<title>4&#45;&gt;9</title>
<path fill="none" stroke="grey" stroke-width="2" d="M497,-143.34C497,-136.75 497,-129.08 497,-121.67"/>
<polygon fill="grey" stroke="grey" stroke-width="2" points="500.5,-121.93 497,-111.93 493.5,-121.93 500.5,-121.93"/>
</g>
<!-- 5 -->
<g id="node6" class="node">
<title>5</title>
<path fill="none" stroke="#56a2d8" stroke-width="2" d="M868.5,-324C868.5,-324 749.5,-324 749.5,-324 743.5,-324 737.5,-318 737.5,-312 737.5,-312 737.5,-300 737.5,-300 737.5,-294 743.5,-288 749.5,-288 749.5,-288 868.5,-288 868.5,-288 874.5,-288 880.5,-294 880.5,-300 880.5,-300 880.5,-312 880.5,-312 880.5,-318 874.5,-324 868.5,-324"/>
<text text-anchor="middle" x="809" y="-303.5" font-family="sans" font-size="10.00">import_qiime2_mapping_files</text>
</g>
<!-- 5&#45;&gt;4 -->
<g id="edge12" class="edge">
<title>5&#45;&gt;4</title>
<path fill="none" stroke="grey" stroke-width="2" d="M769.48,-287.02C713.22,-261.41 609.99,-214.43 548.01,-186.22"/>
<polygon fill="grey" stroke="grey" stroke-width="2" points="549.5,-183.05 538.95,-182.09 546.6,-189.42 549.5,-183.05"/>
</g>
<!-- 6 -->
<g id="node7" class="node">
<title>6</title>
<path fill="none" stroke="#59d856" stroke-width="2" d="M959,-252C959,-252 847,-252 847,-252 841,-252 835,-246 835,-240 835,-240 835,-228 835,-228 835,-222 841,-216 847,-216 847,-216 959,-216 959,-216 965,-216 971,-222 971,-228 971,-228 971,-240 971,-240 971,-246 965,-252 959,-252"/>
<text text-anchor="middle" x="903" y="-231.5" font-family="sans" font-size="10.00">qiime2_import_paired_fastq</text>
</g>
<!-- 5&#45;&gt;6 -->
<g id="edge13" class="edge">
<title>5&#45;&gt;6</title>
<path fill="none" stroke="grey" stroke-width="2" d="M832.72,-287.34C843.66,-279.19 856.84,-269.37 868.83,-260.45"/>
<polygon fill="grey" stroke="grey" stroke-width="2" points="870.6,-263.49 876.53,-254.71 866.42,-257.88 870.6,-263.49"/>
</g>
<!-- 6&#45;&gt;0 -->
<g id="edge8" class="edge">
<title>6&#45;&gt;0</title>
<path fill="none" stroke="grey" stroke-width="2" d="M935.74,-215.15C987.09,-184.95 1076.38,-122.16 1032,-72 1006.27,-42.92 743.42,-26.37 640.76,-20.98"/>
<polygon fill="grey" stroke="grey" stroke-width="2" points="641.13,-17.49 630.96,-20.47 640.77,-24.48 641.13,-17.49"/>
</g>
<!-- 7 -->
<g id="node8" class="node">
<title>7</title>
<path fill="none" stroke="#56d87b" stroke-width="2" d="M1192.5,-180C1192.5,-180 1091.5,-180 1091.5,-180 1085.5,-180 1079.5,-174 1079.5,-168 1079.5,-168 1079.5,-156 1079.5,-156 1079.5,-150 1085.5,-144 1091.5,-144 1091.5,-144 1192.5,-144 1192.5,-144 1198.5,-144 1204.5,-150 1204.5,-156 1204.5,-156 1204.5,-168 1204.5,-168 1204.5,-174 1198.5,-180 1192.5,-180"/>
<text text-anchor="middle" x="1142" y="-159.5" font-family="sans" font-size="10.00">qiime2_summarize_fastq</text>
</g>
<!-- 6&#45;&gt;7 -->
<g id="edge14" class="edge">
<title>6&#45;&gt;7</title>
<path fill="none" stroke="grey" stroke-width="2" d="M964.24,-215.06C996,-205.76 1035.04,-194.33 1068.43,-184.55"/>
<polygon fill="grey" stroke="grey" stroke-width="2" points="1069.4,-187.91 1078.02,-181.74 1067.44,-181.19 1069.4,-187.91"/>
</g>
<!-- 8 -->
<g id="node9" class="node">
<title>8</title>
<path fill="none" stroke="#78d856" stroke-width="2" d="M785.5,-180C785.5,-180 724.5,-180 724.5,-180 718.5,-180 712.5,-174 712.5,-168 712.5,-168 712.5,-156 712.5,-156 712.5,-150 718.5,-144 724.5,-144 724.5,-144 785.5,-144 785.5,-144 791.5,-144 797.5,-150 797.5,-156 797.5,-156 797.5,-168 797.5,-168 797.5,-174 791.5,-180 785.5,-180"/>
<text text-anchor="middle" x="755" y="-159.5" font-family="sans" font-size="10.00">qiime2_read_qc</text>
</g>
<!-- 6&#45;&gt;8 -->
<g id="edge15" class="edge">
<title>6&#45;&gt;8</title>
<path fill="none" stroke="grey" stroke-width="2" d="M865.27,-215.15C846.81,-206.43 824.36,-195.81 804.54,-186.43"/>
<polygon fill="grey" stroke="grey" stroke-width="2" points="806.19,-183.34 795.65,-182.23 803.2,-189.67 806.19,-183.34"/>
</g>
<!-- 7&#45;&gt;0 -->
<g id="edge10" class="edge">
<title>7&#45;&gt;0</title>
<path fill="none" stroke="grey" stroke-width="2" d="M1132.17,-143.1C1119.6,-122.14 1095.72,-88.21 1065,-72 991.73,-33.34 740.17,-22.64 640.82,-19.89"/>
<polygon fill="grey" stroke="grey" stroke-width="2" points="640.96,-16.39 630.88,-19.63 640.78,-23.39 640.96,-16.39"/>
</g>
<!-- 8&#45;&gt;0 -->
<g id="edge7" class="edge">
<title>8&#45;&gt;0</title>
<path fill="none" stroke="grey" stroke-width="2" d="M711.66,-155.07C681.33,-148.63 642.23,-135.31 619,-108 605.39,-92 600.79,-68.62 599.52,-49.84"/>
<polygon fill="grey" stroke="grey" stroke-width="2" points="603.02,-49.76 599.19,-39.88 596.02,-49.99 603.02,-49.76"/>
</g>
<!-- 8&#45;&gt;9 -->
<g id="edge17" class="edge">
<title>8&#45;&gt;9</title>
<path fill="none" stroke="grey" stroke-width="2" d="M711.53,-149.2C674.38,-139.13 620.01,-124.37 575.3,-112.24"/>
<polygon fill="grey" stroke="grey" stroke-width="2" points="576.45,-108.93 565.89,-109.69 574.62,-115.69 576.45,-108.93"/>
</g>
<!-- 10 -->
<g id="node11" class="node">
<title>10</title>
<path fill="none" stroke="#c6d856" stroke-width="2" d="M732,-108C732,-108 640,-108 640,-108 634,-108 628,-102 628,-96 628,-96 628,-84 628,-84 628,-78 634,-72 640,-72 640,-72 732,-72 732,-72 738,-72 744,-78 744,-84 744,-84 744,-96 744,-96 744,-102 738,-108 732,-108"/>
<text text-anchor="middle" x="686" y="-87.5" font-family="sans" font-size="10.00">qiime2_denovo_cluster</text>
</g>
<!-- 8&#45;&gt;10 -->
<g id="edge18" class="edge">
<title>8&#45;&gt;10</title>
<path fill="none" stroke="grey" stroke-width="2" d="M737.59,-143.34C730.05,-135.69 721.05,-126.56 712.69,-118.08"/>
<polygon fill="grey" stroke="grey" stroke-width="2" points="715.28,-115.72 705.77,-111.06 710.3,-120.64 715.28,-115.72"/>
</g>
<!-- 11 -->
<g id="node12" class="node">
<title>11</title>
<path fill="none" stroke="#d8c356" stroke-width="2" d="M875.5,-108C875.5,-108 774.5,-108 774.5,-108 768.5,-108 762.5,-102 762.5,-96 762.5,-96 762.5,-84 762.5,-84 762.5,-78 768.5,-72 774.5,-72 774.5,-72 875.5,-72 875.5,-72 881.5,-72 887.5,-78 887.5,-84 887.5,-84 887.5,-96 887.5,-96 887.5,-102 881.5,-108 875.5,-108"/>
<text text-anchor="middle" x="825" y="-87.5" font-family="sans" font-size="10.00">qiime2_closedref_cluster</text>
</g>
<!-- 8&#45;&gt;11 -->
<g id="edge19" class="edge">
<title>8&#45;&gt;11</title>
<path fill="none" stroke="grey" stroke-width="2" d="M772.66,-143.34C780.31,-135.69 789.44,-126.56 797.92,-118.08"/>
<polygon fill="grey" stroke="grey" stroke-width="2" points="800.36,-120.59 804.96,-111.04 795.41,-115.64 800.36,-120.59"/>
</g>
<!-- 12 -->
<g id="node13" class="node">
<title>12</title>
<path fill="none" stroke="#9fd856" stroke-width="2" d="M1010.5,-108C1010.5,-108 917.5,-108 917.5,-108 911.5,-108 905.5,-102 905.5,-96 905.5,-96 905.5,-84 905.5,-84 905.5,-78 911.5,-72 917.5,-72 917.5,-72 1010.5,-72 1010.5,-72 1016.5,-72 1022.5,-78 1022.5,-84 1022.5,-84 1022.5,-96 1022.5,-96 1022.5,-102 1016.5,-108 1010.5,-108"/>
<text text-anchor="middle" x="964" y="-87.5" font-family="sans" font-size="10.00">qiime2_openref_cluster</text>
</g>
<!-- 8&#45;&gt;12 -->
<g id="edge20" class="edge">
<title>8&#45;&gt;12</title>
<path fill="none" stroke="grey" stroke-width="2" d="M798.3,-146.5C827.14,-136.84 865.58,-123.96 898.17,-113.05"/>
<polygon fill="grey" stroke="grey" stroke-width="2" points="899.11,-116.43 907.48,-109.93 896.88,-109.79 899.11,-116.43"/>
</g>
<!-- 9&#45;&gt;0 -->
<g id="edge3" class="edge">
<title>9&#45;&gt;0</title>
<path fill="none" stroke="grey" stroke-width="2" d="M523.26,-71.15C535.36,-62.93 549.94,-53.02 563.13,-44.06"/>
<polygon fill="grey" stroke="grey" stroke-width="2" points="564.98,-47.03 571.29,-38.51 561.05,-41.24 564.98,-47.03"/>
</g>
<!-- 10&#45;&gt;0 -->
<g id="edge5" class="edge">
<title>10&#45;&gt;0</title>
<path fill="none" stroke="grey" stroke-width="2" d="M664.3,-71.34C654.49,-63.36 642.71,-53.77 631.93,-44.99"/>
<polygon fill="grey" stroke="grey" stroke-width="2" points="634.31,-42.41 624.34,-38.81 629.89,-47.84 634.31,-42.41"/>
</g>
<!-- 11&#45;&gt;0 -->
<g id="edge4" class="edge">
<title>11&#45;&gt;0</title>
<path fill="none" stroke="grey" stroke-width="2" d="M767.35,-71.06C727.46,-58.65 675.39,-42.45 639.99,-31.44"/>
<polygon fill="grey" stroke="grey" stroke-width="2" points="641.24,-28.17 630.65,-28.54 639.16,-34.85 641.24,-28.17"/>
</g>
<!-- 12&#45;&gt;0 -->
<g id="edge6" class="edge">
<title>12&#45;&gt;0</title>
<path fill="none" stroke="grey" stroke-width="2" d="M904.51,-73.67C901.97,-73.09 899.46,-72.53 897,-72 805.99,-52.36 698.18,-34.44 640.77,-25.32"/>
<polygon fill="grey" stroke="grey" stroke-width="2" points="641.39,-21.88 630.96,-23.78 640.3,-28.79 641.39,-21.88"/>
</g>
</g>
</svg>
