<?xml version="1.0" encoding="UTF-8" standalone="no"?>
<!DOCTYPE svg PUBLIC "-//W3C//DTD SVG 1.1//EN"
 "http://www.w3.org/Graphics/SVG/1.1/DTD/svg11.dtd">
<!-- Generated by graphviz version 7.1.0 (0)
 -->
<!-- Title: snakemake_dag Pages: 1 -->
<svg width="1219pt" height="620pt"
 viewBox="0.00 0.00 1219.00 620.00" xmlns="http://www.w3.org/2000/svg" xmlns:xlink="http://www.w3.org/1999/xlink">
<g id="graph0" class="graph" transform="scale(1 1) rotate(0) translate(4 616)">
<title>snakemake_dag</title>
<polygon fill="white" stroke="none" points="-4,4 -4,-616 1215,-616 1215,4 -4,4"/>
<!-- 0 -->
<g id="node1" class="node">
<title>0</title>
<path fill="none" stroke="#d85656" stroke-width="2" d="M668,-36C668,-36 638,-36 638,-36 632,-36 626,-30 626,-24 626,-24 626,-12 626,-12 626,-6 632,0 638,0 638,0 668,0 668,0 674,0 680,-6 680,-12 680,-12 680,-24 680,-24 680,-30 674,-36 668,-36"/>
<text text-anchor="middle" x="653" y="-15.5" font-family="sans" font-size="10.00">all</text>
</g>
<!-- 1 -->
<g id="node2" class="node">
<title>1</title>
<path fill="none" stroke="#56d89a" stroke-width="2" d="M181,-108C181,-108 83,-108 83,-108 77,-108 71,-102 71,-96 71,-96 71,-84 71,-84 71,-78 77,-72 83,-72 83,-72 181,-72 181,-72 187,-72 193,-78 193,-84 193,-84 193,-96 193,-96 193,-102 187,-108 181,-108"/>
<text text-anchor="middle" x="132" y="-87.5" font-family="sans" font-size="10.00">deploy_to_github_pages</text>
</g>
<!-- 1&#45;&gt;0 -->
<g id="edge12" class="edge">
<title>1&#45;&gt;0</title>
<path fill="none" stroke="grey" stroke-width="2" d="M193.7,-74.48C198.19,-73.59 202.66,-72.75 207,-72 355.55,-46.41 534.07,-29.25 612.59,-22.37"/>
<polygon fill="grey" stroke="grey" stroke-width="2" points="612.51,-25.89 622.18,-21.55 611.91,-18.92 612.51,-25.89"/>
</g>
<!-- 2 -->
<g id="node3" class="node">
<title>2</title>
<path fill="none" stroke="#566bd8" stroke-width="2" d="M82,-180C82,-180 12,-180 12,-180 6,-180 0,-174 0,-168 0,-168 0,-156 0,-156 0,-150 6,-144 12,-144 12,-144 82,-144 82,-144 88,-144 94,-150 94,-156 94,-156 94,-168 94,-168 94,-174 88,-180 82,-180"/>
<text text-anchor="middle" x="47" y="-159.5" font-family="sans" font-size="10.00">get_dot_rulegraph</text>
</g>
<!-- 2&#45;&gt;1 -->
<g id="edge16" class="edge">
<title>2&#45;&gt;1</title>
<path fill="none" stroke="grey" stroke-width="2" d="M68.45,-143.34C78.14,-135.36 89.78,-125.77 100.44,-116.99"/>
<polygon fill="grey" stroke="grey" stroke-width="2" points="102.43,-119.88 107.93,-110.83 97.98,-114.48 102.43,-119.88"/>
</g>
<!-- 3 -->
<g id="node4" class="node">
<title>3</title>
<path fill="none" stroke="#56a9d8" stroke-width="2" d="M168,-180C168,-180 124,-180 124,-180 118,-180 112,-174 112,-168 112,-168 112,-156 112,-156 112,-150 118,-144 124,-144 124,-144 168,-144 168,-144 174,-144 180,-150 180,-156 180,-156 180,-168 180,-168 180,-174 174,-180 168,-180"/>
<text text-anchor="middle" x="146" y="-159.5" font-family="sans" font-size="10.00">project_tree</text>
</g>
<!-- 3&#45;&gt;1 -->
<g id="edge15" class="edge">
<title>3&#45;&gt;1</title>
<path fill="none" stroke="grey" stroke-width="2" d="M142.47,-143.34C141.15,-136.75 139.62,-129.08 138.13,-121.67"/>
<polygon fill="grey" stroke="grey" stroke-width="2" points="141.57,-120.99 136.17,-111.87 134.7,-122.36 141.57,-120.99"/>
</g>
<!-- 4 -->
<g id="node5" class="node">
<title>4</title>
<path fill="none" stroke="#56d86b" stroke-width="2" d="M377,-468C377,-468 271,-468 271,-468 265,-468 259,-462 259,-456 259,-456 259,-444 259,-444 259,-438 265,-432 271,-432 271,-432 377,-432 377,-432 383,-432 389,-438 389,-444 389,-444 389,-456 389,-456 389,-462 383,-468 377,-468"/>
<text text-anchor="middle" x="324" y="-447.5" font-family="sans" font-size="10.00">qiime2_validate_metadata</text>
</g>
<!-- 4&#45;&gt;0 -->
<g id="edge8" class="edge">
<title>4&#45;&gt;0</title>
<path fill="none" stroke="grey" stroke-width="2" d="M282.05,-431.18C266.66,-422.65 250.46,-410.99 240,-396 216.86,-362.83 221,-347.45 221,-307 221,-307 221,-307 221,-161 221,-101.83 266.6,-97.47 320,-72 417.42,-25.53 547.26,-18.51 612.27,-18.21"/>
<polygon fill="grey" stroke="grey" stroke-width="2" points="612.09,-21.71 622.1,-18.23 612.11,-14.71 612.09,-21.71"/>
</g>
<!-- 9 -->
<g id="node10" class="node">
<title>9</title>
<path fill="none" stroke="#c6d856" stroke-width="2" d="M387,-396C387,-396 261,-396 261,-396 255,-396 249,-390 249,-384 249,-384 249,-372 249,-372 249,-366 255,-360 261,-360 261,-360 387,-360 387,-360 393,-360 399,-366 399,-372 399,-372 399,-384 399,-384 399,-390 393,-396 387,-396"/>
<text text-anchor="middle" x="324" y="-375.5" font-family="sans" font-size="10.00">qiime2_create_n_view_qc_qvz</text>
</g>
<!-- 4&#45;&gt;9 -->
<g id="edge22" class="edge">
<title>4&#45;&gt;9</title>
<path fill="none" stroke="grey" stroke-width="2" d="M324,-431.34C324,-424.75 324,-417.08 324,-409.67"/>
<polygon fill="grey" stroke="grey" stroke-width="2" points="327.5,-409.93 324,-399.93 320.5,-409.93 327.5,-409.93"/>
</g>
<!-- 5 -->
<g id="node6" class="node">
<title>5</title>
<path fill="none" stroke="#d89556" stroke-width="2" d="M497.5,-612C497.5,-612 378.5,-612 378.5,-612 372.5,-612 366.5,-606 366.5,-600 366.5,-600 366.5,-588 366.5,-588 366.5,-582 372.5,-576 378.5,-576 378.5,-576 497.5,-576 497.5,-576 503.5,-576 509.5,-582 509.5,-588 509.5,-588 509.5,-600 509.5,-600 509.5,-606 503.5,-612 497.5,-612"/>
<text text-anchor="middle" x="438" y="-591.5" font-family="sans" font-size="10.00">import_qiime2_mapping_files</text>
</g>
<!-- 5&#45;&gt;4 -->
<g id="edge17" class="edge">
<title>5&#45;&gt;4</title>
<path fill="none" stroke="grey" stroke-width="2" d="M423.56,-575.02C404.12,-550.8 369.32,-507.45 346.45,-478.96"/>
<polygon fill="grey" stroke="grey" stroke-width="2" points="349.21,-476.81 340.22,-471.2 343.75,-481.19 349.21,-476.81"/>
</g>
<!-- 6 -->
<g id="node7" class="node">
<title>6</title>
<path fill="none" stroke="#56d8c1" stroke-width="2" d="M545,-540C545,-540 433,-540 433,-540 427,-540 421,-534 421,-528 421,-528 421,-516 421,-516 421,-510 427,-504 433,-504 433,-504 545,-504 545,-504 551,-504 557,-510 557,-516 557,-516 557,-528 557,-528 557,-534 551,-540 545,-540"/>
<text text-anchor="middle" x="489" y="-519.5" font-family="sans" font-size="10.00">qiime2_import_paired_fastq</text>
</g>
<!-- 5&#45;&gt;6 -->
<g id="edge18" class="edge">
<title>5&#45;&gt;6</title>
<path fill="none" stroke="grey" stroke-width="2" d="M450.87,-575.34C456.2,-568.01 462.53,-559.34 468.47,-551.18"/>
<polygon fill="grey" stroke="grey" stroke-width="2" points="471.11,-553.49 474.17,-543.35 465.46,-549.37 471.11,-553.49"/>
</g>
<!-- 6&#45;&gt;0 -->
<g id="edge14" class="edge">
<title>6&#45;&gt;0</title>
<path fill="none" stroke="grey" stroke-width="2" d="M557.9,-521.92C738.37,-522.47 1211,-511.3 1211,-379 1211,-379 1211,-379 1211,-161 1211,-98.11 1158.95,-96.43 1101,-72 1027.84,-41.15 789.56,-25.92 693.6,-20.92"/>
<polygon fill="grey" stroke="grey" stroke-width="2" points="693.96,-17.44 683.79,-20.42 693.6,-24.43 693.96,-17.44"/>
</g>
<!-- 7 -->
<g id="node8" class="node">
<title>7</title>
<path fill="none" stroke="#d6d856" stroke-width="2" d="M419.5,-324C419.5,-324 318.5,-324 318.5,-324 312.5,-324 306.5,-318 306.5,-312 306.5,-312 306.5,-300 306.5,-300 306.5,-294 312.5,-288 318.5,-288 318.5,-288 419.5,-288 419.5,-288 425.5,-288 431.5,-294 431.5,-300 431.5,-300 431.5,-312 431.5,-312 431.5,-318 425.5,-324 419.5,-324"/>
<text text-anchor="middle" x="369" y="-303.5" font-family="sans" font-size="10.00">qiime2_summarize_fastq</text>
</g>
<!-- 6&#45;&gt;7 -->
<g id="edge19" class="edge">
<title>6&#45;&gt;7</title>
<path fill="none" stroke="grey" stroke-width="2" d="M481.19,-503.09C467.71,-472.79 438.6,-409.87 408,-360 402.83,-351.56 396.69,-342.77 390.83,-334.82"/>
<polygon fill="grey" stroke="grey" stroke-width="2" points="393.78,-332.92 384.96,-327.05 388.19,-337.14 393.78,-332.92"/>
</g>
<!-- 8 -->
<g id="node9" class="node">
<title>8</title>
<path fill="none" stroke="#d8ac56" stroke-width="2" d="M597,-468C597,-468 505,-468 505,-468 499,-468 493,-462 493,-456 493,-456 493,-444 493,-444 493,-438 499,-432 505,-432 505,-432 597,-432 597,-432 603,-432 609,-438 609,-444 609,-444 609,-456 609,-456 609,-462 603,-468 597,-468"/>
<text text-anchor="middle" x="551" y="-447.5" font-family="sans" font-size="10.00">qiime2_dada2_read_qc</text>
</g>
<!-- 6&#45;&gt;8 -->
<g id="edge20" class="edge">
<title>6&#45;&gt;8</title>
<path fill="none" stroke="grey" stroke-width="2" d="M504.65,-503.34C511.28,-495.85 519.16,-486.95 526.53,-478.63"/>
<polygon fill="grey" stroke="grey" stroke-width="2" points="529.13,-480.97 533.14,-471.17 523.89,-476.33 529.13,-480.97"/>
</g>
<!-- 7&#45;&gt;0 -->
<g id="edge7" class="edge">
<title>7&#45;&gt;0</title>
<path fill="none" stroke="grey" stroke-width="2" d="M371.62,-287.16C375,-268.35 382.17,-238.39 396,-216 444.92,-136.84 471.88,-125.53 548,-72 568.29,-57.73 592.97,-45.07 613.3,-35.7"/>
<polygon fill="grey" stroke="grey" stroke-width="2" points="614.56,-38.98 622.25,-31.69 611.69,-32.59 614.56,-38.98"/>
</g>
<!-- 8&#45;&gt;0 -->
<g id="edge1" class="edge">
<title>8&#45;&gt;0</title>
<path fill="none" stroke="grey" stroke-width="2" d="M551.32,-431.32C552.42,-412.37 556.39,-382.05 570,-360 583.46,-338.21 601.54,-345.79 615,-324 636.25,-289.59 634,-275.45 634,-235 634,-235 634,-235 634,-161 634,-122.31 641.01,-78.21 646.52,-49.56"/>
<polygon fill="grey" stroke="grey" stroke-width="2" points="649.94,-50.29 648.47,-39.8 643.08,-48.92 649.94,-50.29"/>
</g>
<!-- 8&#45;&gt;9 -->
<g id="edge21" class="edge">
<title>8&#45;&gt;9</title>
<path fill="none" stroke="grey" stroke-width="2" d="M492.84,-431.06C462.8,-421.8 425.92,-410.43 394.3,-400.68"/>
<polygon fill="grey" stroke="grey" stroke-width="2" points="395.49,-397.38 384.9,-397.78 393.43,-404.07 395.49,-397.38"/>
</g>
<!-- 10 -->
<g id="node11" class="node">
<title>10</title>
<path fill="none" stroke="#56d8a9" stroke-width="2" d="M683,-396C683,-396 591,-396 591,-396 585,-396 579,-390 579,-384 579,-384 579,-372 579,-372 579,-366 585,-360 591,-360 591,-360 683,-360 683,-360 689,-360 695,-366 695,-372 695,-372 695,-384 695,-384 695,-390 689,-396 683,-396"/>
<text text-anchor="middle" x="637" y="-375.5" font-family="sans" font-size="10.00">qiime2_denovo_cluster</text>
</g>
<!-- 8&#45;&gt;10 -->
<g id="edge23" class="edge">
<title>8&#45;&gt;10</title>
<path fill="none" stroke="grey" stroke-width="2" d="M572.7,-431.34C582.51,-423.36 594.29,-413.77 605.07,-404.99"/>
<polygon fill="grey" stroke="grey" stroke-width="2" points="607.11,-407.84 612.66,-398.81 602.69,-402.41 607.11,-407.84"/>
</g>
<!-- 11 -->
<g id="node12" class="node">
<title>11</title>
<path fill="none" stroke="#afd856" stroke-width="2" d="M1025,-396C1025,-396 929,-396 929,-396 923,-396 917,-390 917,-384 917,-384 917,-372 917,-372 917,-366 923,-360 929,-360 929,-360 1025,-360 1025,-360 1031,-360 1037,-366 1037,-372 1037,-372 1037,-384 1037,-384 1037,-390 1031,-396 1025,-396"/>
<text text-anchor="middle" x="977" y="-375.5" font-family="sans" font-size="10.00">qiime2_mafft_alignment</text>
</g>
<!-- 8&#45;&gt;11 -->
<g id="edge24" class="edge">
<title>8&#45;&gt;11</title>
<path fill="none" stroke="grey" stroke-width="2" d="M609.79,-439.34C686.34,-426.76 820.19,-404.77 903.41,-391.09"/>
<polygon fill="grey" stroke="grey" stroke-width="2" points="903.78,-394.58 913.08,-389.5 902.64,-387.67 903.78,-394.58"/>
</g>
<!-- 14 -->
<g id="node15" class="node">
<title>14</title>
<path fill="none" stroke="#56d882" stroke-width="2" d="M551,-252C551,-252 417,-252 417,-252 411,-252 405,-246 405,-240 405,-240 405,-228 405,-228 405,-222 411,-216 417,-216 417,-216 551,-216 551,-216 557,-216 563,-222 563,-228 563,-228 563,-240 563,-240 563,-246 557,-252 551,-252"/>
<text text-anchor="middle" x="484" y="-231.5" font-family="sans" font-size="10.00">qiime2_feature_n_taxonomy_tsv</text>
</g>
<!-- 8&#45;&gt;14 -->
<g id="edge27" class="edge">
<title>8&#45;&gt;14</title>
<path fill="none" stroke="grey" stroke-width="2" d="M536.73,-431.3C519.14,-408.23 490.19,-365.86 479,-324 473.92,-305.01 475.11,-282.95 477.61,-265.54"/>
<polygon fill="grey" stroke="grey" stroke-width="2" points="481.05,-266.16 479.28,-255.71 474.15,-264.98 481.05,-266.16"/>
</g>
<!-- 15 -->
<g id="node16" class="node">
<title>15</title>
<path fill="none" stroke="#68d856" stroke-width="2" d="M594,-324C594,-324 500,-324 500,-324 494,-324 488,-318 488,-312 488,-312 488,-300 488,-300 488,-294 494,-288 500,-288 500,-288 594,-288 594,-288 600,-288 606,-294 606,-300 606,-300 606,-312 606,-312 606,-318 600,-324 594,-324"/>
<text text-anchor="middle" x="547" y="-303.5" font-family="sans" font-size="10.00">qiime2_collapse_genus</text>
</g>
<!-- 8&#45;&gt;15 -->
<g id="edge28" class="edge">
<title>8&#45;&gt;15</title>
<path fill="none" stroke="grey" stroke-width="2" d="M545.03,-431.08C541.96,-420.92 538.54,-407.89 537,-396 534.47,-376.53 536.87,-354.62 539.95,-337.41"/>
<polygon fill="grey" stroke="grey" stroke-width="2" points="543.36,-338.21 541.89,-327.72 536.49,-336.84 543.36,-338.21"/>
</g>
<!-- 16 -->
<g id="node17" class="node">
<title>16</title>
<path fill="none" stroke="#80d856" stroke-width="2" d="M784,-108C784,-108 712,-108 712,-108 706,-108 700,-102 700,-96 700,-96 700,-84 700,-84 700,-78 706,-72 712,-72 712,-72 784,-72 784,-72 790,-72 796,-78 796,-84 796,-84 796,-96 796,-96 796,-102 790,-108 784,-108"/>
<text text-anchor="middle" x="748" y="-87.5" font-family="sans" font-size="10.00">qiime2_rarefaction</text>
</g>
<!-- 8&#45;&gt;16 -->
<g id="edge29" class="edge">
<title>8&#45;&gt;16</title>
<path fill="none" stroke="grey" stroke-width="2" d="M609.63,-442.72C641.92,-436.21 680.17,-422.96 704,-396 730.79,-365.69 723,-347.45 723,-307 723,-307 723,-307 723,-233 723,-193.89 732.31,-149.62 739.57,-121.06"/>
<polygon fill="grey" stroke="grey" stroke-width="2" points="742.88,-122.25 742.05,-111.68 736.11,-120.46 742.88,-122.25"/>
</g>
<!-- 19 -->
<g id="node20" class="node">
<title>19</title>
<path fill="none" stroke="#5682d8" stroke-width="2" d="M921.5,-108C921.5,-108 826.5,-108 826.5,-108 820.5,-108 814.5,-102 814.5,-96 814.5,-96 814.5,-84 814.5,-84 814.5,-78 820.5,-72 826.5,-72 826.5,-72 921.5,-72 921.5,-72 927.5,-72 933.5,-78 933.5,-84 933.5,-84 933.5,-96 933.5,-96 933.5,-102 927.5,-108 921.5,-108"/>
<text text-anchor="middle" x="874" y="-87.5" font-family="sans" font-size="10.00">alpha_diversity_metrics</text>
</g>
<!-- 8&#45;&gt;19 -->
<g id="edge33" class="edge">
<title>8&#45;&gt;19</title>
<path fill="none" stroke="grey" stroke-width="2" d="M609.81,-444.46C647.54,-438.67 695.22,-425.56 727,-396 758.01,-367.16 761,-349.34 761,-307 761,-307 761,-307 761,-233 761,-191.91 761.09,-176.68 786,-144 794.86,-132.37 807.08,-122.75 819.58,-115.05"/>
<polygon fill="grey" stroke="grey" stroke-width="2" points="820.99,-118.28 827.94,-110.28 817.52,-112.2 820.99,-118.28"/>
</g>
<!-- 9&#45;&gt;0 -->
<g id="edge10" class="edge">
<title>9&#45;&gt;0</title>
<path fill="none" stroke="grey" stroke-width="2" d="M313.55,-359.37C307.96,-349.29 301.35,-336.26 297,-324 283.48,-285.88 278,-275.45 278,-235 278,-235 278,-235 278,-161 278,-90.11 515.36,-42.14 612.4,-25.49"/>
<polygon fill="grey" stroke="grey" stroke-width="2" points="612.85,-28.96 622.14,-23.85 611.69,-22.06 612.85,-28.96"/>
</g>
<!-- 10&#45;&gt;0 -->
<g id="edge5" class="edge">
<title>10&#45;&gt;0</title>
<path fill="none" stroke="grey" stroke-width="2" d="M644.25,-359.41C654.5,-332.91 672,-280.96 672,-235 672,-235 672,-235 672,-161 672,-122.31 664.99,-78.21 659.48,-49.56"/>
<polygon fill="grey" stroke="grey" stroke-width="2" points="662.92,-48.92 657.53,-39.8 656.06,-50.29 662.92,-48.92"/>
</g>
<!-- 11&#45;&gt;0 -->
<g id="edge11" class="edge">
<title>11&#45;&gt;0</title>
<path fill="none" stroke="grey" stroke-width="2" d="M1037.94,-360.8C1095.48,-341.37 1173,-302.65 1173,-235 1173,-235 1173,-235 1173,-161 1173,-61.78 816.22,-29.5 693.72,-21.35"/>
<polygon fill="grey" stroke="grey" stroke-width="2" points="694.18,-17.87 683.98,-20.72 693.73,-24.85 694.18,-17.87"/>
</g>
<!-- 12 -->
<g id="node13" class="node">
<title>12</title>
<path fill="none" stroke="#569ad8" stroke-width="2" d="M1026,-324C1026,-324 928,-324 928,-324 922,-324 916,-318 916,-312 916,-312 916,-300 916,-300 916,-294 922,-288 928,-288 928,-288 1026,-288 1026,-288 1032,-288 1038,-294 1038,-300 1038,-300 1038,-312 1038,-312 1038,-318 1032,-324 1026,-324"/>
<text text-anchor="middle" x="977" y="-303.5" font-family="sans" font-size="10.00">qiime2_mask_alignment</text>
</g>
<!-- 11&#45;&gt;12 -->
<g id="edge25" class="edge">
<title>11&#45;&gt;12</title>
<path fill="none" stroke="grey" stroke-width="2" d="M977,-359.34C977,-352.75 977,-345.08 977,-337.67"/>
<polygon fill="grey" stroke="grey" stroke-width="2" points="980.5,-337.93 977,-327.93 973.5,-337.93 980.5,-337.93"/>
</g>
<!-- 12&#45;&gt;0 -->
<g id="edge6" class="edge">
<title>12&#45;&gt;0</title>
<path fill="none" stroke="grey" stroke-width="2" d="M980.58,-287.18C988.18,-243.79 1000.76,-131.87 943,-72 909.2,-36.96 765.49,-24.73 693.89,-20.76"/>
<polygon fill="grey" stroke="grey" stroke-width="2" points="694.18,-17.27 684.01,-20.25 693.82,-24.26 694.18,-17.27"/>
</g>
<!-- 13 -->
<g id="node14" class="node">
<title>13</title>
<path fill="none" stroke="#d8c356" stroke-width="2" d="M1132.5,-252C1132.5,-252 1017.5,-252 1017.5,-252 1011.5,-252 1005.5,-246 1005.5,-240 1005.5,-240 1005.5,-228 1005.5,-228 1005.5,-222 1011.5,-216 1017.5,-216 1017.5,-216 1132.5,-216 1132.5,-216 1138.5,-216 1144.5,-222 1144.5,-228 1144.5,-228 1144.5,-240 1144.5,-240 1144.5,-246 1138.5,-252 1132.5,-252"/>
<text text-anchor="middle" x="1075" y="-231.5" font-family="sans" font-size="10.00">qiime2_masked_aligned_viz</text>
</g>
<!-- 12&#45;&gt;13 -->
<g id="edge26" class="edge">
<title>12&#45;&gt;13</title>
<path fill="none" stroke="grey" stroke-width="2" d="M1001.98,-287.15C1013.39,-279.01 1027.1,-269.22 1039.54,-260.33"/>
<polygon fill="grey" stroke="grey" stroke-width="2" points="1041.5,-263.23 1047.6,-254.57 1037.43,-257.54 1041.5,-263.23"/>
</g>
<!-- 18 -->
<g id="node19" class="node">
<title>18</title>
<path fill="none" stroke="#56d8d8" stroke-width="2" d="M936.5,-252C936.5,-252 801.5,-252 801.5,-252 795.5,-252 789.5,-246 789.5,-240 789.5,-240 789.5,-228 789.5,-228 789.5,-222 795.5,-216 801.5,-216 801.5,-216 936.5,-216 936.5,-216 942.5,-216 948.5,-222 948.5,-228 948.5,-228 948.5,-240 948.5,-240 948.5,-246 942.5,-252 936.5,-252"/>
<text text-anchor="middle" x="869" y="-231.5" font-family="sans" font-size="10.00">qiime2_phylogeny_unrooted_tree</text>
</g>
<!-- 12&#45;&gt;18 -->
<g id="edge32" class="edge">
<title>12&#45;&gt;18</title>
<path fill="none" stroke="grey" stroke-width="2" d="M949.47,-287.15C936.65,-278.84 921.18,-268.82 907.25,-259.79"/>
<polygon fill="grey" stroke="grey" stroke-width="2" points="909.32,-256.96 899.02,-254.46 905.51,-262.83 909.32,-256.96"/>
</g>
<!-- 13&#45;&gt;0 -->
<g id="edge4" class="edge">
<title>13&#45;&gt;0</title>
<path fill="none" stroke="grey" stroke-width="2" d="M1071.29,-215.26C1063.19,-181.36 1040.55,-107.58 991,-72 944.02,-38.27 772.94,-25.19 693.74,-20.86"/>
<polygon fill="grey" stroke="grey" stroke-width="2" points="694.15,-17.37 683.98,-20.35 693.78,-24.37 694.15,-17.37"/>
</g>
<!-- 14&#45;&gt;0 -->
<g id="edge9" class="edge">
<title>14&#45;&gt;0</title>
<path fill="none" stroke="grey" stroke-width="2" d="M491.76,-215.02C505.96,-183.52 538.52,-117.41 580,-72 590.03,-61.02 602.66,-50.9 614.58,-42.5"/>
<polygon fill="grey" stroke="grey" stroke-width="2" points="616.4,-45.5 622.73,-37 612.48,-39.7 616.4,-45.5"/>
</g>
<!-- 15&#45;&gt;0 -->
<g id="edge3" class="edge">
<title>15&#45;&gt;0</title>
<path fill="none" stroke="grey" stroke-width="2" d="M556.39,-287.19C561.47,-277.07 567.6,-264.04 572,-252 600.44,-174.24 587.09,-147.97 620,-72 623.55,-63.81 628.23,-55.41 632.94,-47.77"/>
<polygon fill="grey" stroke="grey" stroke-width="2" points="635.84,-49.74 638.34,-39.44 629.96,-45.93 635.84,-49.74"/>
</g>
<!-- 16&#45;&gt;0 -->
<g id="edge2" class="edge">
<title>16&#45;&gt;0</title>
<path fill="none" stroke="grey" stroke-width="2" d="M724.03,-71.34C712.97,-63.19 699.65,-53.37 687.54,-44.45"/>
<polygon fill="grey" stroke="grey" stroke-width="2" points="689.86,-41.81 679.73,-38.7 685.71,-47.45 689.86,-41.81"/>
</g>
<!-- 17 -->
<g id="node18" class="node">
<title>17</title>
<path fill="none" stroke="#97d856" stroke-width="2" d="M931.5,-180C931.5,-180 806.5,-180 806.5,-180 800.5,-180 794.5,-174 794.5,-168 794.5,-168 794.5,-156 794.5,-156 794.5,-150 800.5,-144 806.5,-144 806.5,-144 931.5,-144 931.5,-144 937.5,-144 943.5,-150 943.5,-156 943.5,-156 943.5,-168 943.5,-168 943.5,-174 937.5,-180 931.5,-180"/>
<text text-anchor="middle" x="869" y="-159.5" font-family="sans" font-size="10.00">qiime2_phylogeny_rooted_tree</text>
</g>
<!-- 17&#45;&gt;16 -->
<g id="edge30" class="edge">
<title>17&#45;&gt;16</title>
<path fill="none" stroke="grey" stroke-width="2" d="M838.15,-143.15C823.5,-134.68 805.77,-124.42 789.93,-115.25"/>
<polygon fill="grey" stroke="grey" stroke-width="2" points="791.82,-112.31 781.41,-110.33 788.31,-118.37 791.82,-112.31"/>
</g>
<!-- 17&#45;&gt;19 -->
<g id="edge34" class="edge">
<title>17&#45;&gt;19</title>
<path fill="none" stroke="grey" stroke-width="2" d="M870.26,-143.34C870.73,-136.75 871.28,-129.08 871.81,-121.67"/>
<polygon fill="grey" stroke="grey" stroke-width="2" points="875.28,-122.15 872.51,-111.92 868.3,-121.65 875.28,-122.15"/>
</g>
<!-- 18&#45;&gt;17 -->
<g id="edge31" class="edge">
<title>18&#45;&gt;17</title>
<path fill="none" stroke="grey" stroke-width="2" d="M869,-215.34C869,-208.75 869,-201.08 869,-193.67"/>
<polygon fill="grey" stroke="grey" stroke-width="2" points="872.5,-193.93 869,-183.93 865.5,-193.93 872.5,-193.93"/>
</g>
<!-- 19&#45;&gt;0 -->
<g id="edge13" class="edge">
<title>19&#45;&gt;0</title>
<path fill="none" stroke="grey" stroke-width="2" d="M817.37,-71.06C778.42,-58.73 727.64,-42.64 692.89,-31.63"/>
<polygon fill="grey" stroke="grey" stroke-width="2" points="694.34,-28.42 683.75,-28.74 692.23,-35.1 694.34,-28.42"/>
</g>
</g>
</svg>
