<?xml version="1.0" encoding="UTF-8" standalone="no"?>
<!DOCTYPE svg PUBLIC "-//W3C//DTD SVG 1.1//EN"
 "http://www.w3.org/Graphics/SVG/1.1/DTD/svg11.dtd">
<!-- Generated by graphviz version 7.1.0 (0)
 -->
<!-- Title: snakemake_dag Pages: 1 -->
<svg width="1480pt" height="692pt"
 viewBox="0.00 0.00 1480.04 692.00" xmlns="http://www.w3.org/2000/svg" xmlns:xlink="http://www.w3.org/1999/xlink">
<g id="graph0" class="graph" transform="scale(1 1) rotate(0) translate(4 688)">
<title>snakemake_dag</title>
<polygon fill="white" stroke="none" points="-4,4 -4,-688 1476.04,-688 1476.04,4 -4,4"/>
<!-- 0 -->
<g id="node1" class="node">
<title>0</title>
<path fill="none" stroke="#56d8a9" stroke-width="2" d="M804,-36C804,-36 774,-36 774,-36 768,-36 762,-30 762,-24 762,-24 762,-12 762,-12 762,-6 768,0 774,0 774,0 804,0 804,0 810,0 816,-6 816,-12 816,-12 816,-24 816,-24 816,-30 810,-36 804,-36"/>
<text text-anchor="middle" x="789" y="-15.5" font-family="sans" font-size="10.00">all</text>
</g>
<!-- 1 -->
<g id="node2" class="node">
<title>1</title>
<path fill="none" stroke="#56d0d8" stroke-width="2" d="M132,-108C132,-108 34,-108 34,-108 28,-108 22,-102 22,-96 22,-96 22,-84 22,-84 22,-78 28,-72 34,-72 34,-72 132,-72 132,-72 138,-72 144,-78 144,-84 144,-84 144,-96 144,-96 144,-102 138,-108 132,-108"/>
<text text-anchor="middle" x="83" y="-87.5" font-family="sans" font-size="10.00">deploy_to_github_pages</text>
</g>
<!-- 1&#45;&gt;0 -->
<g id="edge14" class="edge">
<title>1&#45;&gt;0</title>
<path fill="none" stroke="grey" stroke-width="2" d="M144.67,-74.31C149.17,-73.45 153.65,-72.67 158,-72 379.24,-37.8 647.78,-24.47 748.37,-20.45"/>
<polygon fill="grey" stroke="grey" stroke-width="2" points="748.28,-23.96 758.13,-20.07 748.01,-16.96 748.28,-23.96"/>
</g>
<!-- 2 -->
<g id="node3" class="node">
<title>2</title>
<path fill="none" stroke="#568ad8" stroke-width="2" d="M168,-180C168,-180 98,-180 98,-180 92,-180 86,-174 86,-168 86,-168 86,-156 86,-156 86,-150 92,-144 98,-144 98,-144 168,-144 168,-144 174,-144 180,-150 180,-156 180,-156 180,-168 180,-168 180,-174 174,-180 168,-180"/>
<text text-anchor="middle" x="133" y="-159.5" font-family="sans" font-size="10.00">get_dot_rulegraph</text>
</g>
<!-- 2&#45;&gt;1 -->
<g id="edge20" class="edge">
<title>2&#45;&gt;1</title>
<path fill="none" stroke="grey" stroke-width="2" d="M120.38,-143.34C115.21,-136.1 109.09,-127.53 103.32,-119.45"/>
<polygon fill="grey" stroke="grey" stroke-width="2" points="106.21,-117.47 97.55,-111.37 100.51,-121.54 106.21,-117.47"/>
</g>
<!-- 3 -->
<g id="node4" class="node">
<title>3</title>
<path fill="none" stroke="#56a2d8" stroke-width="2" d="M56,-180C56,-180 12,-180 12,-180 6,-180 0,-174 0,-168 0,-168 0,-156 0,-156 0,-150 6,-144 12,-144 12,-144 56,-144 56,-144 62,-144 68,-150 68,-156 68,-156 68,-168 68,-168 68,-174 62,-180 56,-180"/>
<text text-anchor="middle" x="34" y="-159.5" font-family="sans" font-size="10.00">project_tree</text>
</g>
<!-- 3&#45;&gt;1 -->
<g id="edge21" class="edge">
<title>3&#45;&gt;1</title>
<path fill="none" stroke="grey" stroke-width="2" d="M46.36,-143.34C51.43,-136.1 57.43,-127.53 63.08,-119.45"/>
<polygon fill="grey" stroke="grey" stroke-width="2" points="65.87,-121.58 68.73,-111.38 60.13,-117.57 65.87,-121.58"/>
</g>
<!-- 4 -->
<g id="node5" class="node">
<title>4</title>
<path fill="none" stroke="#d88d56" stroke-width="2" d="M551,-180C551,-180 465,-180 465,-180 459,-180 453,-174 453,-168 453,-168 453,-156 453,-156 453,-150 459,-144 465,-144 465,-144 551,-144 551,-144 557,-144 563,-150 563,-156 563,-156 563,-168 563,-168 563,-174 557,-180 551,-180"/>
<text text-anchor="middle" x="508" y="-159.5" font-family="sans" font-size="10.00">qzv_metadata_to_tsv</text>
</g>
<!-- 4&#45;&gt;0 -->
<g id="edge3" class="edge">
<title>4&#45;&gt;0</title>
<path fill="none" stroke="grey" stroke-width="2" d="M495.75,-143.22C483.91,-123.61 470.05,-92.18 487,-72 519.87,-32.86 673.38,-22.62 748.03,-19.94"/>
<polygon fill="grey" stroke="grey" stroke-width="2" points="748.09,-23.44 757.98,-19.62 747.87,-16.45 748.09,-23.44"/>
</g>
<!-- 16 -->
<g id="node17" class="node">
<title>16</title>
<path fill="none" stroke="#d85656" stroke-width="2" d="M596.5,-108C596.5,-108 507.5,-108 507.5,-108 501.5,-108 495.5,-102 495.5,-96 495.5,-96 495.5,-84 495.5,-84 495.5,-78 501.5,-72 507.5,-72 507.5,-72 596.5,-72 596.5,-72 602.5,-72 608.5,-78 608.5,-84 608.5,-84 608.5,-96 608.5,-96 608.5,-102 602.5,-108 596.5,-108"/>
<text text-anchor="middle" x="552" y="-87.5" font-family="sans" font-size="10.00">qiime2_dada2_visuals</text>
</g>
<!-- 4&#45;&gt;16 -->
<g id="edge31" class="edge">
<title>4&#45;&gt;16</title>
<path fill="none" stroke="grey" stroke-width="2" d="M519.1,-143.34C523.6,-136.18 528.91,-127.73 533.94,-119.73"/>
<polygon fill="grey" stroke="grey" stroke-width="2" points="536.78,-121.79 539.14,-111.46 530.85,-118.07 536.78,-121.79"/>
</g>
<!-- 26 -->
<g id="node27" class="node">
<title>26</title>
<path fill="none" stroke="#61d856" stroke-width="2" d="M825,-108C825,-108 753,-108 753,-108 747,-108 741,-102 741,-96 741,-96 741,-84 741,-84 741,-78 747,-72 753,-72 753,-72 825,-72 825,-72 831,-72 837,-78 837,-84 837,-84 837,-96 837,-96 837,-102 831,-108 825,-108"/>
<text text-anchor="middle" x="789" y="-87.5" font-family="sans" font-size="10.00">qiime2_rarefaction</text>
</g>
<!-- 4&#45;&gt;26 -->
<g id="edge45" class="edge">
<title>4&#45;&gt;26</title>
<path fill="none" stroke="grey" stroke-width="2" d="M563.85,-147.09C611.16,-135.3 678.89,-118.43 727.69,-106.27"/>
<polygon fill="grey" stroke="grey" stroke-width="2" points="728.49,-109.68 737.35,-103.87 726.8,-102.89 728.49,-109.68"/>
</g>
<!-- 5 -->
<g id="node6" class="node">
<title>5</title>
<path fill="none" stroke="#56c1d8" stroke-width="2" d="M551,-252C551,-252 445,-252 445,-252 439,-252 433,-246 433,-240 433,-240 433,-228 433,-228 433,-222 439,-216 445,-216 445,-216 551,-216 551,-216 557,-216 563,-222 563,-228 563,-228 563,-240 563,-240 563,-246 557,-252 551,-252"/>
<text text-anchor="middle" x="498" y="-231.5" font-family="sans" font-size="10.00">qiime2_validate_metadata</text>
</g>
<!-- 5&#45;&gt;4 -->
<g id="edge22" class="edge">
<title>5&#45;&gt;4</title>
<path fill="none" stroke="grey" stroke-width="2" d="M500.52,-215.34C501.46,-208.75 502.56,-201.08 503.62,-193.67"/>
<polygon fill="grey" stroke="grey" stroke-width="2" points="507.07,-194.29 505.01,-183.9 500.14,-193.3 507.07,-194.29"/>
</g>
<!-- 6 -->
<g id="node7" class="node">
<title>6</title>
<path fill="none" stroke="#d8ac56" stroke-width="2" d="M530.5,-324C530.5,-324 465.5,-324 465.5,-324 459.5,-324 453.5,-318 453.5,-312 453.5,-312 453.5,-300 453.5,-300 453.5,-294 459.5,-288 465.5,-288 465.5,-288 530.5,-288 530.5,-288 536.5,-288 542.5,-294 542.5,-300 542.5,-300 542.5,-312 542.5,-312 542.5,-318 536.5,-324 530.5,-324"/>
<text text-anchor="middle" x="498" y="-303.5" font-family="sans" font-size="10.00">import_metadata</text>
</g>
<!-- 6&#45;&gt;5 -->
<g id="edge23" class="edge">
<title>6&#45;&gt;5</title>
<path fill="none" stroke="grey" stroke-width="2" d="M498,-287.34C498,-280.75 498,-273.08 498,-265.67"/>
<polygon fill="grey" stroke="grey" stroke-width="2" points="501.5,-265.93 498,-255.93 494.5,-265.93 501.5,-265.93"/>
</g>
<!-- 7 -->
<g id="node8" class="node">
<title>7</title>
<path fill="none" stroke="#56d882" stroke-width="2" d="M287.5,-108C287.5,-108 212.5,-108 212.5,-108 206.5,-108 200.5,-102 200.5,-96 200.5,-96 200.5,-84 200.5,-84 200.5,-78 206.5,-72 212.5,-72 212.5,-72 287.5,-72 287.5,-72 293.5,-72 299.5,-78 299.5,-84 299.5,-84 299.5,-96 299.5,-96 299.5,-102 293.5,-108 287.5,-108"/>
<text text-anchor="middle" x="250" y="-87.5" font-family="sans" font-size="10.00">import_qced_reads</text>
</g>
<!-- 7&#45;&gt;0 -->
<g id="edge13" class="edge">
<title>7&#45;&gt;0</title>
<path fill="none" stroke="grey" stroke-width="2" d="M300.48,-73.64C303.01,-73.04 305.53,-72.49 308,-72 469.14,-39.77 664.86,-25.85 748.23,-21.08"/>
<polygon fill="grey" stroke="grey" stroke-width="2" points="748.27,-24.58 758.06,-20.53 747.88,-17.59 748.27,-24.58"/>
</g>
<!-- 8 -->
<g id="node9" class="node">
<title>8</title>
<path fill="none" stroke="#ced856" stroke-width="2" d="M423,-180C423,-180 311,-180 311,-180 305,-180 299,-174 299,-168 299,-168 299,-156 299,-156 299,-150 305,-144 311,-144 311,-144 423,-144 423,-144 429,-144 435,-150 435,-156 435,-156 435,-168 435,-168 435,-174 429,-180 423,-180"/>
<text text-anchor="middle" x="367" y="-159.5" font-family="sans" font-size="10.00">qiime2_demux_qzv_artifact</text>
</g>
<!-- 8&#45;&gt;0 -->
<g id="edge6" class="edge">
<title>8&#45;&gt;0</title>
<path fill="none" stroke="grey" stroke-width="2" d="M298.09,-150.36C233.98,-137.69 153.55,-112.92 191,-72 228.56,-30.97 619.29,-21.51 748.08,-19.5"/>
<polygon fill="grey" stroke="grey" stroke-width="2" points="748.11,-23 758.06,-19.36 748.01,-16.01 748.11,-23"/>
</g>
<!-- 11 -->
<g id="node12" class="node">
<title>11</title>
<path fill="none" stroke="#566bd8" stroke-width="2" d="M426.5,-108C426.5,-108 329.5,-108 329.5,-108 323.5,-108 317.5,-102 317.5,-96 317.5,-96 317.5,-84 317.5,-84 317.5,-78 323.5,-72 329.5,-72 329.5,-72 426.5,-72 426.5,-72 432.5,-72 438.5,-78 438.5,-84 438.5,-84 438.5,-96 438.5,-96 438.5,-102 432.5,-108 426.5,-108"/>
<text text-anchor="middle" x="378" y="-87.5" font-family="sans" font-size="10.00">demux_qzv_html_report</text>
</g>
<!-- 8&#45;&gt;11 -->
<g id="edge26" class="edge">
<title>8&#45;&gt;11</title>
<path fill="none" stroke="grey" stroke-width="2" d="M369.78,-143.34C370.81,-136.75 372.02,-129.08 373.18,-121.67"/>
<polygon fill="grey" stroke="grey" stroke-width="2" points="376.62,-122.31 374.72,-111.89 369.71,-121.23 376.62,-122.31"/>
</g>
<!-- 9 -->
<g id="node10" class="node">
<title>9</title>
<path fill="none" stroke="#a7d856" stroke-width="2" d="M738,-612C738,-612 626,-612 626,-612 620,-612 614,-606 614,-600 614,-600 614,-588 614,-588 614,-582 620,-576 626,-576 626,-576 738,-576 738,-576 744,-576 750,-582 750,-588 750,-588 750,-600 750,-600 750,-606 744,-612 738,-612"/>
<text text-anchor="middle" x="682" y="-591.5" font-family="sans" font-size="10.00">qiime2_demux_qza_artifact</text>
</g>
<!-- 9&#45;&gt;8 -->
<g id="edge24" class="edge">
<title>9&#45;&gt;8</title>
<path fill="none" stroke="grey" stroke-width="2" d="M613.35,-589.45C525.91,-580.81 386,-551.31 386,-451 386,-451 386,-451 386,-305 386,-266.31 378.99,-222.21 373.48,-193.56"/>
<polygon fill="grey" stroke="grey" stroke-width="2" points="376.92,-192.92 371.53,-183.8 370.06,-194.29 376.92,-192.92"/>
</g>
<!-- 13 -->
<g id="node14" class="node">
<title>13</title>
<path fill="none" stroke="#d86656" stroke-width="2" d="M1080.5,-540C1080.5,-540 951.5,-540 951.5,-540 945.5,-540 939.5,-534 939.5,-528 939.5,-528 939.5,-516 939.5,-516 939.5,-510 945.5,-504 951.5,-504 951.5,-504 1080.5,-504 1080.5,-504 1086.5,-504 1092.5,-510 1092.5,-516 1092.5,-516 1092.5,-528 1092.5,-528 1092.5,-534 1086.5,-540 1080.5,-540"/>
<text text-anchor="middle" x="1016" y="-519.5" font-family="sans" font-size="10.00">qiime2_demux_qza_subsample</text>
</g>
<!-- 9&#45;&gt;13 -->
<g id="edge28" class="edge">
<title>9&#45;&gt;13</title>
<path fill="none" stroke="grey" stroke-width="2" d="M750.8,-578.58C801.47,-567.96 870.84,-553.42 925.93,-541.88"/>
<polygon fill="grey" stroke="grey" stroke-width="2" points="926.49,-545.33 935.56,-539.86 925.06,-538.48 926.49,-545.33"/>
</g>
<!-- 10 -->
<g id="node11" class="node">
<title>10</title>
<path fill="none" stroke="#d89c56" stroke-width="2" d="M722,-684C722,-684 642,-684 642,-684 636,-684 630,-678 630,-672 630,-672 630,-660 630,-660 630,-654 636,-648 642,-648 642,-648 722,-648 722,-648 728,-648 734,-654 734,-660 734,-660 734,-672 734,-672 734,-678 728,-684 722,-684"/>
<text text-anchor="middle" x="682" y="-663.5" font-family="sans" font-size="10.00">import_manifest_file</text>
</g>
<!-- 10&#45;&gt;9 -->
<g id="edge25" class="edge">
<title>10&#45;&gt;9</title>
<path fill="none" stroke="grey" stroke-width="2" d="M682,-647.34C682,-640.75 682,-633.08 682,-625.67"/>
<polygon fill="grey" stroke="grey" stroke-width="2" points="685.5,-625.93 682,-615.93 678.5,-625.93 685.5,-625.93"/>
</g>
<!-- 11&#45;&gt;0 -->
<g id="edge19" class="edge">
<title>11&#45;&gt;0</title>
<path fill="none" stroke="grey" stroke-width="2" d="M439.33,-74.75C443.95,-73.78 448.54,-72.86 453,-72 559.12,-51.63 685.2,-33.3 748.49,-24.5"/>
<polygon fill="grey" stroke="grey" stroke-width="2" points="748.59,-28.02 758.01,-23.19 747.63,-21.09 748.59,-28.02"/>
</g>
<!-- 12 -->
<g id="node13" class="node">
<title>12</title>
<path fill="none" stroke="#97d856" stroke-width="2" d="M1455.5,-180C1455.5,-180 1326.5,-180 1326.5,-180 1320.5,-180 1314.5,-174 1314.5,-168 1314.5,-168 1314.5,-156 1314.5,-156 1314.5,-150 1320.5,-144 1326.5,-144 1326.5,-144 1455.5,-144 1455.5,-144 1461.5,-144 1467.5,-150 1467.5,-156 1467.5,-156 1467.5,-168 1467.5,-168 1467.5,-174 1461.5,-180 1455.5,-180"/>
<text text-anchor="middle" x="1391" y="-159.5" font-family="sans" font-size="10.00">qiime2_demux_qzv_subsample</text>
</g>
<!-- 12&#45;&gt;0 -->
<g id="edge8" class="edge">
<title>12&#45;&gt;0</title>
<path fill="none" stroke="grey" stroke-width="2" d="M1429.56,-143.08C1443.34,-134.55 1457.34,-122.9 1465,-108 1472.31,-93.77 1475.86,-83.75 1465,-72 1421.78,-25.26 969.02,-19.67 829.62,-19.06"/>
<polygon fill="grey" stroke="grey" stroke-width="2" points="829.8,-15.56 819.79,-19.02 829.77,-22.56 829.8,-15.56"/>
</g>
<!-- 14 -->
<g id="node15" class="node">
<title>14</title>
<path fill="none" stroke="#d8d356" stroke-width="2" d="M1444,-108C1444,-108 1326,-108 1326,-108 1320,-108 1314,-102 1314,-96 1314,-96 1314,-84 1314,-84 1314,-78 1320,-72 1326,-72 1326,-72 1444,-72 1444,-72 1450,-72 1456,-78 1456,-84 1456,-84 1456,-96 1456,-96 1456,-102 1450,-108 1444,-108"/>
<text text-anchor="middle" x="1385" y="-87.5" font-family="sans" font-size="10.00">demux_qzv_sub_html_report</text>
</g>
<!-- 12&#45;&gt;14 -->
<g id="edge29" class="edge">
<title>12&#45;&gt;14</title>
<path fill="none" stroke="grey" stroke-width="2" d="M1389.49,-143.34C1388.92,-136.75 1388.26,-129.08 1387.63,-121.67"/>
<polygon fill="grey" stroke="grey" stroke-width="2" points="1391.13,-121.58 1386.79,-111.92 1384.16,-122.18 1391.13,-121.58"/>
</g>
<!-- 13&#45;&gt;12 -->
<g id="edge27" class="edge">
<title>13&#45;&gt;12</title>
<path fill="none" stroke="grey" stroke-width="2" d="M1093.38,-507.23C1201.06,-485.84 1383,-440.57 1383,-379 1383,-379 1383,-379 1383,-305 1383,-266.59 1385.95,-222.43 1388.27,-193.69"/>
<polygon fill="grey" stroke="grey" stroke-width="2" points="1391.74,-194.19 1389.09,-183.93 1384.77,-193.6 1391.74,-194.19"/>
</g>
<!-- 15 -->
<g id="node16" class="node">
<title>15</title>
<path fill="none" stroke="#567bd8" stroke-width="2" d="M1062,-468C1062,-468 970,-468 970,-468 964,-468 958,-462 958,-456 958,-456 958,-444 958,-444 958,-438 964,-432 970,-432 970,-432 1062,-432 1062,-432 1068,-432 1074,-438 1074,-444 1074,-444 1074,-456 1074,-456 1074,-462 1068,-468 1062,-468"/>
<text text-anchor="middle" x="1016" y="-447.5" font-family="sans" font-size="10.00">qiime2_dada2_denoise</text>
</g>
<!-- 13&#45;&gt;15 -->
<g id="edge30" class="edge">
<title>13&#45;&gt;15</title>
<path fill="none" stroke="grey" stroke-width="2" d="M1016,-503.34C1016,-496.75 1016,-489.08 1016,-481.67"/>
<polygon fill="grey" stroke="grey" stroke-width="2" points="1019.5,-481.93 1016,-471.93 1012.5,-481.93 1019.5,-481.93"/>
</g>
<!-- 14&#45;&gt;0 -->
<g id="edge5" class="edge">
<title>14&#45;&gt;0</title>
<path fill="none" stroke="grey" stroke-width="2" d="M1313.2,-74.15C1308.74,-73.38 1304.32,-72.65 1300,-72 1125.89,-45.62 916.39,-28.41 829.65,-21.91"/>
<polygon fill="grey" stroke="grey" stroke-width="2" points="830.06,-18.43 819.83,-21.18 829.55,-25.41 830.06,-18.43"/>
</g>
<!-- 15&#45;&gt;0 -->
<g id="edge18" class="edge">
<title>15&#45;&gt;0</title>
<path fill="none" stroke="grey" stroke-width="2" d="M1074.94,-445.34C1123.72,-440.08 1193.31,-427.25 1246,-396 1293.99,-367.54 1322.97,-342.27 1310,-288 1284.86,-182.82 1287.15,-133.2 1198,-72 1138.77,-31.34 921.1,-21.86 829.76,-19.66"/>
<polygon fill="grey" stroke="grey" stroke-width="2" points="830.09,-16.17 820.01,-19.45 829.94,-23.16 830.09,-16.17"/>
</g>
<!-- 15&#45;&gt;16 -->
<g id="edge32" class="edge">
<title>15&#45;&gt;16</title>
<path fill="none" stroke="grey" stroke-width="2" d="M957.21,-448.54C890.85,-445.96 781.08,-435.39 696,-396 640.49,-370.3 591,-368.18 591,-307 591,-307 591,-307 591,-233 591,-193.09 576.5,-149.06 565.18,-120.77"/>
<polygon fill="grey" stroke="grey" stroke-width="2" points="568.5,-119.63 561.43,-111.74 562.04,-122.32 568.5,-119.63"/>
</g>
<!-- 17 -->
<g id="node18" class="node">
<title>17</title>
<path fill="none" stroke="#d87d56" stroke-width="2" d="M813,-396C813,-396 717,-396 717,-396 711,-396 705,-390 705,-384 705,-384 705,-372 705,-372 705,-366 711,-360 717,-360 717,-360 813,-360 813,-360 819,-360 825,-366 825,-372 825,-372 825,-384 825,-384 825,-390 819,-396 813,-396"/>
<text text-anchor="middle" x="765" y="-375.5" font-family="sans" font-size="10.00">qiime2_mafft_alignment</text>
</g>
<!-- 15&#45;&gt;17 -->
<g id="edge33" class="edge">
<title>15&#45;&gt;17</title>
<path fill="none" stroke="grey" stroke-width="2" d="M957.15,-432.59C921.61,-422.68 876.03,-409.96 838.18,-399.41"/>
<polygon fill="grey" stroke="grey" stroke-width="2" points="839.15,-396.05 828.58,-396.73 837.27,-402.79 839.15,-396.05"/>
</g>
<!-- 22 -->
<g id="node23" class="node">
<title>22</title>
<path fill="none" stroke="#56d8b9" stroke-width="2" d="M1202.5,-396C1202.5,-396 1075.5,-396 1075.5,-396 1069.5,-396 1063.5,-390 1063.5,-384 1063.5,-384 1063.5,-372 1063.5,-372 1063.5,-366 1069.5,-360 1075.5,-360 1075.5,-360 1202.5,-360 1202.5,-360 1208.5,-360 1214.5,-366 1214.5,-372 1214.5,-372 1214.5,-384 1214.5,-384 1214.5,-390 1208.5,-396 1202.5,-396"/>
<text text-anchor="middle" x="1139" y="-375.5" font-family="sans" font-size="10.00">qiime2_taxonomic_assignment</text>
</g>
<!-- 15&#45;&gt;22 -->
<g id="edge38" class="edge">
<title>15&#45;&gt;22</title>
<path fill="none" stroke="grey" stroke-width="2" d="M1047.36,-431.15C1062.25,-422.68 1080.27,-412.42 1096.38,-403.25"/>
<polygon fill="grey" stroke="grey" stroke-width="2" points="1098.11,-406.3 1105.07,-398.31 1094.65,-400.21 1098.11,-406.3"/>
</g>
<!-- 23 -->
<g id="node24" class="node">
<title>23</title>
<path fill="none" stroke="#56d8c9" stroke-width="2" d="M1114.5,-324C1114.5,-324 1037.5,-324 1037.5,-324 1031.5,-324 1025.5,-318 1025.5,-312 1025.5,-312 1025.5,-300 1025.5,-300 1025.5,-294 1031.5,-288 1037.5,-288 1037.5,-288 1114.5,-288 1114.5,-288 1120.5,-288 1126.5,-294 1126.5,-300 1126.5,-300 1126.5,-312 1126.5,-312 1126.5,-318 1120.5,-324 1114.5,-324"/>
<text text-anchor="middle" x="1076" y="-303.5" font-family="sans" font-size="10.00">qiime2_export_data</text>
</g>
<!-- 15&#45;&gt;23 -->
<g id="edge39" class="edge">
<title>15&#45;&gt;23</title>
<path fill="none" stroke="grey" stroke-width="2" d="M1023.6,-431.02C1033.65,-407.22 1051.5,-364.97 1063.54,-336.48"/>
<polygon fill="grey" stroke="grey" stroke-width="2" points="1066.62,-338.2 1067.28,-327.63 1060.17,-335.48 1066.62,-338.2"/>
</g>
<!-- 24 -->
<g id="node25" class="node">
<title>24</title>
<path fill="none" stroke="#56d85b" stroke-width="2" d="M1000.5,-108C1000.5,-108 905.5,-108 905.5,-108 899.5,-108 893.5,-102 893.5,-96 893.5,-96 893.5,-84 893.5,-84 893.5,-78 899.5,-72 905.5,-72 905.5,-72 1000.5,-72 1000.5,-72 1006.5,-72 1012.5,-78 1012.5,-84 1012.5,-84 1012.5,-96 1012.5,-96 1012.5,-102 1006.5,-108 1000.5,-108"/>
<text text-anchor="middle" x="953" y="-87.5" font-family="sans" font-size="10.00">qiime2_community_plot</text>
</g>
<!-- 15&#45;&gt;24 -->
<g id="edge41" class="edge">
<title>15&#45;&gt;24</title>
<path fill="none" stroke="grey" stroke-width="2" d="M1011.44,-431.02C1004.57,-400.09 994.62,-335.54 1017,-288 1027.62,-265.45 1049.45,-274.58 1060,-252 1066.77,-237.5 1063.85,-231.53 1060,-216 1051.3,-180.88 1045.33,-171.66 1022,-144 1013.45,-133.87 1002.66,-124.46 992.16,-116.46"/>
<polygon fill="grey" stroke="grey" stroke-width="2" points="994.45,-113.8 984.31,-110.74 990.33,-119.46 994.45,-113.8"/>
</g>
<!-- 25 -->
<g id="node26" class="node">
<title>25</title>
<path fill="none" stroke="#70d856" stroke-width="2" d="M1289,-324C1289,-324 1195,-324 1195,-324 1189,-324 1183,-318 1183,-312 1183,-312 1183,-300 1183,-300 1183,-294 1189,-288 1195,-288 1195,-288 1289,-288 1289,-288 1295,-288 1301,-294 1301,-300 1301,-300 1301,-312 1301,-312 1301,-318 1295,-324 1289,-324"/>
<text text-anchor="middle" x="1242" y="-303.5" font-family="sans" font-size="10.00">qiime2_collapse_genus</text>
</g>
<!-- 15&#45;&gt;25 -->
<g id="edge43" class="edge">
<title>15&#45;&gt;25</title>
<path fill="none" stroke="grey" stroke-width="2" d="M1074.93,-441.06C1129,-432.57 1203.68,-417.36 1224,-396 1238.6,-380.65 1242.83,-356.89 1243.56,-337.78"/>
<polygon fill="grey" stroke="grey" stroke-width="2" points="1247.06,-337.9 1243.56,-327.9 1240.06,-337.9 1247.06,-337.9"/>
</g>
<!-- 15&#45;&gt;26 -->
<g id="edge46" class="edge">
<title>15&#45;&gt;26</title>
<path fill="none" stroke="grey" stroke-width="2" d="M1003.31,-431.06C979.17,-396.76 925.27,-319.26 883,-252 854.44,-206.56 823.44,-152.44 805.14,-119.95"/>
<polygon fill="grey" stroke="grey" stroke-width="2" points="808.21,-118.26 800.27,-111.26 802.11,-121.69 808.21,-118.26"/>
</g>
<!-- 16&#45;&gt;0 -->
<g id="edge1" class="edge">
<title>16&#45;&gt;0</title>
<path fill="none" stroke="grey" stroke-width="2" d="M609.37,-72.05C652.48,-59.32 710.45,-42.2 748.73,-30.89"/>
<polygon fill="grey" stroke="grey" stroke-width="2" points="749.65,-34.27 758.25,-28.08 747.66,-27.56 749.65,-34.27"/>
</g>
<!-- 17&#45;&gt;0 -->
<g id="edge2" class="edge">
<title>17&#45;&gt;0</title>
<path fill="none" stroke="grey" stroke-width="2" d="M732.23,-359.19C718.77,-350.31 704.22,-338.37 695,-324 668.79,-283.17 676.98,-264.48 679,-216 681.68,-151.56 660.23,-124.99 697,-72 709.59,-53.86 730.53,-41.1 749.26,-32.64"/>
<polygon fill="grey" stroke="grey" stroke-width="2" points="750.46,-35.94 758.34,-28.86 747.77,-29.48 750.46,-35.94"/>
</g>
<!-- 18 -->
<g id="node19" class="node">
<title>18</title>
<path fill="none" stroke="#56b1d8" stroke-width="2" d="M814,-324C814,-324 716,-324 716,-324 710,-324 704,-318 704,-312 704,-312 704,-300 704,-300 704,-294 710,-288 716,-288 716,-288 814,-288 814,-288 820,-288 826,-294 826,-300 826,-300 826,-312 826,-312 826,-318 820,-324 814,-324"/>
<text text-anchor="middle" x="765" y="-303.5" font-family="sans" font-size="10.00">qiime2_mask_alignment</text>
</g>
<!-- 17&#45;&gt;18 -->
<g id="edge34" class="edge">
<title>17&#45;&gt;18</title>
<path fill="none" stroke="grey" stroke-width="2" d="M765,-359.34C765,-352.75 765,-345.08 765,-337.67"/>
<polygon fill="grey" stroke="grey" stroke-width="2" points="768.5,-337.93 765,-327.93 761.5,-337.93 768.5,-337.93"/>
</g>
<!-- 18&#45;&gt;0 -->
<g id="edge17" class="edge">
<title>18&#45;&gt;0</title>
<path fill="none" stroke="grey" stroke-width="2" d="M723.59,-287.05C709.34,-278.62 694.97,-267.05 687,-252 679.51,-237.86 685.2,-231.9 687,-216 694.38,-150.76 684.54,-127.26 720,-72 727.73,-59.96 739.18,-49.57 750.55,-41.26"/>
<polygon fill="grey" stroke="grey" stroke-width="2" points="752.5,-44.17 758.8,-35.65 748.56,-38.38 752.5,-44.17"/>
</g>
<!-- 19 -->
<g id="node20" class="node">
<title>19</title>
<path fill="none" stroke="#d8c356" stroke-width="2" d="M822.5,-252C822.5,-252 707.5,-252 707.5,-252 701.5,-252 695.5,-246 695.5,-240 695.5,-240 695.5,-228 695.5,-228 695.5,-222 701.5,-216 707.5,-216 707.5,-216 822.5,-216 822.5,-216 828.5,-216 834.5,-222 834.5,-228 834.5,-228 834.5,-240 834.5,-240 834.5,-246 828.5,-252 822.5,-252"/>
<text text-anchor="middle" x="765" y="-231.5" font-family="sans" font-size="10.00">qiime2_masked_aligned_viz</text>
</g>
<!-- 18&#45;&gt;19 -->
<g id="edge35" class="edge">
<title>18&#45;&gt;19</title>
<path fill="none" stroke="grey" stroke-width="2" d="M765,-287.34C765,-280.75 765,-273.08 765,-265.67"/>
<polygon fill="grey" stroke="grey" stroke-width="2" points="768.5,-265.93 765,-255.93 761.5,-265.93 768.5,-265.93"/>
</g>
<!-- 20 -->
<g id="node21" class="node">
<title>20</title>
<path fill="none" stroke="#b6d856" stroke-width="2" d="M1038.5,-252C1038.5,-252 903.5,-252 903.5,-252 897.5,-252 891.5,-246 891.5,-240 891.5,-240 891.5,-228 891.5,-228 891.5,-222 897.5,-216 903.5,-216 903.5,-216 1038.5,-216 1038.5,-216 1044.5,-216 1050.5,-222 1050.5,-228 1050.5,-228 1050.5,-240 1050.5,-240 1050.5,-246 1044.5,-252 1038.5,-252"/>
<text text-anchor="middle" x="971" y="-231.5" font-family="sans" font-size="10.00">qiime2_phylogeny_unrooted_tree</text>
</g>
<!-- 18&#45;&gt;20 -->
<g id="edge36" class="edge">
<title>18&#45;&gt;20</title>
<path fill="none" stroke="grey" stroke-width="2" d="M817.78,-287.06C844.68,-277.93 877.62,-266.73 906.06,-257.07"/>
<polygon fill="grey" stroke="grey" stroke-width="2" points="907.15,-260.39 915.49,-253.86 904.89,-253.77 907.15,-260.39"/>
</g>
<!-- 19&#45;&gt;0 -->
<g id="edge4" class="edge">
<title>19&#45;&gt;0</title>
<path fill="none" stroke="grey" stroke-width="2" d="M754.72,-215.37C738.42,-184.95 710.58,-121.18 732,-72 736.42,-61.85 743.85,-52.77 751.91,-45.11"/>
<polygon fill="grey" stroke="grey" stroke-width="2" points="753.96,-47.97 759.23,-38.78 749.38,-42.67 753.96,-47.97"/>
</g>
<!-- 20&#45;&gt;0 -->
<g id="edge7" class="edge">
<title>20&#45;&gt;0</title>
<path fill="none" stroke="grey" stroke-width="2" d="M995.11,-215.11C1005.47,-205.91 1016.46,-193.74 1022,-180 1039.94,-135.48 1051.94,-109.52 1022,-72 998.36,-42.38 889.81,-28.05 829.57,-22.26"/>
<polygon fill="grey" stroke="grey" stroke-width="2" points="830.08,-18.8 819.8,-21.37 829.44,-25.77 830.08,-18.8"/>
</g>
<!-- 21 -->
<g id="node22" class="node">
<title>21</title>
<path fill="none" stroke="#56d873" stroke-width="2" d="M1000.5,-180C1000.5,-180 875.5,-180 875.5,-180 869.5,-180 863.5,-174 863.5,-168 863.5,-168 863.5,-156 863.5,-156 863.5,-150 869.5,-144 875.5,-144 875.5,-144 1000.5,-144 1000.5,-144 1006.5,-144 1012.5,-150 1012.5,-156 1012.5,-156 1012.5,-168 1012.5,-168 1012.5,-174 1006.5,-180 1000.5,-180"/>
<text text-anchor="middle" x="938" y="-159.5" font-family="sans" font-size="10.00">qiime2_phylogeny_rooted_tree</text>
</g>
<!-- 20&#45;&gt;21 -->
<g id="edge37" class="edge">
<title>20&#45;&gt;21</title>
<path fill="none" stroke="grey" stroke-width="2" d="M962.67,-215.34C959.41,-208.43 955.59,-200.31 951.93,-192.56"/>
<polygon fill="grey" stroke="grey" stroke-width="2" points="955.16,-191.19 947.73,-183.64 948.83,-194.18 955.16,-191.19"/>
</g>
<!-- 21&#45;&gt;0 -->
<g id="edge12" class="edge">
<title>21&#45;&gt;0</title>
<path fill="none" stroke="grey" stroke-width="2" d="M919.77,-143.16C901.29,-125.12 871.8,-96.47 846,-72 836.86,-63.33 826.81,-53.94 817.73,-45.51"/>
<polygon fill="grey" stroke="grey" stroke-width="2" points="820.28,-43.1 810.57,-38.87 815.53,-48.24 820.28,-43.1"/>
</g>
<!-- 21&#45;&gt;24 -->
<g id="edge42" class="edge">
<title>21&#45;&gt;24</title>
<path fill="none" stroke="grey" stroke-width="2" d="M941.79,-143.34C943.21,-136.67 944.88,-128.89 946.49,-121.39"/>
<polygon fill="grey" stroke="grey" stroke-width="2" points="949.86,-122.37 948.53,-111.86 943.01,-120.91 949.86,-122.37"/>
</g>
<!-- 21&#45;&gt;26 -->
<g id="edge47" class="edge">
<title>21&#45;&gt;26</title>
<path fill="none" stroke="grey" stroke-width="2" d="M900.02,-143.15C881.44,-134.43 858.83,-123.81 838.88,-114.43"/>
<polygon fill="grey" stroke="grey" stroke-width="2" points="840.45,-111.31 829.91,-110.22 837.48,-117.64 840.45,-111.31"/>
</g>
<!-- 22&#45;&gt;0 -->
<g id="edge15" class="edge">
<title>22&#45;&gt;0</title>
<path fill="none" stroke="grey" stroke-width="2" d="M1142.32,-359.14C1147,-332.3 1155,-279.9 1155,-235 1155,-235 1155,-235 1155,-161 1155,-108.11 1122.06,-97.99 1076,-72 996.95,-27.39 888,-19.26 829.7,-18.4"/>
<polygon fill="grey" stroke="grey" stroke-width="2" points="829.75,-14.9 819.73,-18.34 829.7,-21.9 829.75,-14.9"/>
</g>
<!-- 22&#45;&gt;23 -->
<g id="edge40" class="edge">
<title>22&#45;&gt;23</title>
<path fill="none" stroke="grey" stroke-width="2" d="M1123.1,-359.34C1116.29,-351.77 1108.18,-342.75 1100.62,-334.35"/>
<polygon fill="grey" stroke="grey" stroke-width="2" points="1103.43,-332.24 1094.14,-327.15 1098.22,-336.93 1103.43,-332.24"/>
</g>
<!-- 22&#45;&gt;25 -->
<g id="edge44" class="edge">
<title>22&#45;&gt;25</title>
<path fill="none" stroke="grey" stroke-width="2" d="M1165.26,-359.15C1177.36,-350.93 1191.94,-341.02 1205.13,-332.06"/>
<polygon fill="grey" stroke="grey" stroke-width="2" points="1206.98,-335.03 1213.29,-326.51 1203.05,-329.24 1206.98,-335.03"/>
</g>
<!-- 23&#45;&gt;0 -->
<g id="edge16" class="edge">
<title>23&#45;&gt;0</title>
<path fill="none" stroke="grey" stroke-width="2" d="M1083.24,-287.19C1086.97,-277.06 1091.12,-264.03 1093,-252 1105.82,-170.09 1112.94,-118.07 1044,-72 978.29,-28.09 883.44,-19.43 829.87,-18.36"/>
<polygon fill="grey" stroke="grey" stroke-width="2" points="829.92,-14.86 819.89,-18.26 829.86,-21.86 829.92,-14.86"/>
</g>
<!-- 24&#45;&gt;0 -->
<g id="edge11" class="edge">
<title>24&#45;&gt;0</title>
<path fill="none" stroke="grey" stroke-width="2" d="M911.19,-71.15C885.86,-60.34 853.73,-46.63 828.78,-35.98"/>
<polygon fill="grey" stroke="grey" stroke-width="2" points="830.17,-32.77 819.6,-32.06 827.42,-39.21 830.17,-32.77"/>
</g>
<!-- 25&#45;&gt;0 -->
<g id="edge9" class="edge">
<title>25&#45;&gt;0</title>
<path fill="none" stroke="grey" stroke-width="2" d="M1242.36,-287.31C1242.19,-243.23 1235.14,-128.04 1169,-72 1118.47,-29.19 917.14,-20.91 829.79,-19.34"/>
<polygon fill="grey" stroke="grey" stroke-width="2" points="829.87,-15.84 819.82,-19.19 829.76,-22.84 829.87,-15.84"/>
</g>
<!-- 26&#45;&gt;0 -->
<g id="edge10" class="edge">
<title>26&#45;&gt;0</title>
<path fill="none" stroke="grey" stroke-width="2" d="M789,-71.34C789,-64.75 789,-57.08 789,-49.67"/>
<polygon fill="grey" stroke="grey" stroke-width="2" points="792.5,-49.93 789,-39.93 785.5,-49.93 792.5,-49.93"/>
</g>
</g>
</svg>
