<?xml version="1.0" encoding="UTF-8" standalone="no"?>
<!DOCTYPE svg PUBLIC "-//W3C//DTD SVG 1.1//EN"
 "http://www.w3.org/Graphics/SVG/1.1/DTD/svg11.dtd">
<!-- Generated by graphviz version 7.1.0 (0)
 -->
<!-- Title: snakemake_dag Pages: 1 -->
<svg width="764pt" height="404pt"
 viewBox="0.00 0.00 764.00 404.00" xmlns="http://www.w3.org/2000/svg" xmlns:xlink="http://www.w3.org/1999/xlink">
<g id="graph0" class="graph" transform="scale(1 1) rotate(0) translate(4 400)">
<title>snakemake_dag</title>
<polygon fill="white" stroke="none" points="-4,4 -4,-400 760,-400 760,4 -4,4"/>
<!-- 0 -->
<g id="node1" class="node">
<title>0</title>
<path fill="none" stroke="#ced856" stroke-width="2" d="M448,-36C448,-36 418,-36 418,-36 412,-36 406,-30 406,-24 406,-24 406,-12 406,-12 406,-6 412,0 418,0 418,0 448,0 448,0 454,0 460,-6 460,-12 460,-12 460,-24 460,-24 460,-30 454,-36 448,-36"/>
<text text-anchor="middle" x="433" y="-15.5" font-family="sans" font-size="10.00">all</text>
</g>
<!-- 1 -->
<g id="node2" class="node">
<title>1</title>
<path fill="none" stroke="#56d88a" stroke-width="2" d="M186,-108C186,-108 88,-108 88,-108 82,-108 76,-102 76,-96 76,-96 76,-84 76,-84 76,-78 82,-72 88,-72 88,-72 186,-72 186,-72 192,-72 198,-78 198,-84 198,-84 198,-96 198,-96 198,-102 192,-108 186,-108"/>
<text text-anchor="middle" x="137" y="-87.5" font-family="sans" font-size="10.00">deploy_to_github_pages</text>
</g>
<!-- 1&#45;&gt;0 -->
<g id="edge3" class="edge">
<title>1&#45;&gt;0</title>
<path fill="none" stroke="grey" stroke-width="2" d="M198.83,-73.96C201.59,-73.29 204.32,-72.64 207,-72 271.93,-56.5 347.46,-38.87 392.68,-28.35"/>
<polygon fill="grey" stroke="grey" stroke-width="2" points="393.25,-31.81 402.2,-26.14 391.67,-25 393.25,-31.81"/>
</g>
<!-- 2 -->
<g id="node3" class="node">
<title>2</title>
<path fill="none" stroke="#56c1d8" stroke-width="2" d="M82,-180C82,-180 12,-180 12,-180 6,-180 0,-174 0,-168 0,-168 0,-156 0,-156 0,-150 6,-144 12,-144 12,-144 82,-144 82,-144 88,-144 94,-150 94,-156 94,-156 94,-168 94,-168 94,-174 88,-180 82,-180"/>
<text text-anchor="middle" x="47" y="-159.5" font-family="sans" font-size="10.00">get_dot_rulegraph</text>
</g>
<!-- 2&#45;&gt;1 -->
<g id="edge8" class="edge">
<title>2&#45;&gt;1</title>
<path fill="none" stroke="grey" stroke-width="2" d="M69.71,-143.34C80.08,-135.27 92.55,-125.57 103.93,-116.72"/>
<polygon fill="grey" stroke="grey" stroke-width="2" points="105.85,-119.66 111.59,-110.76 101.55,-114.14 105.85,-119.66"/>
</g>
<!-- 3 -->
<g id="node4" class="node">
<title>3</title>
<path fill="none" stroke="#56d86b" stroke-width="2" d="M168,-180C168,-180 124,-180 124,-180 118,-180 112,-174 112,-168 112,-168 112,-156 112,-156 112,-150 118,-144 124,-144 124,-144 168,-144 168,-144 174,-144 180,-150 180,-156 180,-156 180,-168 180,-168 180,-174 174,-180 168,-180"/>
<text text-anchor="middle" x="146" y="-159.5" font-family="sans" font-size="10.00">project_tree</text>
</g>
<!-- 3&#45;&gt;1 -->
<g id="edge7" class="edge">
<title>3&#45;&gt;1</title>
<path fill="none" stroke="grey" stroke-width="2" d="M143.73,-143.34C142.88,-136.75 141.9,-129.08 140.94,-121.67"/>
<polygon fill="grey" stroke="grey" stroke-width="2" points="144.43,-121.38 139.69,-111.9 137.49,-122.27 144.43,-121.38"/>
</g>
<!-- 4 -->
<g id="node5" class="node">
<title>4</title>
<path fill="none" stroke="#afd856" stroke-width="2" d="M314,-108C314,-108 228,-108 228,-108 222,-108 216,-102 216,-96 216,-96 216,-84 216,-84 216,-78 222,-72 228,-72 228,-72 314,-72 314,-72 320,-72 326,-78 326,-84 326,-84 326,-96 326,-96 326,-102 320,-108 314,-108"/>
<text text-anchor="middle" x="271" y="-87.5" font-family="sans" font-size="10.00">qzv_metadata_to_tsv</text>
</g>
<!-- 4&#45;&gt;0 -->
<g id="edge2" class="edge">
<title>4&#45;&gt;0</title>
<path fill="none" stroke="grey" stroke-width="2" d="M312.3,-71.15C337.16,-60.41 368.65,-46.81 393.23,-36.18"/>
<polygon fill="grey" stroke="grey" stroke-width="2" points="394.46,-39.47 402.25,-32.29 391.68,-33.04 394.46,-39.47"/>
</g>
<!-- 5 -->
<g id="node6" class="node">
<title>5</title>
<path fill="none" stroke="#d89c56" stroke-width="2" d="M324,-180C324,-180 218,-180 218,-180 212,-180 206,-174 206,-168 206,-168 206,-156 206,-156 206,-150 212,-144 218,-144 218,-144 324,-144 324,-144 330,-144 336,-150 336,-156 336,-156 336,-168 336,-168 336,-174 330,-180 324,-180"/>
<text text-anchor="middle" x="271" y="-159.5" font-family="sans" font-size="10.00">qiime2_validate_metadata</text>
</g>
<!-- 5&#45;&gt;4 -->
<g id="edge9" class="edge">
<title>5&#45;&gt;4</title>
<path fill="none" stroke="grey" stroke-width="2" d="M271,-143.34C271,-136.75 271,-129.08 271,-121.67"/>
<polygon fill="grey" stroke="grey" stroke-width="2" points="274.5,-121.93 271,-111.93 267.5,-121.93 274.5,-121.93"/>
</g>
<!-- 6 -->
<g id="node7" class="node">
<title>6</title>
<path fill="none" stroke="#56d8d0" stroke-width="2" d="M303.5,-252C303.5,-252 238.5,-252 238.5,-252 232.5,-252 226.5,-246 226.5,-240 226.5,-240 226.5,-228 226.5,-228 226.5,-222 232.5,-216 238.5,-216 238.5,-216 303.5,-216 303.5,-216 309.5,-216 315.5,-222 315.5,-228 315.5,-228 315.5,-240 315.5,-240 315.5,-246 309.5,-252 303.5,-252"/>
<text text-anchor="middle" x="271" y="-231.5" font-family="sans" font-size="10.00">import_metadata</text>
</g>
<!-- 6&#45;&gt;5 -->
<g id="edge10" class="edge">
<title>6&#45;&gt;5</title>
<path fill="none" stroke="grey" stroke-width="2" d="M271,-215.34C271,-208.75 271,-201.08 271,-193.67"/>
<polygon fill="grey" stroke="grey" stroke-width="2" points="274.5,-193.93 271,-183.93 267.5,-193.93 274.5,-193.93"/>
</g>
<!-- 7 -->
<g id="node8" class="node">
<title>7</title>
<path fill="none" stroke="#88d856" stroke-width="2" d="M431.5,-108C431.5,-108 356.5,-108 356.5,-108 350.5,-108 344.5,-102 344.5,-96 344.5,-96 344.5,-84 344.5,-84 344.5,-78 350.5,-72 356.5,-72 356.5,-72 431.5,-72 431.5,-72 437.5,-72 443.5,-78 443.5,-84 443.5,-84 443.5,-96 443.5,-96 443.5,-102 437.5,-108 431.5,-108"/>
<text text-anchor="middle" x="394" y="-87.5" font-family="sans" font-size="10.00">import_qced_reads</text>
</g>
<!-- 7&#45;&gt;0 -->
<g id="edge4" class="edge">
<title>7&#45;&gt;0</title>
<path fill="none" stroke="grey" stroke-width="2" d="M403.84,-71.34C407.74,-64.34 412.32,-56.12 416.69,-48.28"/>
<polygon fill="grey" stroke="grey" stroke-width="2" points="419.74,-49.99 421.55,-39.55 413.63,-46.58 419.74,-49.99"/>
</g>
<!-- 8 -->
<g id="node9" class="node">
<title>8</title>
<path fill="none" stroke="#d8bc56" stroke-width="2" d="M540,-180C540,-180 430,-180 430,-180 424,-180 418,-174 418,-168 418,-168 418,-156 418,-156 418,-150 424,-144 430,-144 430,-144 540,-144 540,-144 546,-144 552,-150 552,-156 552,-156 552,-168 552,-168 552,-174 546,-180 540,-180"/>
<text text-anchor="middle" x="485" y="-159.5" font-family="sans" font-size="10.00">qiime2_demux_qzv_artfact</text>
</g>
<!-- 8&#45;&gt;0 -->
<g id="edge1" class="edge">
<title>8&#45;&gt;0</title>
<path fill="none" stroke="grey" stroke-width="2" d="M478.41,-143.02C469.74,-119.33 454.37,-77.35 443.94,-48.86"/>
<polygon fill="grey" stroke="grey" stroke-width="2" points="447.3,-47.87 440.57,-39.68 440.73,-50.27 447.3,-47.87"/>
</g>
<!-- 11 -->
<g id="node12" class="node">
<title>11</title>
<path fill="none" stroke="#56d8a9" stroke-width="2" d="M635.5,-108C635.5,-108 512.5,-108 512.5,-108 506.5,-108 500.5,-102 500.5,-96 500.5,-96 500.5,-84 500.5,-84 500.5,-78 506.5,-72 512.5,-72 512.5,-72 635.5,-72 635.5,-72 641.5,-72 647.5,-78 647.5,-84 647.5,-84 647.5,-96 647.5,-96 647.5,-102 641.5,-108 635.5,-108"/>
<text text-anchor="middle" x="574" y="-87.5" font-family="sans" font-size="10.00">demux_qzv_interactive_report</text>
</g>
<!-- 8&#45;&gt;11 -->
<g id="edge13" class="edge">
<title>8&#45;&gt;11</title>
<path fill="none" stroke="grey" stroke-width="2" d="M507.46,-143.34C517.71,-135.27 530.05,-125.57 541.3,-116.72"/>
<polygon fill="grey" stroke="grey" stroke-width="2" points="543.16,-119.71 548.86,-110.77 538.84,-114.2 543.16,-119.71"/>
</g>
<!-- 9 -->
<g id="node10" class="node">
<title>9</title>
<path fill="none" stroke="#569ad8" stroke-width="2" d="M614,-324C614,-324 504,-324 504,-324 498,-324 492,-318 492,-312 492,-312 492,-300 492,-300 492,-294 498,-288 504,-288 504,-288 614,-288 614,-288 620,-288 626,-294 626,-300 626,-300 626,-312 626,-312 626,-318 620,-324 614,-324"/>
<text text-anchor="middle" x="559" y="-303.5" font-family="sans" font-size="10.00">qiime2_demux_qza_artfact</text>
</g>
<!-- 9&#45;&gt;8 -->
<g id="edge11" class="edge">
<title>9&#45;&gt;8</title>
<path fill="none" stroke="grey" stroke-width="2" d="M549.63,-287.02C537.17,-263.12 515.01,-220.59 500.16,-192.1"/>
<polygon fill="grey" stroke="grey" stroke-width="2" points="503.42,-190.77 495.69,-183.52 497.21,-194.01 503.42,-190.77"/>
</g>
<!-- 13 -->
<g id="node14" class="node">
<title>13</title>
<path fill="none" stroke="#d85656" stroke-width="2" d="M729,-252C729,-252 567,-252 567,-252 561,-252 555,-246 555,-240 555,-240 555,-228 555,-228 555,-222 561,-216 567,-216 567,-216 729,-216 729,-216 735,-216 741,-222 741,-228 741,-228 741,-240 741,-240 741,-246 735,-252 729,-252"/>
<text text-anchor="middle" x="648" y="-231.5" font-family="sans" font-size="10.00">qiime2_subsample_demux_qza_artfact</text>
</g>
<!-- 9&#45;&gt;13 -->
<g id="edge16" class="edge">
<title>9&#45;&gt;13</title>
<path fill="none" stroke="grey" stroke-width="2" d="M581.46,-287.34C591.71,-279.27 604.05,-269.57 615.3,-260.72"/>
<polygon fill="grey" stroke="grey" stroke-width="2" points="617.16,-263.71 622.86,-254.77 612.84,-258.2 617.16,-263.71"/>
</g>
<!-- 10 -->
<g id="node11" class="node">
<title>10</title>
<path fill="none" stroke="#68d856" stroke-width="2" d="M599,-396C599,-396 519,-396 519,-396 513,-396 507,-390 507,-384 507,-384 507,-372 507,-372 507,-366 513,-360 519,-360 519,-360 599,-360 599,-360 605,-360 611,-366 611,-372 611,-372 611,-384 611,-384 611,-390 605,-396 599,-396"/>
<text text-anchor="middle" x="559" y="-375.5" font-family="sans" font-size="10.00">import_manifest_file</text>
</g>
<!-- 10&#45;&gt;9 -->
<g id="edge12" class="edge">
<title>10&#45;&gt;9</title>
<path fill="none" stroke="grey" stroke-width="2" d="M559,-359.34C559,-352.75 559,-345.08 559,-337.67"/>
<polygon fill="grey" stroke="grey" stroke-width="2" points="562.5,-337.93 559,-327.93 555.5,-337.93 562.5,-337.93"/>
</g>
<!-- 11&#45;&gt;0 -->
<g id="edge5" class="edge">
<title>11&#45;&gt;0</title>
<path fill="none" stroke="grey" stroke-width="2" d="M538.05,-71.15C518,-61.2 493,-48.78 472.41,-38.57"/>
<polygon fill="grey" stroke="grey" stroke-width="2" points="474.1,-35.49 463.58,-34.18 470.98,-41.76 474.1,-35.49"/>
</g>
<!-- 12 -->
<g id="node13" class="node">
<title>12</title>
<path fill="none" stroke="#567bd8" stroke-width="2" d="M744,-180C744,-180 582,-180 582,-180 576,-180 570,-174 570,-168 570,-168 570,-156 570,-156 570,-150 576,-144 582,-144 582,-144 744,-144 744,-144 750,-144 756,-150 756,-156 756,-156 756,-168 756,-168 756,-174 750,-180 744,-180"/>
<text text-anchor="middle" x="663" y="-159.5" font-family="sans" font-size="10.00">qiime2_subsample_demux_qzv_artfact</text>
</g>
<!-- 12&#45;&gt;0 -->
<g id="edge6" class="edge">
<title>12&#45;&gt;0</title>
<path fill="none" stroke="grey" stroke-width="2" d="M667.15,-143.34C670.68,-123.55 672.83,-91.66 656,-72 632.59,-44.66 530.9,-29.49 473.26,-22.95"/>
<polygon fill="grey" stroke="grey" stroke-width="2" points="473.98,-19.5 463.66,-21.9 473.22,-26.46 473.98,-19.5"/>
</g>
<!-- 12&#45;&gt;11 -->
<g id="edge14" class="edge">
<title>12&#45;&gt;11</title>
<path fill="none" stroke="grey" stroke-width="2" d="M640.54,-143.34C630.29,-135.27 617.95,-125.57 606.7,-116.72"/>
<polygon fill="grey" stroke="grey" stroke-width="2" points="609.16,-114.2 599.14,-110.77 604.84,-119.71 609.16,-114.2"/>
</g>
<!-- 13&#45;&gt;12 -->
<g id="edge15" class="edge">
<title>13&#45;&gt;12</title>
<path fill="none" stroke="grey" stroke-width="2" d="M651.79,-215.34C653.21,-208.67 654.88,-200.89 656.49,-193.39"/>
<polygon fill="grey" stroke="grey" stroke-width="2" points="659.86,-194.37 658.53,-183.86 653.01,-192.91 659.86,-194.37"/>
</g>
</g>
</svg>
