<?xml version="1.0" encoding="UTF-8" standalone="no"?>
<!DOCTYPE svg PUBLIC "-//W3C//DTD SVG 1.1//EN"
 "http://www.w3.org/Graphics/SVG/1.1/DTD/svg11.dtd">
<!-- Generated by graphviz version 7.1.0 (0)
 -->
<!-- Title: snakemake_dag Pages: 1 -->
<svg width="1263pt" height="476pt"
 viewBox="0.00 0.00 1263.00 476.00" xmlns="http://www.w3.org/2000/svg" xmlns:xlink="http://www.w3.org/1999/xlink">
<g id="graph0" class="graph" transform="scale(1 1) rotate(0) translate(4 472)">
<title>snakemake_dag</title>
<polygon fill="white" stroke="none" points="-4,4 -4,-472 1259,-472 1259,4 -4,4"/>
<!-- 0 -->
<g id="node1" class="node">
<title>0</title>
<path fill="none" stroke="#d8a456" stroke-width="2" d="M724.5,-36C724.5,-36 694.5,-36 694.5,-36 688.5,-36 682.5,-30 682.5,-24 682.5,-24 682.5,-12 682.5,-12 682.5,-6 688.5,0 694.5,0 694.5,0 724.5,0 724.5,0 730.5,0 736.5,-6 736.5,-12 736.5,-12 736.5,-24 736.5,-24 736.5,-30 730.5,-36 724.5,-36"/>
<text text-anchor="middle" x="709.5" y="-15.5" font-family="sans" font-size="10.00">all</text>
</g>
<!-- 1 -->
<g id="node2" class="node">
<title>1</title>
<path fill="none" stroke="#afd856" stroke-width="2" d="M265.5,-108C265.5,-108 167.5,-108 167.5,-108 161.5,-108 155.5,-102 155.5,-96 155.5,-96 155.5,-84 155.5,-84 155.5,-78 161.5,-72 167.5,-72 167.5,-72 265.5,-72 265.5,-72 271.5,-72 277.5,-78 277.5,-84 277.5,-84 277.5,-96 277.5,-96 277.5,-102 271.5,-108 265.5,-108"/>
<text text-anchor="middle" x="216.5" y="-87.5" font-family="sans" font-size="10.00">deploy_to_github_pages</text>
</g>
<!-- 1&#45;&gt;0 -->
<g id="edge1" class="edge">
<title>1&#45;&gt;0</title>
<path fill="none" stroke="grey" stroke-width="2" d="M278.44,-79.15C293.81,-76.75 310.25,-74.24 325.5,-72 450.6,-53.61 598.92,-33.67 668.99,-24.35"/>
<polygon fill="grey" stroke="grey" stroke-width="2" points="669.08,-27.87 678.53,-23.09 668.16,-20.93 669.08,-27.87"/>
</g>
<!-- 2 -->
<g id="node3" class="node">
<title>2</title>
<path fill="none" stroke="#d8d356" stroke-width="2" d="M213.5,-180C213.5,-180 151.5,-180 151.5,-180 145.5,-180 139.5,-174 139.5,-168 139.5,-168 139.5,-156 139.5,-156 139.5,-150 145.5,-144 151.5,-144 151.5,-144 213.5,-144 213.5,-144 219.5,-144 225.5,-150 225.5,-156 225.5,-156 225.5,-168 225.5,-168 225.5,-174 219.5,-180 213.5,-180"/>
<text text-anchor="middle" x="182.5" y="-159.5" font-family="sans" font-size="10.00">dot_rules_graph</text>
</g>
<!-- 2&#45;&gt;1 -->
<g id="edge15" class="edge">
<title>2&#45;&gt;1</title>
<path fill="none" stroke="grey" stroke-width="2" d="M191.08,-143.34C194.44,-136.43 198.38,-128.31 202.14,-120.56"/>
<polygon fill="grey" stroke="grey" stroke-width="2" points="205.26,-122.15 206.48,-111.62 198.96,-119.09 205.26,-122.15"/>
</g>
<!-- 3 -->
<g id="node4" class="node">
<title>3</title>
<path fill="none" stroke="#d85656" stroke-width="2" d="M299.5,-180C299.5,-180 255.5,-180 255.5,-180 249.5,-180 243.5,-174 243.5,-168 243.5,-168 243.5,-156 243.5,-156 243.5,-150 249.5,-144 255.5,-144 255.5,-144 299.5,-144 299.5,-144 305.5,-144 311.5,-150 311.5,-156 311.5,-156 311.5,-168 311.5,-168 311.5,-174 305.5,-180 299.5,-180"/>
<text text-anchor="middle" x="277.5" y="-159.5" font-family="sans" font-size="10.00">project_tree</text>
</g>
<!-- 3&#45;&gt;1 -->
<g id="edge14" class="edge">
<title>3&#45;&gt;1</title>
<path fill="none" stroke="grey" stroke-width="2" d="M262.11,-143.34C255.58,-135.85 247.83,-126.95 240.58,-118.63"/>
<polygon fill="grey" stroke="grey" stroke-width="2" points="243.3,-116.42 234.09,-111.18 238.02,-121.02 243.3,-116.42"/>
</g>
<!-- 4 -->
<g id="node5" class="node">
<title>4</title>
<path fill="none" stroke="#56d892" stroke-width="2" d="M109,-180C109,-180 12,-180 12,-180 6,-180 0,-174 0,-168 0,-168 0,-156 0,-156 0,-150 6,-144 12,-144 12,-144 109,-144 109,-144 115,-144 121,-150 121,-156 121,-156 121,-168 121,-168 121,-174 115,-180 109,-180"/>
<text text-anchor="middle" x="60.5" y="-159.5" font-family="sans" font-size="10.00">snakemake_html_report</text>
</g>
<!-- 4&#45;&gt;1 -->
<g id="edge16" class="edge">
<title>4&#45;&gt;1</title>
<path fill="none" stroke="grey" stroke-width="2" d="M100.27,-143.15C119.9,-134.34 143.84,-123.61 164.87,-114.17"/>
<polygon fill="grey" stroke="grey" stroke-width="2" points="166.08,-117.46 173.77,-110.17 163.21,-111.07 166.08,-117.46"/>
</g>
<!-- 5 -->
<g id="node6" class="node">
<title>5</title>
<path fill="none" stroke="#d86e56" stroke-width="2" d="M495.5,-324C495.5,-324 389.5,-324 389.5,-324 383.5,-324 377.5,-318 377.5,-312 377.5,-312 377.5,-300 377.5,-300 377.5,-294 383.5,-288 389.5,-288 389.5,-288 495.5,-288 495.5,-288 501.5,-288 507.5,-294 507.5,-300 507.5,-300 507.5,-312 507.5,-312 507.5,-318 501.5,-324 495.5,-324"/>
<text text-anchor="middle" x="442.5" y="-303.5" font-family="sans" font-size="10.00">qiime2_validate_metadata</text>
</g>
<!-- 5&#45;&gt;0 -->
<g id="edge2" class="edge">
<title>5&#45;&gt;0</title>
<path fill="none" stroke="grey" stroke-width="2" d="M396.66,-287.01C381.76,-278.72 366.91,-267.25 358.5,-252 319.32,-180.95 390.35,-111.81 447.5,-72 482.78,-47.42 604.28,-30.65 668.68,-23.27"/>
<polygon fill="grey" stroke="grey" stroke-width="2" points="668.95,-26.76 678.5,-22.17 668.17,-19.8 668.95,-26.76"/>
</g>
<!-- 10 -->
<g id="node11" class="node">
<title>10</title>
<path fill="none" stroke="#56d87b" stroke-width="2" d="M505.5,-252C505.5,-252 379.5,-252 379.5,-252 373.5,-252 367.5,-246 367.5,-240 367.5,-240 367.5,-228 367.5,-228 367.5,-222 373.5,-216 379.5,-216 379.5,-216 505.5,-216 505.5,-216 511.5,-216 517.5,-222 517.5,-228 517.5,-228 517.5,-240 517.5,-240 517.5,-246 511.5,-252 505.5,-252"/>
<text text-anchor="middle" x="442.5" y="-231.5" font-family="sans" font-size="10.00">qiime2_create_n_view_qc_qvz</text>
</g>
<!-- 5&#45;&gt;10 -->
<g id="edge21" class="edge">
<title>5&#45;&gt;10</title>
<path fill="none" stroke="grey" stroke-width="2" d="M442.5,-287.34C442.5,-280.75 442.5,-273.08 442.5,-265.67"/>
<polygon fill="grey" stroke="grey" stroke-width="2" points="446,-265.93 442.5,-255.93 439,-265.93 446,-265.93"/>
</g>
<!-- 6 -->
<g id="node7" class="node">
<title>6</title>
<path fill="none" stroke="#56d8a9" stroke-width="2" d="M853,-468C853,-468 734,-468 734,-468 728,-468 722,-462 722,-456 722,-456 722,-444 722,-444 722,-438 728,-432 734,-432 734,-432 853,-432 853,-432 859,-432 865,-438 865,-444 865,-444 865,-456 865,-456 865,-462 859,-468 853,-468"/>
<text text-anchor="middle" x="793.5" y="-447.5" font-family="sans" font-size="10.00">import_qiime2_mapping_files</text>
</g>
<!-- 6&#45;&gt;5 -->
<g id="edge17" class="edge">
<title>6&#45;&gt;5</title>
<path fill="none" stroke="grey" stroke-width="2" d="M749.05,-431.02C685.44,-405.28 568.48,-357.97 498.87,-329.81"/>
<polygon fill="grey" stroke="grey" stroke-width="2" points="500.26,-326.59 489.68,-326.09 497.63,-333.08 500.26,-326.59"/>
</g>
<!-- 7 -->
<g id="node8" class="node">
<title>7</title>
<path fill="none" stroke="#61d856" stroke-width="2" d="M938.5,-396C938.5,-396 826.5,-396 826.5,-396 820.5,-396 814.5,-390 814.5,-384 814.5,-384 814.5,-372 814.5,-372 814.5,-366 820.5,-360 826.5,-360 826.5,-360 938.5,-360 938.5,-360 944.5,-360 950.5,-366 950.5,-372 950.5,-372 950.5,-384 950.5,-384 950.5,-390 944.5,-396 938.5,-396"/>
<text text-anchor="middle" x="882.5" y="-375.5" font-family="sans" font-size="10.00">qiime2_import_paired_fastq</text>
</g>
<!-- 6&#45;&gt;7 -->
<g id="edge18" class="edge">
<title>6&#45;&gt;7</title>
<path fill="none" stroke="grey" stroke-width="2" d="M815.96,-431.34C826.21,-423.27 838.55,-413.57 849.8,-404.72"/>
<polygon fill="grey" stroke="grey" stroke-width="2" points="851.66,-407.71 857.36,-398.77 847.34,-402.2 851.66,-407.71"/>
</g>
<!-- 7&#45;&gt;0 -->
<g id="edge9" class="edge">
<title>7&#45;&gt;0</title>
<path fill="none" stroke="grey" stroke-width="2" d="M951.49,-362.74C1015.69,-344.96 1101.5,-307.62 1101.5,-235 1101.5,-235 1101.5,-235 1101.5,-161 1101.5,-91.35 1036.62,-99.21 972.5,-72 897.95,-40.36 803.35,-27.25 750.33,-22.1"/>
<polygon fill="grey" stroke="grey" stroke-width="2" points="750.75,-18.62 740.48,-21.2 750.12,-25.59 750.75,-18.62"/>
</g>
<!-- 8 -->
<g id="node9" class="node">
<title>8</title>
<path fill="none" stroke="#5673d8" stroke-width="2" d="M1243,-108C1243,-108 1142,-108 1142,-108 1136,-108 1130,-102 1130,-96 1130,-96 1130,-84 1130,-84 1130,-78 1136,-72 1142,-72 1142,-72 1243,-72 1243,-72 1249,-72 1255,-78 1255,-84 1255,-84 1255,-96 1255,-96 1255,-102 1249,-108 1243,-108"/>
<text text-anchor="middle" x="1192.5" y="-87.5" font-family="sans" font-size="10.00">qiime2_summarize_fastq</text>
</g>
<!-- 7&#45;&gt;8 -->
<g id="edge19" class="edge">
<title>7&#45;&gt;8</title>
<path fill="none" stroke="grey" stroke-width="2" d="M951.29,-368.9C1011.05,-360.54 1091.67,-345.66 1115.5,-324 1174.29,-270.57 1188.29,-171.36 1191.56,-121.4"/>
<polygon fill="grey" stroke="grey" stroke-width="2" points="1195.03,-121.89 1192.06,-111.72 1188.04,-121.53 1195.03,-121.89"/>
</g>
<!-- 9 -->
<g id="node10" class="node">
<title>9</title>
<path fill="none" stroke="#d8bc56" stroke-width="2" d="M695,-324C695,-324 634,-324 634,-324 628,-324 622,-318 622,-312 622,-312 622,-300 622,-300 622,-294 628,-288 634,-288 634,-288 695,-288 695,-288 701,-288 707,-294 707,-300 707,-300 707,-312 707,-312 707,-318 701,-324 695,-324"/>
<text text-anchor="middle" x="664.5" y="-303.5" font-family="sans" font-size="10.00">qiime2_read_qc</text>
</g>
<!-- 7&#45;&gt;9 -->
<g id="edge20" class="edge">
<title>7&#45;&gt;9</title>
<path fill="none" stroke="grey" stroke-width="2" d="M826.64,-359.06C793.87,-348.54 752.6,-335.29 719.91,-324.79"/>
<polygon fill="grey" stroke="grey" stroke-width="2" points="721.3,-321.56 710.71,-321.84 719.16,-328.23 721.3,-321.56"/>
</g>
<!-- 8&#45;&gt;0 -->
<g id="edge8" class="edge">
<title>8&#45;&gt;0</title>
<path fill="none" stroke="grey" stroke-width="2" d="M1129.14,-74.55C1124.53,-73.64 1119.95,-72.78 1115.5,-72 982.35,-48.66 822.99,-30.75 749.83,-23.08"/>
<polygon fill="grey" stroke="grey" stroke-width="2" points="750.51,-19.63 740.21,-22.08 749.79,-26.6 750.51,-19.63"/>
</g>
<!-- 9&#45;&gt;0 -->
<g id="edge7" class="edge">
<title>9&#45;&gt;0</title>
<path fill="none" stroke="grey" stroke-width="2" d="M635.63,-287.1C620.35,-277.26 601.49,-264.54 585.5,-252 548.12,-222.69 525.69,-223.46 506.5,-180 500.04,-165.36 503.36,-159.69 506.5,-144 513.3,-110.01 510.82,-95.29 536.5,-72 573.24,-38.68 630.46,-26.3 668.93,-21.71"/>
<polygon fill="grey" stroke="grey" stroke-width="2" points="669.1,-25.21 678.68,-20.7 668.37,-18.24 669.1,-25.21"/>
</g>
<!-- 9&#45;&gt;10 -->
<g id="edge22" class="edge">
<title>9&#45;&gt;10</title>
<path fill="none" stroke="grey" stroke-width="2" d="M621.17,-291.34C590.02,-281.51 547.36,-268.06 511.54,-256.77"/>
<polygon fill="grey" stroke="grey" stroke-width="2" points="512.67,-253.45 502.08,-253.79 510.56,-260.13 512.67,-253.45"/>
</g>
<!-- 11 -->
<g id="node12" class="node">
<title>11</title>
<path fill="none" stroke="#c6d856" stroke-width="2" d="M619.5,-180C619.5,-180 527.5,-180 527.5,-180 521.5,-180 515.5,-174 515.5,-168 515.5,-168 515.5,-156 515.5,-156 515.5,-150 521.5,-144 527.5,-144 527.5,-144 619.5,-144 619.5,-144 625.5,-144 631.5,-150 631.5,-156 631.5,-156 631.5,-168 631.5,-168 631.5,-174 625.5,-180 619.5,-180"/>
<text text-anchor="middle" x="573.5" y="-159.5" font-family="sans" font-size="10.00">qiime2_denovo_cluster</text>
</g>
<!-- 9&#45;&gt;11 -->
<g id="edge23" class="edge">
<title>9&#45;&gt;11</title>
<path fill="none" stroke="grey" stroke-width="2" d="M640.72,-287.16C629.44,-277.72 616.49,-265.33 607.5,-252 595.43,-234.1 586.83,-211.32 581.3,-193.28"/>
<polygon fill="grey" stroke="grey" stroke-width="2" points="584.69,-192.41 578.57,-183.76 577.96,-194.34 584.69,-192.41"/>
</g>
<!-- 12 -->
<g id="node13" class="node">
<title>12</title>
<path fill="none" stroke="#97d856" stroke-width="2" d="M669,-108C669,-108 568,-108 568,-108 562,-108 556,-102 556,-96 556,-96 556,-84 556,-84 556,-78 562,-72 568,-72 568,-72 669,-72 669,-72 675,-72 681,-78 681,-84 681,-84 681,-96 681,-96 681,-102 675,-108 669,-108"/>
<text text-anchor="middle" x="618.5" y="-87.5" font-family="sans" font-size="10.00">qiime2_closedref_cluster</text>
</g>
<!-- 9&#45;&gt;12 -->
<g id="edge24" class="edge">
<title>9&#45;&gt;12</title>
<path fill="none" stroke="grey" stroke-width="2" d="M654.76,-287.44C649.74,-277.39 644.13,-264.36 641.5,-252 631.52,-205.05 650.1,-191.03 640.5,-144 638.89,-136.12 636.11,-127.94 633.06,-120.43"/>
<polygon fill="grey" stroke="grey" stroke-width="2" points="636.29,-119.1 629.04,-111.37 629.89,-121.93 636.29,-119.1"/>
</g>
<!-- 13 -->
<g id="node14" class="node">
<title>13</title>
<path fill="none" stroke="#56a2d8" stroke-width="2" d="M755,-252C755,-252 662,-252 662,-252 656,-252 650,-246 650,-240 650,-240 650,-228 650,-228 650,-222 656,-216 662,-216 662,-216 755,-216 755,-216 761,-216 767,-222 767,-228 767,-228 767,-240 767,-240 767,-246 761,-252 755,-252"/>
<text text-anchor="middle" x="708.5" y="-231.5" font-family="sans" font-size="10.00">qiime2_openref_cluster</text>
</g>
<!-- 9&#45;&gt;13 -->
<g id="edge25" class="edge">
<title>9&#45;&gt;13</title>
<path fill="none" stroke="grey" stroke-width="2" d="M675.6,-287.34C680.1,-280.18 685.41,-271.73 690.44,-263.73"/>
<polygon fill="grey" stroke="grey" stroke-width="2" points="693.28,-265.79 695.64,-255.46 687.35,-262.07 693.28,-265.79"/>
</g>
<!-- 14 -->
<g id="node15" class="node">
<title>14</title>
<path fill="none" stroke="#56d0d8" stroke-width="2" d="M893.5,-252C893.5,-252 797.5,-252 797.5,-252 791.5,-252 785.5,-246 785.5,-240 785.5,-240 785.5,-228 785.5,-228 785.5,-222 791.5,-216 797.5,-216 797.5,-216 893.5,-216 893.5,-216 899.5,-216 905.5,-222 905.5,-228 905.5,-228 905.5,-240 905.5,-240 905.5,-246 899.5,-252 893.5,-252"/>
<text text-anchor="middle" x="845.5" y="-231.5" font-family="sans" font-size="10.00">qiime2_mafft_alignment</text>
</g>
<!-- 9&#45;&gt;14 -->
<g id="edge26" class="edge">
<title>9&#45;&gt;14</title>
<path fill="none" stroke="grey" stroke-width="2" d="M707.85,-288.23C731.6,-279.05 761.35,-267.54 787.12,-257.58"/>
<polygon fill="grey" stroke="grey" stroke-width="2" points="788.13,-260.94 796.19,-254.07 785.6,-254.41 788.13,-260.94"/>
</g>
<!-- 17 -->
<g id="node18" class="node">
<title>17</title>
<path fill="none" stroke="#568ad8" stroke-width="2" d="M1061.5,-252C1061.5,-252 935.5,-252 935.5,-252 929.5,-252 923.5,-246 923.5,-240 923.5,-240 923.5,-228 923.5,-228 923.5,-222 929.5,-216 935.5,-216 935.5,-216 1061.5,-216 1061.5,-216 1067.5,-216 1073.5,-222 1073.5,-228 1073.5,-228 1073.5,-240 1073.5,-240 1073.5,-246 1067.5,-252 1061.5,-252"/>
<text text-anchor="middle" x="998.5" y="-231.5" font-family="sans" font-size="10.00">qiime2_process_tsv_nwk_files</text>
</g>
<!-- 9&#45;&gt;17 -->
<g id="edge29" class="edge">
<title>9&#45;&gt;17</title>
<path fill="none" stroke="grey" stroke-width="2" d="M707.82,-295.92C758.9,-285.22 845.08,-267.15 910.38,-253.47"/>
<polygon fill="grey" stroke="grey" stroke-width="2" points="910.69,-256.98 919.76,-251.5 909.26,-250.13 910.69,-256.98"/>
</g>
<!-- 10&#45;&gt;0 -->
<g id="edge3" class="edge">
<title>10&#45;&gt;0</title>
<path fill="none" stroke="grey" stroke-width="2" d="M440.21,-215.2C437.04,-182.18 435.45,-111.23 473.5,-72 500.2,-44.46 608.97,-29.24 669.09,-22.78"/>
<polygon fill="grey" stroke="grey" stroke-width="2" points="669.24,-26.28 678.82,-21.77 668.52,-19.32 669.24,-26.28"/>
</g>
<!-- 11&#45;&gt;0 -->
<g id="edge12" class="edge">
<title>11&#45;&gt;0</title>
<path fill="none" stroke="grey" stroke-width="2" d="M559.84,-143.06C547.03,-123.89 532,-93.37 547.5,-72 575,-34.07 630.45,-22.78 668.76,-19.69"/>
<polygon fill="grey" stroke="grey" stroke-width="2" points="668.73,-23.2 678.5,-19.1 668.31,-16.21 668.73,-23.2"/>
</g>
<!-- 12&#45;&gt;0 -->
<g id="edge4" class="edge">
<title>12&#45;&gt;0</title>
<path fill="none" stroke="grey" stroke-width="2" d="M641.46,-71.34C651.94,-63.27 664.56,-53.57 676.07,-44.72"/>
<polygon fill="grey" stroke="grey" stroke-width="2" points="678.04,-47.62 683.83,-38.75 673.77,-42.07 678.04,-47.62"/>
</g>
<!-- 13&#45;&gt;0 -->
<g id="edge11" class="edge">
<title>13&#45;&gt;0</title>
<path fill="none" stroke="grey" stroke-width="2" d="M708.58,-215.12C708.75,-178.62 709.14,-95.13 709.36,-49.74"/>
<polygon fill="grey" stroke="grey" stroke-width="2" points="712.85,-50.02 709.4,-40 705.86,-49.99 712.85,-50.02"/>
</g>
<!-- 14&#45;&gt;0 -->
<g id="edge10" class="edge">
<title>14&#45;&gt;0</title>
<path fill="none" stroke="grey" stroke-width="2" d="M879.65,-215.12C893.01,-206.35 907.12,-194.52 915.5,-180 939.58,-138.29 954.2,-109.92 924.5,-72 903.21,-44.82 805.97,-29.69 749.83,-23.08"/>
<polygon fill="grey" stroke="grey" stroke-width="2" points="750.51,-19.64 740.19,-21.99 749.73,-26.59 750.51,-19.64"/>
</g>
<!-- 15 -->
<g id="node16" class="node">
<title>15</title>
<path fill="none" stroke="#56d863" stroke-width="2" d="M894.5,-180C894.5,-180 796.5,-180 796.5,-180 790.5,-180 784.5,-174 784.5,-168 784.5,-168 784.5,-156 784.5,-156 784.5,-150 790.5,-144 796.5,-144 796.5,-144 894.5,-144 894.5,-144 900.5,-144 906.5,-150 906.5,-156 906.5,-156 906.5,-168 906.5,-168 906.5,-174 900.5,-180 894.5,-180"/>
<text text-anchor="middle" x="845.5" y="-159.5" font-family="sans" font-size="10.00">qiime2_mask_alignment</text>
</g>
<!-- 14&#45;&gt;15 -->
<g id="edge27" class="edge">
<title>14&#45;&gt;15</title>
<path fill="none" stroke="grey" stroke-width="2" d="M845.5,-215.34C845.5,-208.75 845.5,-201.08 845.5,-193.67"/>
<polygon fill="grey" stroke="grey" stroke-width="2" points="849,-193.93 845.5,-183.93 842,-193.93 849,-193.93"/>
</g>
<!-- 15&#45;&gt;0 -->
<g id="edge13" class="edge">
<title>15&#45;&gt;0</title>
<path fill="none" stroke="grey" stroke-width="2" d="M813.35,-143.19C798.36,-133.92 780.91,-121.67 767.5,-108 750.13,-90.29 734.99,-66.61 724.55,-48.13"/>
<polygon fill="grey" stroke="grey" stroke-width="2" points="727.7,-46.61 719.83,-39.51 721.56,-49.97 727.7,-46.61"/>
</g>
<!-- 16 -->
<g id="node17" class="node">
<title>16</title>
<path fill="none" stroke="#d88556" stroke-width="2" d="M903,-108C903,-108 788,-108 788,-108 782,-108 776,-102 776,-96 776,-96 776,-84 776,-84 776,-78 782,-72 788,-72 788,-72 903,-72 903,-72 909,-72 915,-78 915,-84 915,-84 915,-96 915,-96 915,-102 909,-108 903,-108"/>
<text text-anchor="middle" x="845.5" y="-87.5" font-family="sans" font-size="10.00">qiime2_masked_aligned_viz</text>
</g>
<!-- 15&#45;&gt;16 -->
<g id="edge28" class="edge">
<title>15&#45;&gt;16</title>
<path fill="none" stroke="grey" stroke-width="2" d="M845.5,-143.34C845.5,-136.75 845.5,-129.08 845.5,-121.67"/>
<polygon fill="grey" stroke="grey" stroke-width="2" points="849,-121.93 845.5,-111.93 842,-121.93 849,-121.93"/>
</g>
<!-- 16&#45;&gt;0 -->
<g id="edge6" class="edge">
<title>16&#45;&gt;0</title>
<path fill="none" stroke="grey" stroke-width="2" d="M810.83,-71.15C791.84,-61.38 768.24,-49.24 748.6,-39.13"/>
<polygon fill="grey" stroke="grey" stroke-width="2" points="750.44,-36.14 739.95,-34.67 747.24,-42.36 750.44,-36.14"/>
</g>
<!-- 17&#45;&gt;0 -->
<g id="edge5" class="edge">
<title>17&#45;&gt;0</title>
<path fill="none" stroke="grey" stroke-width="2" d="M998.2,-215.23C996.63,-181.93 988.29,-110.09 946.5,-72 918.11,-46.12 810.06,-30.23 750.14,-23.22"/>
<polygon fill="grey" stroke="grey" stroke-width="2" points="750.76,-19.77 740.43,-22.12 749.97,-26.72 750.76,-19.77"/>
</g>
</g>
</svg>
