<?xml version="1.0" encoding="UTF-8" standalone="no"?>
<!DOCTYPE svg PUBLIC "-//W3C//DTD SVG 1.1//EN"
 "http://www.w3.org/Graphics/SVG/1.1/DTD/svg11.dtd">
<!-- Generated by graphviz version 7.1.0 (0)
 -->
<!-- Title: snakemake_dag Pages: 1 -->
<svg width="1473pt" height="620pt"
 viewBox="0.00 0.00 1473.00 620.00" xmlns="http://www.w3.org/2000/svg" xmlns:xlink="http://www.w3.org/1999/xlink">
<g id="graph0" class="graph" transform="scale(1 1) rotate(0) translate(4 616)">
<title>snakemake_dag</title>
<polygon fill="white" stroke="none" points="-4,4 -4,-616 1469,-616 1469,4 -4,4"/>
<!-- 0 -->
<g id="node1" class="node">
<title>0</title>
<path fill="none" stroke="#56d0d8" stroke-width="2" d="M823,-36C823,-36 793,-36 793,-36 787,-36 781,-30 781,-24 781,-24 781,-12 781,-12 781,-6 787,0 793,0 793,0 823,0 823,0 829,0 835,-6 835,-12 835,-12 835,-24 835,-24 835,-30 829,-36 823,-36"/>
<text text-anchor="middle" x="808" y="-15.5" font-family="sans" font-size="10.00">all</text>
</g>
<!-- 1 -->
<g id="node2" class="node">
<title>1</title>
<path fill="none" stroke="#566bd8" stroke-width="2" d="M175,-108C175,-108 77,-108 77,-108 71,-108 65,-102 65,-96 65,-96 65,-84 65,-84 65,-78 71,-72 77,-72 77,-72 175,-72 175,-72 181,-72 187,-78 187,-84 187,-84 187,-96 187,-96 187,-102 181,-108 175,-108"/>
<text text-anchor="middle" x="126" y="-87.5" font-family="sans" font-size="10.00">deploy_to_github_pages</text>
</g>
<!-- 1&#45;&gt;0 -->
<g id="edge2" class="edge">
<title>1&#45;&gt;0</title>
<path fill="none" stroke="grey" stroke-width="2" d="M187.67,-74.32C192.17,-73.47 196.65,-72.68 201,-72 412.62,-38.93 669.2,-25.02 767.25,-20.65"/>
<polygon fill="grey" stroke="grey" stroke-width="2" points="767.14,-24.15 776.98,-20.22 766.84,-17.16 767.14,-24.15"/>
</g>
<!-- 2 -->
<g id="node3" class="node">
<title>2</title>
<path fill="none" stroke="#88d856" stroke-width="2" d="M168,-180C168,-180 98,-180 98,-180 92,-180 86,-174 86,-168 86,-168 86,-156 86,-156 86,-150 92,-144 98,-144 98,-144 168,-144 168,-144 174,-144 180,-150 180,-156 180,-156 180,-168 180,-168 180,-174 174,-180 168,-180"/>
<text text-anchor="middle" x="133" y="-159.5" font-family="sans" font-size="10.00">get_dot_rulegraph</text>
</g>
<!-- 2&#45;&gt;1 -->
<g id="edge20" class="edge">
<title>2&#45;&gt;1</title>
<path fill="none" stroke="grey" stroke-width="2" d="M131.23,-143.34C130.58,-136.75 129.81,-129.08 129.07,-121.67"/>
<polygon fill="grey" stroke="grey" stroke-width="2" points="132.57,-121.52 128.09,-111.91 125.6,-122.21 132.57,-121.52"/>
</g>
<!-- 3 -->
<g id="node4" class="node">
<title>3</title>
<path fill="none" stroke="#5692d8" stroke-width="2" d="M56,-180C56,-180 12,-180 12,-180 6,-180 0,-174 0,-168 0,-168 0,-156 0,-156 0,-150 6,-144 12,-144 12,-144 56,-144 56,-144 62,-144 68,-150 68,-156 68,-156 68,-168 68,-168 68,-174 62,-180 56,-180"/>
<text text-anchor="middle" x="34" y="-159.5" font-family="sans" font-size="10.00">project_tree</text>
</g>
<!-- 3&#45;&gt;1 -->
<g id="edge19" class="edge">
<title>3&#45;&gt;1</title>
<path fill="none" stroke="grey" stroke-width="2" d="M57.22,-143.34C67.81,-135.27 80.57,-125.57 92.2,-116.72"/>
<polygon fill="grey" stroke="grey" stroke-width="2" points="94.22,-119.58 100.06,-110.73 89.99,-114 94.22,-119.58"/>
</g>
<!-- 4 -->
<g id="node5" class="node">
<title>4</title>
<path fill="none" stroke="#d8bc56" stroke-width="2" d="M371,-468C371,-468 265,-468 265,-468 259,-468 253,-462 253,-456 253,-456 253,-444 253,-444 253,-438 259,-432 265,-432 265,-432 371,-432 371,-432 377,-432 383,-438 383,-444 383,-444 383,-456 383,-456 383,-462 377,-468 371,-468"/>
<text text-anchor="middle" x="318" y="-447.5" font-family="sans" font-size="10.00">qiime2_validate_metadata</text>
</g>
<!-- 4&#45;&gt;0 -->
<g id="edge12" class="edge">
<title>4&#45;&gt;0</title>
<path fill="none" stroke="grey" stroke-width="2" d="M276.05,-431.18C260.66,-422.65 244.46,-410.99 234,-396 210.86,-362.83 215,-347.45 215,-307 215,-307 215,-307 215,-161 215,-100.16 263.15,-96.13 319,-72 399.46,-37.23 665.32,-24.14 767.5,-20.32"/>
<polygon fill="grey" stroke="grey" stroke-width="2" points="767.35,-23.83 777.22,-19.97 767.1,-16.83 767.35,-23.83"/>
</g>
<!-- 9 -->
<g id="node10" class="node">
<title>9</title>
<path fill="none" stroke="#56d8a2" stroke-width="2" d="M381,-396C381,-396 255,-396 255,-396 249,-396 243,-390 243,-384 243,-384 243,-372 243,-372 243,-366 249,-360 255,-360 255,-360 381,-360 381,-360 387,-360 393,-366 393,-372 393,-372 393,-384 393,-384 393,-390 387,-396 381,-396"/>
<text text-anchor="middle" x="318" y="-375.5" font-family="sans" font-size="10.00">qiime2_create_n_view_qc_qvz</text>
</g>
<!-- 4&#45;&gt;9 -->
<g id="edge25" class="edge">
<title>4&#45;&gt;9</title>
<path fill="none" stroke="grey" stroke-width="2" d="M318,-431.34C318,-424.75 318,-417.08 318,-409.67"/>
<polygon fill="grey" stroke="grey" stroke-width="2" points="321.5,-409.93 318,-399.93 314.5,-409.93 321.5,-409.93"/>
</g>
<!-- 5 -->
<g id="node6" class="node">
<title>5</title>
<path fill="none" stroke="#61d856" stroke-width="2" d="M1164.5,-612C1164.5,-612 1065.5,-612 1065.5,-612 1059.5,-612 1053.5,-606 1053.5,-600 1053.5,-600 1053.5,-588 1053.5,-588 1053.5,-582 1059.5,-576 1065.5,-576 1065.5,-576 1164.5,-576 1164.5,-576 1170.5,-576 1176.5,-582 1176.5,-588 1176.5,-588 1176.5,-600 1176.5,-600 1176.5,-606 1170.5,-612 1164.5,-612"/>
<text text-anchor="middle" x="1115" y="-591.5" font-family="sans" font-size="10.00">import_qiime2_metadata</text>
</g>
<!-- 5&#45;&gt;4 -->
<g id="edge21" class="edge">
<title>5&#45;&gt;4</title>
<path fill="none" stroke="grey" stroke-width="2" d="M1052.92,-582.34C929.68,-561.11 645.47,-511.82 407,-468 403.45,-467.35 399.81,-466.67 396.15,-465.99"/>
<polygon fill="grey" stroke="grey" stroke-width="2" points="397.05,-462.6 386.57,-464.2 395.75,-469.48 397.05,-462.6"/>
</g>
<!-- 6 -->
<g id="node7" class="node">
<title>6</title>
<path fill="none" stroke="#56d8b1" stroke-width="2" d="M1123,-540C1123,-540 1011,-540 1011,-540 1005,-540 999,-534 999,-528 999,-528 999,-516 999,-516 999,-510 1005,-504 1011,-504 1011,-504 1123,-504 1123,-504 1129,-504 1135,-510 1135,-516 1135,-516 1135,-528 1135,-528 1135,-534 1129,-540 1123,-540"/>
<text text-anchor="middle" x="1067" y="-519.5" font-family="sans" font-size="10.00">qiime2_import_paired_fastq</text>
</g>
<!-- 5&#45;&gt;6 -->
<g id="edge22" class="edge">
<title>5&#45;&gt;6</title>
<path fill="none" stroke="grey" stroke-width="2" d="M1102.89,-575.34C1097.92,-568.1 1092.05,-559.53 1086.51,-551.45"/>
<polygon fill="grey" stroke="grey" stroke-width="2" points="1089.53,-549.67 1080.99,-543.4 1083.76,-553.62 1089.53,-549.67"/>
</g>
<!-- 21 -->
<g id="node22" class="node">
<title>21</title>
<path fill="none" stroke="#5682d8" stroke-width="2" d="M1387,-108C1387,-108 1315,-108 1315,-108 1309,-108 1303,-102 1303,-96 1303,-96 1303,-84 1303,-84 1303,-78 1309,-72 1315,-72 1315,-72 1387,-72 1387,-72 1393,-72 1399,-78 1399,-84 1399,-84 1399,-96 1399,-96 1399,-102 1393,-108 1387,-108"/>
<text text-anchor="middle" x="1351" y="-87.5" font-family="sans" font-size="10.00">qiime2_rarefaction</text>
</g>
<!-- 5&#45;&gt;21 -->
<g id="edge40" class="edge">
<title>5&#45;&gt;21</title>
<path fill="none" stroke="grey" stroke-width="2" d="M1177.43,-588.11C1228.91,-582.11 1302.67,-568.9 1361,-540 1415.51,-512.99 1465,-511.84 1465,-451 1465,-451 1465,-451 1465,-233 1465,-183.65 1422.61,-141.68 1389.53,-116.45"/>
<polygon fill="grey" stroke="grey" stroke-width="2" points="1391.75,-113.74 1381.62,-110.64 1387.61,-119.38 1391.75,-113.74"/>
</g>
<!-- 22 -->
<g id="node23" class="node">
<title>22</title>
<path fill="none" stroke="#56a9d8" stroke-width="2" d="M1272.5,-108C1272.5,-108 1177.5,-108 1177.5,-108 1171.5,-108 1165.5,-102 1165.5,-96 1165.5,-96 1165.5,-84 1165.5,-84 1165.5,-78 1171.5,-72 1177.5,-72 1177.5,-72 1272.5,-72 1272.5,-72 1278.5,-72 1284.5,-78 1284.5,-84 1284.5,-84 1284.5,-96 1284.5,-96 1284.5,-102 1278.5,-108 1272.5,-108"/>
<text text-anchor="middle" x="1225" y="-87.5" font-family="sans" font-size="10.00">alpha_diversity_metrics</text>
</g>
<!-- 5&#45;&gt;22 -->
<g id="edge43" class="edge">
<title>5&#45;&gt;22</title>
<path fill="none" stroke="grey" stroke-width="2" d="M1177.37,-586.96C1255.99,-575.52 1381,-542.87 1381,-451 1381,-451 1381,-451 1381,-233 1381,-177.24 1325.82,-137.58 1281.1,-114.59"/>
<polygon fill="grey" stroke="grey" stroke-width="2" points="1282.93,-111.59 1272.42,-110.31 1279.84,-117.87 1282.93,-111.59"/>
</g>
<!-- 6&#45;&gt;0 -->
<g id="edge16" class="edge">
<title>6&#45;&gt;0</title>
<path fill="none" stroke="grey" stroke-width="2" d="M1135.99,-508.38C1240.52,-487.25 1427,-440.9 1427,-379 1427,-379 1427,-379 1427,-161 1427,-120.55 1438.29,-98.8 1408,-72 1366.2,-35.02 976.91,-22.86 848.71,-19.84"/>
<polygon fill="grey" stroke="grey" stroke-width="2" points="848.87,-16.34 838.8,-19.61 848.71,-23.34 848.87,-16.34"/>
</g>
<!-- 7 -->
<g id="node8" class="node">
<title>7</title>
<path fill="none" stroke="#d87d56" stroke-width="2" d="M418.5,-324C418.5,-324 317.5,-324 317.5,-324 311.5,-324 305.5,-318 305.5,-312 305.5,-312 305.5,-300 305.5,-300 305.5,-294 311.5,-288 317.5,-288 317.5,-288 418.5,-288 418.5,-288 424.5,-288 430.5,-294 430.5,-300 430.5,-300 430.5,-312 430.5,-312 430.5,-318 424.5,-324 418.5,-324"/>
<text text-anchor="middle" x="368" y="-303.5" font-family="sans" font-size="10.00">qiime2_summarize_fastq</text>
</g>
<!-- 6&#45;&gt;7 -->
<g id="edge23" class="edge">
<title>6&#45;&gt;7</title>
<path fill="none" stroke="grey" stroke-width="2" d="M998.2,-521.74C877.56,-520.04 623.68,-502.81 445,-396 420.11,-381.12 399.15,-355.38 385.41,-335.4"/>
<polygon fill="grey" stroke="grey" stroke-width="2" points="388.46,-333.66 380.03,-327.24 382.61,-337.51 388.46,-333.66"/>
</g>
<!-- 8 -->
<g id="node9" class="node">
<title>8</title>
<path fill="none" stroke="#56d8c9" stroke-width="2" d="M880,-468C880,-468 788,-468 788,-468 782,-468 776,-462 776,-456 776,-456 776,-444 776,-444 776,-438 782,-432 788,-432 788,-432 880,-432 880,-432 886,-432 892,-438 892,-444 892,-444 892,-456 892,-456 892,-462 886,-468 880,-468"/>
<text text-anchor="middle" x="834" y="-447.5" font-family="sans" font-size="10.00">qiime2_dada2_read_qc</text>
</g>
<!-- 6&#45;&gt;8 -->
<g id="edge24" class="edge">
<title>6&#45;&gt;8</title>
<path fill="none" stroke="grey" stroke-width="2" d="M1007.3,-503.06C976.09,-493.69 937.69,-482.15 904.97,-472.32"/>
<polygon fill="grey" stroke="grey" stroke-width="2" points="906.22,-469.04 895.64,-469.52 904.21,-475.75 906.22,-469.04"/>
</g>
<!-- 7&#45;&gt;0 -->
<g id="edge6" class="edge">
<title>7&#45;&gt;0</title>
<path fill="none" stroke="grey" stroke-width="2" d="M367.99,-287.31C369.02,-243.22 378.27,-128.01 445,-72 493.16,-31.57 683.01,-21.98 767.31,-19.7"/>
<polygon fill="grey" stroke="grey" stroke-width="2" points="767.19,-23.21 777.1,-19.47 767.02,-16.21 767.19,-23.21"/>
</g>
<!-- 8&#45;&gt;0 -->
<g id="edge17" class="edge">
<title>8&#45;&gt;0</title>
<path fill="none" stroke="grey" stroke-width="2" d="M775.25,-448.88C713.83,-446.43 616.34,-435.8 543,-396 495.19,-370.06 459,-361.39 459,-307 459,-307 459,-307 459,-161 459,-95.07 675.4,-44.92 767.4,-26.58"/>
<polygon fill="grey" stroke="grey" stroke-width="2" points="767.92,-30.05 777.06,-24.69 766.57,-23.18 767.92,-30.05"/>
</g>
<!-- 8&#45;&gt;9 -->
<g id="edge26" class="edge">
<title>8&#45;&gt;9</title>
<path fill="none" stroke="grey" stroke-width="2" d="M775.06,-441C684.82,-428.76 511.82,-405.29 406.47,-391"/>
<polygon fill="grey" stroke="grey" stroke-width="2" points="407.03,-387.55 396.65,-389.67 406.09,-394.48 407.03,-387.55"/>
</g>
<!-- 10 -->
<g id="node11" class="node">
<title>10</title>
<path fill="none" stroke="#b6d856" stroke-width="2" d="M685,-396C685,-396 593,-396 593,-396 587,-396 581,-390 581,-384 581,-384 581,-372 581,-372 581,-366 587,-360 593,-360 593,-360 685,-360 685,-360 691,-360 697,-366 697,-372 697,-372 697,-384 697,-384 697,-390 691,-396 685,-396"/>
<text text-anchor="middle" x="639" y="-375.5" font-family="sans" font-size="10.00">qiime2_denovo_cluster</text>
</g>
<!-- 8&#45;&gt;10 -->
<g id="edge27" class="edge">
<title>8&#45;&gt;10</title>
<path fill="none" stroke="grey" stroke-width="2" d="M784.04,-431.06C758.69,-421.97 727.67,-410.83 700.84,-401.2"/>
<polygon fill="grey" stroke="grey" stroke-width="2" points="702.28,-398 691.68,-397.91 699.91,-404.58 702.28,-398"/>
</g>
<!-- 11 -->
<g id="node12" class="node">
<title>11</title>
<path fill="none" stroke="#56d863" stroke-width="2" d="M884.5,-324C884.5,-324 783.5,-324 783.5,-324 777.5,-324 771.5,-318 771.5,-312 771.5,-312 771.5,-300 771.5,-300 771.5,-294 777.5,-288 783.5,-288 783.5,-288 884.5,-288 884.5,-288 890.5,-288 896.5,-294 896.5,-300 896.5,-300 896.5,-312 896.5,-312 896.5,-318 890.5,-324 884.5,-324"/>
<text text-anchor="middle" x="834" y="-303.5" font-family="sans" font-size="10.00">qiime2_closedref_cluster</text>
</g>
<!-- 8&#45;&gt;11 -->
<g id="edge28" class="edge">
<title>8&#45;&gt;11</title>
<path fill="none" stroke="grey" stroke-width="2" d="M834,-431.02C834,-407.54 834,-366.11 834,-337.64"/>
<polygon fill="grey" stroke="grey" stroke-width="2" points="837.5,-337.87 834,-327.87 830.5,-337.87 837.5,-337.87"/>
</g>
<!-- 12 -->
<g id="node13" class="node">
<title>12</title>
<path fill="none" stroke="#d8ac56" stroke-width="2" d="M922.5,-180C922.5,-180 829.5,-180 829.5,-180 823.5,-180 817.5,-174 817.5,-168 817.5,-168 817.5,-156 817.5,-156 817.5,-150 823.5,-144 829.5,-144 829.5,-144 922.5,-144 922.5,-144 928.5,-144 934.5,-150 934.5,-156 934.5,-156 934.5,-168 934.5,-168 934.5,-174 928.5,-180 922.5,-180"/>
<text text-anchor="middle" x="876" y="-159.5" font-family="sans" font-size="10.00">qiime2_openref_cluster</text>
</g>
<!-- 8&#45;&gt;12 -->
<g id="edge29" class="edge">
<title>8&#45;&gt;12</title>
<path fill="none" stroke="grey" stroke-width="2" d="M848.07,-431.27C865.42,-408.15 893.97,-365.74 905,-324 916.98,-278.67 901.45,-224.85 888.91,-192.34"/>
<polygon fill="grey" stroke="grey" stroke-width="2" points="892.28,-191.35 885.28,-183.4 885.79,-193.98 892.28,-191.35"/>
</g>
<!-- 13 -->
<g id="node14" class="node">
<title>13</title>
<path fill="none" stroke="#d86e56" stroke-width="2" d="M1061,-396C1061,-396 965,-396 965,-396 959,-396 953,-390 953,-384 953,-384 953,-372 953,-372 953,-366 959,-360 965,-360 965,-360 1061,-360 1061,-360 1067,-360 1073,-366 1073,-372 1073,-372 1073,-384 1073,-384 1073,-390 1067,-396 1061,-396"/>
<text text-anchor="middle" x="1013" y="-375.5" font-family="sans" font-size="10.00">qiime2_mafft_alignment</text>
</g>
<!-- 8&#45;&gt;13 -->
<g id="edge30" class="edge">
<title>8&#45;&gt;13</title>
<path fill="none" stroke="grey" stroke-width="2" d="M879.63,-431.15C902.58,-422.18 930.65,-411.21 955.1,-401.64"/>
<polygon fill="grey" stroke="grey" stroke-width="2" points="956.28,-404.94 964.32,-398.04 953.73,-398.42 956.28,-404.94"/>
</g>
<!-- 18 -->
<g id="node19" class="node">
<title>18</title>
<path fill="none" stroke="#d85656" stroke-width="2" d="M794,-252C794,-252 708,-252 708,-252 702,-252 696,-246 696,-240 696,-240 696,-228 696,-228 696,-222 702,-216 708,-216 708,-216 794,-216 794,-216 800,-216 806,-222 806,-228 806,-228 806,-240 806,-240 806,-246 800,-252 794,-252"/>
<text text-anchor="middle" x="751" y="-231.5" font-family="sans" font-size="10.00">qiime2_covert_to_tsv</text>
</g>
<!-- 8&#45;&gt;18 -->
<g id="edge35" class="edge">
<title>8&#45;&gt;18</title>
<path fill="none" stroke="grey" stroke-width="2" d="M820.54,-431.06C803.79,-407.73 775.74,-365.09 762,-324 755.73,-305.24 752.97,-283.18 751.79,-265.72"/>
<polygon fill="grey" stroke="grey" stroke-width="2" points="755.29,-265.69 751.29,-255.87 748.3,-266.04 755.29,-265.69"/>
</g>
<!-- 20 -->
<g id="node21" class="node">
<title>20</title>
<path fill="none" stroke="#c6d856" stroke-width="2" d="M666,-252C666,-252 572,-252 572,-252 566,-252 560,-246 560,-240 560,-240 560,-228 560,-228 560,-222 566,-216 572,-216 572,-216 666,-216 666,-216 672,-216 678,-222 678,-228 678,-228 678,-240 678,-240 678,-246 672,-252 666,-252"/>
<text text-anchor="middle" x="619" y="-231.5" font-family="sans" font-size="10.00">qiime2_collapse_genus</text>
</g>
<!-- 8&#45;&gt;20 -->
<g id="edge38" class="edge">
<title>8&#45;&gt;20</title>
<path fill="none" stroke="grey" stroke-width="2" d="M775.12,-444.33C707.01,-437.72 600.56,-423.29 572,-396 536.82,-362.38 533.12,-331.96 554,-288 558.99,-277.49 567.2,-268.37 576.14,-260.81"/>
<polygon fill="grey" stroke="grey" stroke-width="2" points="578.19,-263.64 583.99,-254.78 573.93,-258.09 578.19,-263.64"/>
</g>
<!-- 8&#45;&gt;21 -->
<g id="edge42" class="edge">
<title>8&#45;&gt;21</title>
<path fill="none" stroke="grey" stroke-width="2" d="M892.86,-445.05C988.32,-438.01 1172.23,-421.56 1232,-396 1290.14,-371.14 1343,-370.23 1343,-307 1343,-307 1343,-307 1343,-233 1343,-194.59 1345.95,-150.43 1348.27,-121.69"/>
<polygon fill="grey" stroke="grey" stroke-width="2" points="1351.74,-122.19 1349.09,-111.93 1344.77,-121.6 1351.74,-122.19"/>
</g>
<!-- 8&#45;&gt;22 -->
<g id="edge45" class="edge">
<title>8&#45;&gt;22</title>
<path fill="none" stroke="grey" stroke-width="2" d="M892.7,-443.75C1018.96,-430.84 1305,-392.19 1305,-307 1305,-307 1305,-307 1305,-233 1305,-192.46 1305.64,-178.89 1285,-144 1279.04,-133.92 1270.5,-124.73 1261.72,-116.94"/>
<polygon fill="grey" stroke="grey" stroke-width="2" points="1264.11,-114.37 1254.17,-110.69 1259.65,-119.77 1264.11,-114.37"/>
</g>
<!-- 9&#45;&gt;0 -->
<g id="edge15" class="edge">
<title>9&#45;&gt;0</title>
<path fill="none" stroke="grey" stroke-width="2" d="M309.3,-359.1C297.27,-332.63 277,-281.19 277,-235 277,-235 277,-235 277,-161 277,-59.59 642.99,-28.69 767.27,-21.12"/>
<polygon fill="grey" stroke="grey" stroke-width="2" points="767.4,-24.62 777.18,-20.54 766.99,-17.63 767.4,-24.62"/>
</g>
<!-- 10&#45;&gt;0 -->
<g id="edge11" class="edge">
<title>10&#45;&gt;0</title>
<path fill="none" stroke="grey" stroke-width="2" d="M593.42,-359.18C578.24,-350.85 562.93,-339.33 554,-324 529.83,-282.51 530.5,-259.42 551,-216 595.01,-122.78 707.83,-62.03 768.3,-35.06"/>
<polygon fill="grey" stroke="grey" stroke-width="2" points="769.47,-38.38 777.24,-31.18 766.68,-31.96 769.47,-38.38"/>
</g>
<!-- 19 -->
<g id="node20" class="node">
<title>19</title>
<path fill="none" stroke="#d8d356" stroke-width="2" d="M702.5,-324C702.5,-324 575.5,-324 575.5,-324 569.5,-324 563.5,-318 563.5,-312 563.5,-312 563.5,-300 563.5,-300 563.5,-294 569.5,-288 575.5,-288 575.5,-288 702.5,-288 702.5,-288 708.5,-288 714.5,-294 714.5,-300 714.5,-300 714.5,-312 714.5,-312 714.5,-318 708.5,-324 702.5,-324"/>
<text text-anchor="middle" x="639" y="-303.5" font-family="sans" font-size="10.00">qiime2_taxonomic_assignment</text>
</g>
<!-- 10&#45;&gt;19 -->
<g id="edge37" class="edge">
<title>10&#45;&gt;19</title>
<path fill="none" stroke="grey" stroke-width="2" d="M639,-359.34C639,-352.75 639,-345.08 639,-337.67"/>
<polygon fill="grey" stroke="grey" stroke-width="2" points="642.5,-337.93 639,-327.93 635.5,-337.93 642.5,-337.93"/>
</g>
<!-- 11&#45;&gt;0 -->
<g id="edge5" class="edge">
<title>11&#45;&gt;0</title>
<path fill="none" stroke="grey" stroke-width="2" d="M830.21,-287.24C823.12,-254.02 808.55,-185.33 808,-180 803.34,-134.75 804.61,-81.96 806.15,-49.51"/>
<polygon fill="grey" stroke="grey" stroke-width="2" points="809.62,-50.12 806.65,-39.95 802.63,-49.76 809.62,-50.12"/>
</g>
<!-- 12&#45;&gt;0 -->
<g id="edge13" class="edge">
<title>12&#45;&gt;0</title>
<path fill="none" stroke="grey" stroke-width="2" d="M867.39,-143.02C855.99,-119.22 835.76,-76.97 822.12,-48.48"/>
<polygon fill="grey" stroke="grey" stroke-width="2" points="825.33,-47.08 817.85,-39.57 819.01,-50.1 825.33,-47.08"/>
</g>
<!-- 13&#45;&gt;0 -->
<g id="edge4" class="edge">
<title>13&#45;&gt;0</title>
<path fill="none" stroke="grey" stroke-width="2" d="M1000.6,-359.08C994.22,-349.14 986.8,-336.32 982,-324 952.3,-247.72 991.61,-209.86 943,-144 923.62,-117.74 903.73,-129.3 879,-108 863.64,-94.77 863.61,-87.87 851,-72 844.44,-63.74 837.24,-54.82 830.65,-46.7"/>
<polygon fill="grey" stroke="grey" stroke-width="2" points="833.36,-44.49 824.34,-38.94 827.93,-48.91 833.36,-44.49"/>
</g>
<!-- 14 -->
<g id="node15" class="node">
<title>14</title>
<path fill="none" stroke="#d89556" stroke-width="2" d="M1101,-324C1101,-324 1003,-324 1003,-324 997,-324 991,-318 991,-312 991,-312 991,-300 991,-300 991,-294 997,-288 1003,-288 1003,-288 1101,-288 1101,-288 1107,-288 1113,-294 1113,-300 1113,-300 1113,-312 1113,-312 1113,-318 1107,-324 1101,-324"/>
<text text-anchor="middle" x="1052" y="-303.5" font-family="sans" font-size="10.00">qiime2_mask_alignment</text>
</g>
<!-- 13&#45;&gt;14 -->
<g id="edge31" class="edge">
<title>13&#45;&gt;14</title>
<path fill="none" stroke="grey" stroke-width="2" d="M1022.84,-359.34C1026.74,-352.34 1031.32,-344.12 1035.69,-336.28"/>
<polygon fill="grey" stroke="grey" stroke-width="2" points="1038.74,-337.99 1040.55,-327.55 1032.63,-334.58 1038.74,-337.99"/>
</g>
<!-- 14&#45;&gt;0 -->
<g id="edge8" class="edge">
<title>14&#45;&gt;0</title>
<path fill="none" stroke="grey" stroke-width="2" d="M1043.94,-287.01C1025.63,-246.25 982.08,-149.87 977,-144 957.88,-121.91 945.46,-125.41 922,-108 901.98,-93.15 898.55,-87.46 879,-72 867.36,-62.8 854.41,-53 842.79,-44.37"/>
<polygon fill="grey" stroke="grey" stroke-width="2" points="845.13,-41.75 835.01,-38.62 840.97,-47.38 845.13,-41.75"/>
</g>
<!-- 15 -->
<g id="node16" class="node">
<title>15</title>
<path fill="none" stroke="#56d88a" stroke-width="2" d="M1058.5,-108C1058.5,-108 943.5,-108 943.5,-108 937.5,-108 931.5,-102 931.5,-96 931.5,-96 931.5,-84 931.5,-84 931.5,-78 937.5,-72 943.5,-72 943.5,-72 1058.5,-72 1058.5,-72 1064.5,-72 1070.5,-78 1070.5,-84 1070.5,-84 1070.5,-96 1070.5,-96 1070.5,-102 1064.5,-108 1058.5,-108"/>
<text text-anchor="middle" x="1001" y="-87.5" font-family="sans" font-size="10.00">qiime2_masked_aligned_viz</text>
</g>
<!-- 14&#45;&gt;15 -->
<g id="edge32" class="edge">
<title>14&#45;&gt;15</title>
<path fill="none" stroke="grey" stroke-width="2" d="M1048.08,-287.09C1041.53,-257.31 1027.79,-195.79 1015,-144 1013.15,-136.52 1011.07,-128.46 1009.09,-120.95"/>
<polygon fill="grey" stroke="grey" stroke-width="2" points="1012.55,-120.32 1006.59,-111.56 1005.78,-122.12 1012.55,-120.32"/>
</g>
<!-- 16 -->
<g id="node17" class="node">
<title>16</title>
<path fill="none" stroke="#56c1d8" stroke-width="2" d="M1214.5,-252C1214.5,-252 1079.5,-252 1079.5,-252 1073.5,-252 1067.5,-246 1067.5,-240 1067.5,-240 1067.5,-228 1067.5,-228 1067.5,-222 1073.5,-216 1079.5,-216 1079.5,-216 1214.5,-216 1214.5,-216 1220.5,-216 1226.5,-222 1226.5,-228 1226.5,-228 1226.5,-240 1226.5,-240 1226.5,-246 1220.5,-252 1214.5,-252"/>
<text text-anchor="middle" x="1147" y="-231.5" font-family="sans" font-size="10.00">qiime2_phylogeny_unrooted_tree</text>
</g>
<!-- 14&#45;&gt;16 -->
<g id="edge33" class="edge">
<title>14&#45;&gt;16</title>
<path fill="none" stroke="grey" stroke-width="2" d="M1075.97,-287.34C1087.03,-279.19 1100.35,-269.37 1112.46,-260.45"/>
<polygon fill="grey" stroke="grey" stroke-width="2" points="1114.29,-263.45 1120.27,-254.7 1110.14,-257.81 1114.29,-263.45"/>
</g>
<!-- 15&#45;&gt;0 -->
<g id="edge9" class="edge">
<title>15&#45;&gt;0</title>
<path fill="none" stroke="grey" stroke-width="2" d="M951.55,-71.06C919.4,-59.4 878.02,-44.4 847.96,-33.49"/>
<polygon fill="grey" stroke="grey" stroke-width="2" points="849.26,-30.24 838.67,-30.12 846.88,-36.82 849.26,-30.24"/>
</g>
<!-- 16&#45;&gt;0 -->
<g id="edge18" class="edge">
<title>16&#45;&gt;0</title>
<path fill="none" stroke="grey" stroke-width="2" d="M1136.36,-215.2C1130.54,-205.08 1123.43,-192.05 1118,-180 1097.02,-133.48 1117.75,-105.22 1079,-72 1044.86,-42.74 915.26,-27.9 848.41,-22.06"/>
<polygon fill="grey" stroke="grey" stroke-width="2" points="848.82,-18.58 838.56,-21.24 848.23,-25.56 848.82,-18.58"/>
</g>
<!-- 17 -->
<g id="node18" class="node">
<title>17</title>
<path fill="none" stroke="#56d873" stroke-width="2" d="M1264.5,-180C1264.5,-180 1139.5,-180 1139.5,-180 1133.5,-180 1127.5,-174 1127.5,-168 1127.5,-168 1127.5,-156 1127.5,-156 1127.5,-150 1133.5,-144 1139.5,-144 1139.5,-144 1264.5,-144 1264.5,-144 1270.5,-144 1276.5,-150 1276.5,-156 1276.5,-156 1276.5,-168 1276.5,-168 1276.5,-174 1270.5,-180 1264.5,-180"/>
<text text-anchor="middle" x="1202" y="-159.5" font-family="sans" font-size="10.00">qiime2_phylogeny_rooted_tree</text>
</g>
<!-- 16&#45;&gt;17 -->
<g id="edge34" class="edge">
<title>16&#45;&gt;17</title>
<path fill="none" stroke="grey" stroke-width="2" d="M1160.88,-215.34C1166.7,-207.93 1173.6,-199.14 1180.08,-190.9"/>
<polygon fill="grey" stroke="grey" stroke-width="2" points="1182.64,-193.31 1186.06,-183.28 1177.13,-188.98 1182.64,-193.31"/>
</g>
<!-- 17&#45;&gt;0 -->
<g id="edge10" class="edge">
<title>17&#45;&gt;0</title>
<path fill="none" stroke="grey" stroke-width="2" d="M1186.71,-143.35C1166.14,-120.04 1130.16,-80.91 1113,-72 1026.52,-27.12 909.57,-19.22 848.67,-18.44"/>
<polygon fill="grey" stroke="grey" stroke-width="2" points="848.9,-14.94 838.88,-18.39 848.86,-21.94 848.9,-14.94"/>
</g>
<!-- 17&#45;&gt;21 -->
<g id="edge41" class="edge">
<title>17&#45;&gt;21</title>
<path fill="none" stroke="grey" stroke-width="2" d="M1239.98,-143.15C1258.56,-134.43 1281.17,-123.81 1301.12,-114.43"/>
<polygon fill="grey" stroke="grey" stroke-width="2" points="1302.52,-117.64 1310.09,-110.22 1299.55,-111.31 1302.52,-117.64"/>
</g>
<!-- 17&#45;&gt;22 -->
<g id="edge44" class="edge">
<title>17&#45;&gt;22</title>
<path fill="none" stroke="grey" stroke-width="2" d="M1207.8,-143.34C1210.02,-136.59 1212.61,-128.69 1215.11,-121.11"/>
<polygon fill="grey" stroke="grey" stroke-width="2" points="1218.38,-122.37 1218.17,-111.78 1211.73,-120.19 1218.38,-122.37"/>
</g>
<!-- 18&#45;&gt;0 -->
<g id="edge1" class="edge">
<title>18&#45;&gt;0</title>
<path fill="none" stroke="grey" stroke-width="2" d="M751.32,-215.03C752.36,-184.64 756.76,-121.6 775,-72 778.08,-63.62 782.59,-55.15 787.3,-47.51"/>
<polygon fill="grey" stroke="grey" stroke-width="2" points="790.19,-49.49 792.76,-39.21 784.34,-45.64 790.19,-49.49"/>
</g>
<!-- 19&#45;&gt;18 -->
<g id="edge36" class="edge">
<title>19&#45;&gt;18</title>
<path fill="none" stroke="grey" stroke-width="2" d="M667.55,-287.15C680.98,-278.76 697.21,-268.62 711.76,-259.52"/>
<polygon fill="grey" stroke="grey" stroke-width="2" points="713.31,-262.68 719.93,-254.42 709.6,-256.75 713.31,-262.68"/>
</g>
<!-- 19&#45;&gt;20 -->
<g id="edge39" class="edge">
<title>19&#45;&gt;20</title>
<path fill="none" stroke="grey" stroke-width="2" d="M633.95,-287.34C632.05,-280.67 629.82,-272.89 627.68,-265.39"/>
<polygon fill="grey" stroke="grey" stroke-width="2" points="631.06,-264.47 624.95,-255.81 624.33,-266.39 631.06,-264.47"/>
</g>
<!-- 20&#45;&gt;0 -->
<g id="edge7" class="edge">
<title>20&#45;&gt;0</title>
<path fill="none" stroke="grey" stroke-width="2" d="M634.79,-215.12C667.79,-177.75 744.28,-91.14 783.64,-46.58"/>
<polygon fill="grey" stroke="grey" stroke-width="2" points="786.12,-49.06 790.12,-39.25 780.88,-44.42 786.12,-49.06"/>
</g>
<!-- 21&#45;&gt;0 -->
<g id="edge14" class="edge">
<title>21&#45;&gt;0</title>
<path fill="none" stroke="grey" stroke-width="2" d="M1302.1,-74.01C1299.04,-73.27 1295.98,-72.6 1293,-72 1130.32,-39.53 932.69,-25.72 848.8,-21.03"/>
<polygon fill="grey" stroke="grey" stroke-width="2" points="849.07,-17.54 838.9,-20.49 848.69,-24.53 849.07,-17.54"/>
</g>
<!-- 22&#45;&gt;0 -->
<g id="edge3" class="edge">
<title>22&#45;&gt;0</title>
<path fill="none" stroke="grey" stroke-width="2" d="M1164.9,-74.81C1160.21,-73.82 1155.53,-72.87 1151,-72 1042.16,-51.12 912.67,-32.89 848.38,-24.27"/>
<polygon fill="grey" stroke="grey" stroke-width="2" points="849.06,-20.83 838.68,-22.98 848.13,-27.77 849.06,-20.83"/>
</g>
</g>
</svg>
