<?xml version="1.0" encoding="UTF-8" standalone="no"?>
<!DOCTYPE svg PUBLIC "-//W3C//DTD SVG 1.1//EN"
 "http://www.w3.org/Graphics/SVG/1.1/DTD/svg11.dtd">
<!-- Generated by graphviz version 7.1.0 (0)
 -->
<!-- Title: snakemake_dag Pages: 1 -->
<svg width="1406pt" height="548pt"
 viewBox="0.00 0.00 1405.50 548.00" xmlns="http://www.w3.org/2000/svg" xmlns:xlink="http://www.w3.org/1999/xlink">
<g id="graph0" class="graph" transform="scale(1 1) rotate(0) translate(4 544)">
<title>snakemake_dag</title>
<polygon fill="white" stroke="none" points="-4,4 -4,-544 1401.5,-544 1401.5,4 -4,4"/>
<!-- 0 -->
<g id="node1" class="node">
<title>0</title>
<path fill="none" stroke="#ced856" stroke-width="2" d="M752,-36C752,-36 722,-36 722,-36 716,-36 710,-30 710,-24 710,-24 710,-12 710,-12 710,-6 716,0 722,0 722,0 752,0 752,0 758,0 764,-6 764,-12 764,-12 764,-24 764,-24 764,-30 758,-36 752,-36"/>
<text text-anchor="middle" x="737" y="-15.5" font-family="sans" font-size="10.00">all</text>
</g>
<!-- 1 -->
<g id="node2" class="node">
<title>1</title>
<path fill="none" stroke="#d8cb56" stroke-width="2" d="M74,-108C74,-108 12,-108 12,-108 6,-108 0,-102 0,-96 0,-96 0,-84 0,-84 0,-78 6,-72 12,-72 12,-72 74,-72 74,-72 80,-72 86,-78 86,-84 86,-84 86,-96 86,-96 86,-102 80,-108 74,-108"/>
<text text-anchor="middle" x="43" y="-87.5" font-family="sans" font-size="10.00">dot_rules_graph</text>
</g>
<!-- 1&#45;&gt;0 -->
<g id="edge15" class="edge">
<title>1&#45;&gt;0</title>
<path fill="none" stroke="grey" stroke-width="2" d="M86.78,-73.89C89.54,-73.18 92.3,-72.54 95,-72 318.77,-26.83 593.85,-20 696.15,-19.08"/>
<polygon fill="grey" stroke="grey" stroke-width="2" points="696.14,-22.58 706.12,-19.01 696.09,-15.58 696.14,-22.58"/>
</g>
<!-- 2 -->
<g id="node3" class="node">
<title>2</title>
<path fill="none" stroke="#59d856" stroke-width="2" d="M214,-108C214,-108 116,-108 116,-108 110,-108 104,-102 104,-96 104,-96 104,-84 104,-84 104,-78 110,-72 116,-72 116,-72 214,-72 214,-72 220,-72 226,-78 226,-84 226,-84 226,-96 226,-96 226,-102 220,-108 214,-108"/>
<text text-anchor="middle" x="165" y="-87.5" font-family="sans" font-size="10.00">deploy_to_github_pages</text>
</g>
<!-- 2&#45;&gt;0 -->
<g id="edge7" class="edge">
<title>2&#45;&gt;0</title>
<path fill="none" stroke="grey" stroke-width="2" d="M226.86,-73.69C229.94,-73.08 233,-72.52 236,-72 405.61,-42.85 610.46,-27.2 696.18,-21.52"/>
<polygon fill="grey" stroke="grey" stroke-width="2" points="696.35,-25.01 706.11,-20.87 695.9,-18.03 696.35,-25.01"/>
</g>
<!-- 3 -->
<g id="node4" class="node">
<title>3</title>
<path fill="none" stroke="#56d882" stroke-width="2" d="M353.5,-108C353.5,-108 256.5,-108 256.5,-108 250.5,-108 244.5,-102 244.5,-96 244.5,-96 244.5,-84 244.5,-84 244.5,-78 250.5,-72 256.5,-72 256.5,-72 353.5,-72 353.5,-72 359.5,-72 365.5,-78 365.5,-84 365.5,-84 365.5,-96 365.5,-96 365.5,-102 359.5,-108 353.5,-108"/>
<text text-anchor="middle" x="305" y="-87.5" font-family="sans" font-size="10.00">snakemake_html_report</text>
</g>
<!-- 3&#45;&gt;0 -->
<g id="edge16" class="edge">
<title>3&#45;&gt;0</title>
<path fill="none" stroke="grey" stroke-width="2" d="M366.32,-74.71C370.94,-73.75 375.54,-72.84 380,-72 494.08,-50.63 629.99,-32.44 696.4,-24.01"/>
<polygon fill="grey" stroke="grey" stroke-width="2" points="696.62,-27.51 706.1,-22.79 695.74,-20.57 696.62,-27.51"/>
</g>
<!-- 4 -->
<g id="node5" class="node">
<title>4</title>
<path fill="none" stroke="#d89c56" stroke-width="2" d="M542,-396C542,-396 436,-396 436,-396 430,-396 424,-390 424,-384 424,-384 424,-372 424,-372 424,-366 430,-360 436,-360 436,-360 542,-360 542,-360 548,-360 554,-366 554,-372 554,-372 554,-384 554,-384 554,-390 548,-396 542,-396"/>
<text text-anchor="middle" x="489" y="-375.5" font-family="sans" font-size="10.00">qiime2_validate_metadata</text>
</g>
<!-- 4&#45;&gt;0 -->
<g id="edge6" class="edge">
<title>4&#45;&gt;0</title>
<path fill="none" stroke="grey" stroke-width="2" d="M443.16,-359.01C428.26,-350.72 413.41,-339.25 405,-324 369.21,-259.11 260.42,-252.93 435,-72 470.45,-35.26 622.32,-23.82 696.25,-20.4"/>
<polygon fill="grey" stroke="grey" stroke-width="2" points="696.23,-23.9 706.08,-19.97 695.93,-16.91 696.23,-23.9"/>
</g>
<!-- 9 -->
<g id="node10" class="node">
<title>9</title>
<path fill="none" stroke="#56b1d8" stroke-width="2" d="M552,-324C552,-324 426,-324 426,-324 420,-324 414,-318 414,-312 414,-312 414,-300 414,-300 414,-294 420,-288 426,-288 426,-288 552,-288 552,-288 558,-288 564,-294 564,-300 564,-300 564,-312 564,-312 564,-318 558,-324 552,-324"/>
<text text-anchor="middle" x="489" y="-303.5" font-family="sans" font-size="10.00">qiime2_create_n_view_qc_qvz</text>
</g>
<!-- 4&#45;&gt;9 -->
<g id="edge24" class="edge">
<title>4&#45;&gt;9</title>
<path fill="none" stroke="grey" stroke-width="2" d="M489,-359.34C489,-352.75 489,-345.08 489,-337.67"/>
<polygon fill="grey" stroke="grey" stroke-width="2" points="492.5,-337.93 489,-327.93 485.5,-337.93 492.5,-337.93"/>
</g>
<!-- 5 -->
<g id="node6" class="node">
<title>5</title>
<path fill="none" stroke="#566bd8" stroke-width="2" d="M958.5,-540C958.5,-540 839.5,-540 839.5,-540 833.5,-540 827.5,-534 827.5,-528 827.5,-528 827.5,-516 827.5,-516 827.5,-510 833.5,-504 839.5,-504 839.5,-504 958.5,-504 958.5,-504 964.5,-504 970.5,-510 970.5,-516 970.5,-516 970.5,-528 970.5,-528 970.5,-534 964.5,-540 958.5,-540"/>
<text text-anchor="middle" x="899" y="-519.5" font-family="sans" font-size="10.00">import_qiime2_mapping_files</text>
</g>
<!-- 5&#45;&gt;4 -->
<g id="edge19" class="edge">
<title>5&#45;&gt;4</title>
<path fill="none" stroke="grey" stroke-width="2" d="M847.07,-503.02C772.16,-477.07 633.89,-429.18 552.84,-401.11"/>
<polygon fill="grey" stroke="grey" stroke-width="2" points="554.28,-397.91 543.69,-397.94 551.99,-404.52 554.28,-397.91"/>
</g>
<!-- 6 -->
<g id="node7" class="node">
<title>6</title>
<path fill="none" stroke="#d85656" stroke-width="2" d="M1071,-468C1071,-468 959,-468 959,-468 953,-468 947,-462 947,-456 947,-456 947,-444 947,-444 947,-438 953,-432 959,-432 959,-432 1071,-432 1071,-432 1077,-432 1083,-438 1083,-444 1083,-444 1083,-456 1083,-456 1083,-462 1077,-468 1071,-468"/>
<text text-anchor="middle" x="1015" y="-447.5" font-family="sans" font-size="10.00">qiime2_import_paired_fastq</text>
</g>
<!-- 5&#45;&gt;6 -->
<g id="edge20" class="edge">
<title>5&#45;&gt;6</title>
<path fill="none" stroke="grey" stroke-width="2" d="M928.57,-503.15C942.48,-494.76 959.28,-484.62 974.36,-475.52"/>
<polygon fill="grey" stroke="grey" stroke-width="2" points="976.14,-478.54 982.89,-470.38 972.52,-472.55 976.14,-478.54"/>
</g>
<!-- 6&#45;&gt;0 -->
<g id="edge2" class="edge">
<title>6&#45;&gt;0</title>
<path fill="none" stroke="grey" stroke-width="2" d="M1083.71,-436.58C1151.16,-419.97 1244,-383.25 1244,-307 1244,-307 1244,-307 1244,-161 1244,-98.46 1192.39,-96.85 1135,-72 1071.33,-44.44 866.02,-27.69 777.85,-21.61"/>
<polygon fill="grey" stroke="grey" stroke-width="2" points="778.22,-18.13 768.01,-20.94 777.75,-25.11 778.22,-18.13"/>
</g>
<!-- 7 -->
<g id="node8" class="node">
<title>7</title>
<path fill="none" stroke="#56d86b" stroke-width="2" d="M1385.5,-252C1385.5,-252 1284.5,-252 1284.5,-252 1278.5,-252 1272.5,-246 1272.5,-240 1272.5,-240 1272.5,-228 1272.5,-228 1272.5,-222 1278.5,-216 1284.5,-216 1284.5,-216 1385.5,-216 1385.5,-216 1391.5,-216 1397.5,-222 1397.5,-228 1397.5,-228 1397.5,-240 1397.5,-240 1397.5,-246 1391.5,-252 1385.5,-252"/>
<text text-anchor="middle" x="1335" y="-231.5" font-family="sans" font-size="10.00">qiime2_summarize_fastq</text>
</g>
<!-- 6&#45;&gt;7 -->
<g id="edge21" class="edge">
<title>6&#45;&gt;7</title>
<path fill="none" stroke="grey" stroke-width="2" d="M1083.99,-440.79C1146.05,-432.21 1231.43,-417.04 1258,-396 1299.65,-363.03 1320.05,-302.01 1328.98,-265.3"/>
<polygon fill="grey" stroke="grey" stroke-width="2" points="1332.31,-266.45 1331.1,-255.92 1325.48,-264.9 1332.31,-266.45"/>
</g>
<!-- 8 -->
<g id="node9" class="node">
<title>8</title>
<path fill="none" stroke="#569ad8" stroke-width="2" d="M817.5,-396C817.5,-396 756.5,-396 756.5,-396 750.5,-396 744.5,-390 744.5,-384 744.5,-384 744.5,-372 744.5,-372 744.5,-366 750.5,-360 756.5,-360 756.5,-360 817.5,-360 817.5,-360 823.5,-360 829.5,-366 829.5,-372 829.5,-372 829.5,-384 829.5,-384 829.5,-390 823.5,-396 817.5,-396"/>
<text text-anchor="middle" x="787" y="-375.5" font-family="sans" font-size="10.00">qiime2_read_qc</text>
</g>
<!-- 6&#45;&gt;8 -->
<g id="edge22" class="edge">
<title>6&#45;&gt;8</title>
<path fill="none" stroke="grey" stroke-width="2" d="M956.58,-431.06C921.45,-420.28 876.98,-406.63 842.4,-396.01"/>
<polygon fill="grey" stroke="grey" stroke-width="2" points="843.63,-392.72 833.04,-393.13 841.57,-399.42 843.63,-392.72"/>
</g>
<!-- 7&#45;&gt;0 -->
<g id="edge11" class="edge">
<title>7&#45;&gt;0</title>
<path fill="none" stroke="grey" stroke-width="2" d="M1332.24,-215.06C1325.94,-180.83 1307.04,-106.49 1258,-72 1218.97,-44.55 893.58,-26.48 777.74,-20.86"/>
<polygon fill="grey" stroke="grey" stroke-width="2" points="778.18,-17.38 768.02,-20.4 777.84,-24.37 778.18,-17.38"/>
</g>
<!-- 8&#45;&gt;0 -->
<g id="edge12" class="edge">
<title>8&#45;&gt;0</title>
<path fill="none" stroke="grey" stroke-width="2" d="M743.64,-362.07C721.23,-353.11 694.22,-340.27 673,-324 573.62,-247.78 534.8,-225.71 492,-108 486.53,-92.96 481.95,-84.45 492,-72 517.2,-40.76 633.29,-27.02 696.2,-21.78"/>
<polygon fill="grey" stroke="grey" stroke-width="2" points="696.42,-25.28 706.12,-21 695.87,-18.3 696.42,-25.28"/>
</g>
<!-- 8&#45;&gt;9 -->
<g id="edge23" class="edge">
<title>8&#45;&gt;9</title>
<path fill="none" stroke="grey" stroke-width="2" d="M743.67,-366.82C700.24,-356.62 632.13,-340.62 577.27,-327.74"/>
<polygon fill="grey" stroke="grey" stroke-width="2" points="578.2,-324.36 567.66,-325.48 576.59,-331.17 578.2,-324.36"/>
</g>
<!-- 10 -->
<g id="node11" class="node">
<title>10</title>
<path fill="none" stroke="#56d8b1" stroke-width="2" d="M676,-180C676,-180 584,-180 584,-180 578,-180 572,-174 572,-168 572,-168 572,-156 572,-156 572,-150 578,-144 584,-144 584,-144 676,-144 676,-144 682,-144 688,-150 688,-156 688,-156 688,-168 688,-168 688,-174 682,-180 676,-180"/>
<text text-anchor="middle" x="630" y="-159.5" font-family="sans" font-size="10.00">qiime2_denovo_cluster</text>
</g>
<!-- 8&#45;&gt;10 -->
<g id="edge25" class="edge">
<title>8&#45;&gt;10</title>
<path fill="none" stroke="grey" stroke-width="2" d="M758.63,-359.04C727.08,-337.52 677,-298.5 650,-252 639.67,-234.21 634.67,-211.56 632.26,-193.56"/>
<polygon fill="grey" stroke="grey" stroke-width="2" points="635.76,-193.43 631.2,-183.87 628.81,-194.2 635.76,-193.43"/>
</g>
<!-- 11 -->
<g id="node12" class="node">
<title>11</title>
<path fill="none" stroke="#5682d8" stroke-width="2" d="M771.5,-252C771.5,-252 670.5,-252 670.5,-252 664.5,-252 658.5,-246 658.5,-240 658.5,-240 658.5,-228 658.5,-228 658.5,-222 664.5,-216 670.5,-216 670.5,-216 771.5,-216 771.5,-216 777.5,-216 783.5,-222 783.5,-228 783.5,-228 783.5,-240 783.5,-240 783.5,-246 777.5,-252 771.5,-252"/>
<text text-anchor="middle" x="721" y="-231.5" font-family="sans" font-size="10.00">qiime2_closedref_cluster</text>
</g>
<!-- 8&#45;&gt;11 -->
<g id="edge26" class="edge">
<title>8&#45;&gt;11</title>
<path fill="none" stroke="grey" stroke-width="2" d="M778.64,-359.02C767.58,-335.22 747.95,-292.97 734.7,-264.48"/>
<polygon fill="grey" stroke="grey" stroke-width="2" points="737.96,-263.18 730.57,-255.58 731.61,-266.13 737.96,-263.18"/>
</g>
<!-- 12 -->
<g id="node13" class="node">
<title>12</title>
<path fill="none" stroke="#56c9d8" stroke-width="2" d="M906.5,-252C906.5,-252 813.5,-252 813.5,-252 807.5,-252 801.5,-246 801.5,-240 801.5,-240 801.5,-228 801.5,-228 801.5,-222 807.5,-216 813.5,-216 813.5,-216 906.5,-216 906.5,-216 912.5,-216 918.5,-222 918.5,-228 918.5,-228 918.5,-240 918.5,-240 918.5,-246 912.5,-252 906.5,-252"/>
<text text-anchor="middle" x="860" y="-231.5" font-family="sans" font-size="10.00">qiime2_openref_cluster</text>
</g>
<!-- 8&#45;&gt;12 -->
<g id="edge27" class="edge">
<title>8&#45;&gt;12</title>
<path fill="none" stroke="grey" stroke-width="2" d="M796.25,-359.02C808.53,-335.12 830.39,-292.59 845.04,-264.1"/>
<polygon fill="grey" stroke="grey" stroke-width="2" points="847.99,-266.02 849.45,-255.53 841.76,-262.82 847.99,-266.02"/>
</g>
<!-- 13 -->
<g id="node14" class="node">
<title>13</title>
<path fill="none" stroke="#56d8c9" stroke-width="2" d="M1046,-324C1046,-324 950,-324 950,-324 944,-324 938,-318 938,-312 938,-312 938,-300 938,-300 938,-294 944,-288 950,-288 950,-288 1046,-288 1046,-288 1052,-288 1058,-294 1058,-300 1058,-300 1058,-312 1058,-312 1058,-318 1052,-324 1046,-324"/>
<text text-anchor="middle" x="998" y="-303.5" font-family="sans" font-size="10.00">qiime2_mafft_alignment</text>
</g>
<!-- 8&#45;&gt;13 -->
<g id="edge28" class="edge">
<title>8&#45;&gt;13</title>
<path fill="none" stroke="grey" stroke-width="2" d="M830.46,-362.58C859.67,-352.89 898.71,-339.94 931.75,-328.98"/>
<polygon fill="grey" stroke="grey" stroke-width="2" points="932.83,-332.31 941.22,-325.84 930.63,-325.66 932.83,-332.31"/>
</g>
<!-- 19 -->
<g id="node20" class="node">
<title>19</title>
<path fill="none" stroke="#70d856" stroke-width="2" d="M1203.5,-324C1203.5,-324 1090.5,-324 1090.5,-324 1084.5,-324 1078.5,-318 1078.5,-312 1078.5,-312 1078.5,-300 1078.5,-300 1078.5,-294 1084.5,-288 1090.5,-288 1090.5,-288 1203.5,-288 1203.5,-288 1209.5,-288 1215.5,-294 1215.5,-300 1215.5,-300 1215.5,-312 1215.5,-312 1215.5,-318 1209.5,-324 1203.5,-324"/>
<text text-anchor="middle" x="1147" y="-303.5" font-family="sans" font-size="10.00">qiime2_data_transformation</text>
</g>
<!-- 8&#45;&gt;19 -->
<g id="edge34" class="edge">
<title>8&#45;&gt;19</title>
<path fill="none" stroke="grey" stroke-width="2" d="M830.23,-369.13C882.81,-359.48 974.61,-342.43 1064.91,-324.39"/>
<polygon fill="grey" stroke="grey" stroke-width="2" points="1065.56,-327.83 1074.67,-322.43 1064.18,-320.97 1065.56,-327.83"/>
</g>
<!-- 9&#45;&gt;0 -->
<g id="edge9" class="edge">
<title>9&#45;&gt;0</title>
<path fill="none" stroke="grey" stroke-width="2" d="M478.6,-287.06C455.37,-244.39 405.3,-135.65 458,-72 487.83,-35.97 626.75,-24.23 696.63,-20.57"/>
<polygon fill="grey" stroke="grey" stroke-width="2" points="696.39,-24.09 706.21,-20.11 696.05,-17.1 696.39,-24.09"/>
</g>
<!-- 10&#45;&gt;0 -->
<g id="edge10" class="edge">
<title>10&#45;&gt;0</title>
<path fill="none" stroke="grey" stroke-width="2" d="M643.55,-143.02C661.8,-118.8 694.46,-75.45 715.93,-46.96"/>
<polygon fill="grey" stroke="grey" stroke-width="2" points="718.51,-49.35 721.74,-39.26 712.92,-45.14 718.51,-49.35"/>
</g>
<!-- 18 -->
<g id="node19" class="node">
<title>18</title>
<path fill="none" stroke="#d86e56" stroke-width="2" d="M639.5,-108C639.5,-108 512.5,-108 512.5,-108 506.5,-108 500.5,-102 500.5,-96 500.5,-96 500.5,-84 500.5,-84 500.5,-78 506.5,-72 512.5,-72 512.5,-72 639.5,-72 639.5,-72 645.5,-72 651.5,-78 651.5,-84 651.5,-84 651.5,-96 651.5,-96 651.5,-102 645.5,-108 639.5,-108"/>
<text text-anchor="middle" x="576" y="-87.5" font-family="sans" font-size="10.00">qiime2_taxonomic_assignment</text>
</g>
<!-- 10&#45;&gt;18 -->
<g id="edge33" class="edge">
<title>10&#45;&gt;18</title>
<path fill="none" stroke="grey" stroke-width="2" d="M616.37,-143.34C610.73,-136.01 604.03,-127.34 597.74,-119.18"/>
<polygon fill="grey" stroke="grey" stroke-width="2" points="600.54,-117.08 591.66,-111.3 595,-121.35 600.54,-117.08"/>
</g>
<!-- 11&#45;&gt;0 -->
<g id="edge13" class="edge">
<title>11&#45;&gt;0</title>
<path fill="none" stroke="grey" stroke-width="2" d="M722.34,-215.12C725.07,-178.62 731.31,-95.13 734.7,-49.74"/>
<polygon fill="grey" stroke="grey" stroke-width="2" points="738.17,-50.23 735.43,-40 731.19,-49.71 738.17,-50.23"/>
</g>
<!-- 12&#45;&gt;0 -->
<g id="edge8" class="edge">
<title>12&#45;&gt;0</title>
<path fill="none" stroke="grey" stroke-width="2" d="M818.26,-215.03C802.9,-206.48 786.66,-194.85 776,-180 761.15,-159.32 748.19,-90.23 741.6,-49.59"/>
<polygon fill="grey" stroke="grey" stroke-width="2" points="745.07,-49.09 740.05,-39.76 738.15,-50.18 745.07,-49.09"/>
</g>
<!-- 13&#45;&gt;0 -->
<g id="edge14" class="edge">
<title>13&#45;&gt;0</title>
<path fill="none" stroke="grey" stroke-width="2" d="M1038.07,-287.22C1092.95,-260.14 1181.24,-205.2 1149,-144 1122.63,-93.94 1096.42,-93.3 1044,-72 953.39,-35.18 837.62,-23.93 777.43,-20.5"/>
<polygon fill="grey" stroke="grey" stroke-width="2" points="777.96,-17.02 767.79,-20 777.6,-24.01 777.96,-17.02"/>
</g>
<!-- 14 -->
<g id="node15" class="node">
<title>14</title>
<path fill="none" stroke="#9fd856" stroke-width="2" d="M1047,-252C1047,-252 949,-252 949,-252 943,-252 937,-246 937,-240 937,-240 937,-228 937,-228 937,-222 943,-216 949,-216 949,-216 1047,-216 1047,-216 1053,-216 1059,-222 1059,-228 1059,-228 1059,-240 1059,-240 1059,-246 1053,-252 1047,-252"/>
<text text-anchor="middle" x="998" y="-231.5" font-family="sans" font-size="10.00">qiime2_mask_alignment</text>
</g>
<!-- 13&#45;&gt;14 -->
<g id="edge29" class="edge">
<title>13&#45;&gt;14</title>
<path fill="none" stroke="grey" stroke-width="2" d="M998,-287.34C998,-280.75 998,-273.08 998,-265.67"/>
<polygon fill="grey" stroke="grey" stroke-width="2" points="1001.5,-265.93 998,-255.93 994.5,-265.93 1001.5,-265.93"/>
</g>
<!-- 14&#45;&gt;0 -->
<g id="edge1" class="edge">
<title>14&#45;&gt;0</title>
<path fill="none" stroke="grey" stroke-width="2" d="M996.13,-215.05C991.83,-177.43 980.09,-92.12 960,-72 934.69,-46.65 834.66,-30.74 777.54,-23.53"/>
<polygon fill="grey" stroke="grey" stroke-width="2" points="778.05,-20.07 767.7,-22.33 777.2,-27.02 778.05,-20.07"/>
</g>
<!-- 15 -->
<g id="node16" class="node">
<title>15</title>
<path fill="none" stroke="#56d89a" stroke-width="2" d="M1127.5,-180C1127.5,-180 1012.5,-180 1012.5,-180 1006.5,-180 1000.5,-174 1000.5,-168 1000.5,-168 1000.5,-156 1000.5,-156 1000.5,-150 1006.5,-144 1012.5,-144 1012.5,-144 1127.5,-144 1127.5,-144 1133.5,-144 1139.5,-150 1139.5,-156 1139.5,-156 1139.5,-168 1139.5,-168 1139.5,-174 1133.5,-180 1127.5,-180"/>
<text text-anchor="middle" x="1070" y="-159.5" font-family="sans" font-size="10.00">qiime2_masked_aligned_viz</text>
</g>
<!-- 14&#45;&gt;15 -->
<g id="edge30" class="edge">
<title>14&#45;&gt;15</title>
<path fill="none" stroke="grey" stroke-width="2" d="M1016.17,-215.34C1024.12,-207.6 1033.63,-198.36 1042.43,-189.81"/>
<polygon fill="grey" stroke="grey" stroke-width="2" points="1044.69,-192.49 1049.42,-183.01 1039.81,-187.47 1044.69,-192.49"/>
</g>
<!-- 16 -->
<g id="node17" class="node">
<title>16</title>
<path fill="none" stroke="#d88556" stroke-width="2" d="M931.5,-180C931.5,-180 796.5,-180 796.5,-180 790.5,-180 784.5,-174 784.5,-168 784.5,-168 784.5,-156 784.5,-156 784.5,-150 790.5,-144 796.5,-144 796.5,-144 931.5,-144 931.5,-144 937.5,-144 943.5,-150 943.5,-156 943.5,-156 943.5,-168 943.5,-168 943.5,-174 937.5,-180 931.5,-180"/>
<text text-anchor="middle" x="864" y="-159.5" font-family="sans" font-size="10.00">qiime2_phylogeny_unrooted_tree</text>
</g>
<!-- 14&#45;&gt;16 -->
<g id="edge31" class="edge">
<title>14&#45;&gt;16</title>
<path fill="none" stroke="grey" stroke-width="2" d="M963.84,-215.15C947.3,-206.52 927.22,-196.02 909.41,-186.72"/>
<polygon fill="grey" stroke="grey" stroke-width="2" points="911.27,-183.74 900.78,-182.21 908.02,-189.95 911.27,-183.74"/>
</g>
<!-- 15&#45;&gt;0 -->
<g id="edge18" class="edge">
<title>15&#45;&gt;0</title>
<path fill="none" stroke="grey" stroke-width="2" d="M1063.82,-143.18C1055.72,-122.61 1039.48,-89.4 1014,-72 976.08,-46.1 845.01,-29.7 777.66,-22.78"/>
<polygon fill="grey" stroke="grey" stroke-width="2" points="778.01,-19.3 767.71,-21.79 777.31,-26.27 778.01,-19.3"/>
</g>
<!-- 16&#45;&gt;0 -->
<g id="edge5" class="edge">
<title>16&#45;&gt;0</title>
<path fill="none" stroke="grey" stroke-width="2" d="M905.93,-143.16C920.36,-134.74 934.92,-123.16 943,-108 950.53,-93.88 952.8,-84.64 943,-72 922.92,-46.1 831.69,-30.64 777.6,-23.59"/>
<polygon fill="grey" stroke="grey" stroke-width="2" points="778.08,-20.12 767.72,-22.36 777.21,-27.07 778.08,-20.12"/>
</g>
<!-- 17 -->
<g id="node18" class="node">
<title>17</title>
<path fill="none" stroke="#b6d856" stroke-width="2" d="M921.5,-108C921.5,-108 796.5,-108 796.5,-108 790.5,-108 784.5,-102 784.5,-96 784.5,-96 784.5,-84 784.5,-84 784.5,-78 790.5,-72 796.5,-72 796.5,-72 921.5,-72 921.5,-72 927.5,-72 933.5,-78 933.5,-84 933.5,-84 933.5,-96 933.5,-96 933.5,-102 927.5,-108 921.5,-108"/>
<text text-anchor="middle" x="859" y="-87.5" font-family="sans" font-size="10.00">qiime2_phylogeny_rooted_tree</text>
</g>
<!-- 16&#45;&gt;17 -->
<g id="edge32" class="edge">
<title>16&#45;&gt;17</title>
<path fill="none" stroke="grey" stroke-width="2" d="M862.74,-143.34C862.27,-136.75 861.72,-129.08 861.19,-121.67"/>
<polygon fill="grey" stroke="grey" stroke-width="2" points="864.7,-121.65 860.49,-111.92 857.72,-122.15 864.7,-121.65"/>
</g>
<!-- 17&#45;&gt;0 -->
<g id="edge17" class="edge">
<title>17&#45;&gt;0</title>
<path fill="none" stroke="grey" stroke-width="2" d="M827.9,-71.15C812.07,-62.07 792.67,-50.94 775.86,-41.3"/>
<polygon fill="grey" stroke="grey" stroke-width="2" points="777.76,-38.35 767.34,-36.41 774.27,-44.42 777.76,-38.35"/>
</g>
<!-- 18&#45;&gt;0 -->
<g id="edge4" class="edge">
<title>18&#45;&gt;0</title>
<path fill="none" stroke="grey" stroke-width="2" d="M617.04,-71.15C641.75,-60.41 673.05,-46.81 697.47,-36.18"/>
<polygon fill="grey" stroke="grey" stroke-width="2" points="698.65,-39.49 706.43,-32.29 695.86,-33.07 698.65,-39.49"/>
</g>
<!-- 19&#45;&gt;0 -->
<g id="edge3" class="edge">
<title>19&#45;&gt;0</title>
<path fill="none" stroke="grey" stroke-width="2" d="M1154.52,-287.33C1166.33,-256.87 1185.9,-193.03 1166,-144 1149.21,-102.65 1135.73,-92.33 1096,-72 1041,-43.85 859.58,-27.73 777.71,-21.72"/>
<polygon fill="grey" stroke="grey" stroke-width="2" points="778.02,-18.24 767.79,-21.01 777.52,-25.22 778.02,-18.24"/>
</g>
</g>
</svg>
