<?xml version="1.0" encoding="UTF-8" standalone="no"?>
<!DOCTYPE svg PUBLIC "-//W3C//DTD SVG 1.1//EN"
 "http://www.w3.org/Graphics/SVG/1.1/DTD/svg11.dtd">
<!-- Generated by graphviz version 7.1.0 (0)
 -->
<!-- Title: snakemake_dag Pages: 1 -->
<svg width="1234pt" height="692pt"
 viewBox="0.00 0.00 1234.00 692.00" xmlns="http://www.w3.org/2000/svg" xmlns:xlink="http://www.w3.org/1999/xlink">
<g id="graph0" class="graph" transform="scale(1 1) rotate(0) translate(4 688)">
<title>snakemake_dag</title>
<polygon fill="white" stroke="none" points="-4,4 -4,-688 1230,-688 1230,4 -4,4"/>
<!-- 0 -->
<g id="node1" class="node">
<title>0</title>
<path fill="none" stroke="#56d87b" stroke-width="2" d="M632,-36C632,-36 602,-36 602,-36 596,-36 590,-30 590,-24 590,-24 590,-12 590,-12 590,-6 596,0 602,0 602,0 632,0 632,0 638,0 644,-6 644,-12 644,-12 644,-24 644,-24 644,-30 638,-36 632,-36"/>
<text text-anchor="middle" x="617" y="-15.5" font-family="sans" font-size="10.00">all</text>
</g>
<!-- 1 -->
<g id="node2" class="node">
<title>1</title>
<path fill="none" stroke="#56d8a9" stroke-width="2" d="M175,-108C175,-108 77,-108 77,-108 71,-108 65,-102 65,-96 65,-96 65,-84 65,-84 65,-78 71,-72 77,-72 77,-72 175,-72 175,-72 181,-72 187,-78 187,-84 187,-84 187,-96 187,-96 187,-102 181,-108 175,-108"/>
<text text-anchor="middle" x="126" y="-87.5" font-family="sans" font-size="10.00">deploy_to_github_pages</text>
</g>
<!-- 1&#45;&gt;0 -->
<g id="edge4" class="edge">
<title>1&#45;&gt;0</title>
<path fill="none" stroke="grey" stroke-width="2" d="M187.71,-74.52C192.19,-73.62 196.66,-72.77 201,-72 337.68,-47.86 501.48,-30.28 576.22,-22.88"/>
<polygon fill="grey" stroke="grey" stroke-width="2" points="576.49,-26.37 586.1,-21.91 575.8,-19.4 576.49,-26.37"/>
</g>
<!-- 2 -->
<g id="node3" class="node">
<title>2</title>
<path fill="none" stroke="#afd856" stroke-width="2" d="M168,-180C168,-180 98,-180 98,-180 92,-180 86,-174 86,-168 86,-168 86,-156 86,-156 86,-150 92,-144 98,-144 98,-144 168,-144 168,-144 174,-144 180,-150 180,-156 180,-156 180,-168 180,-168 180,-174 174,-180 168,-180"/>
<text text-anchor="middle" x="133" y="-159.5" font-family="sans" font-size="10.00">get_dot_rulegraph</text>
</g>
<!-- 2&#45;&gt;1 -->
<g id="edge17" class="edge">
<title>2&#45;&gt;1</title>
<path fill="none" stroke="grey" stroke-width="2" d="M131.23,-143.34C130.58,-136.75 129.81,-129.08 129.07,-121.67"/>
<polygon fill="grey" stroke="grey" stroke-width="2" points="132.57,-121.52 128.09,-111.91 125.6,-122.21 132.57,-121.52"/>
</g>
<!-- 3 -->
<g id="node4" class="node">
<title>3</title>
<path fill="none" stroke="#56d86b" stroke-width="2" d="M56,-180C56,-180 12,-180 12,-180 6,-180 0,-174 0,-168 0,-168 0,-156 0,-156 0,-150 6,-144 12,-144 12,-144 56,-144 56,-144 62,-144 68,-150 68,-156 68,-156 68,-168 68,-168 68,-174 62,-180 56,-180"/>
<text text-anchor="middle" x="34" y="-159.5" font-family="sans" font-size="10.00">project_tree</text>
</g>
<!-- 3&#45;&gt;1 -->
<g id="edge16" class="edge">
<title>3&#45;&gt;1</title>
<path fill="none" stroke="grey" stroke-width="2" d="M57.22,-143.34C67.81,-135.27 80.57,-125.57 92.2,-116.72"/>
<polygon fill="grey" stroke="grey" stroke-width="2" points="94.22,-119.58 100.06,-110.73 89.99,-114 94.22,-119.58"/>
</g>
<!-- 4 -->
<g id="node5" class="node">
<title>4</title>
<path fill="none" stroke="#bed856" stroke-width="2" d="M593,-180C593,-180 507,-180 507,-180 501,-180 495,-174 495,-168 495,-168 495,-156 495,-156 495,-150 501,-144 507,-144 507,-144 593,-144 593,-144 599,-144 605,-150 605,-156 605,-156 605,-168 605,-168 605,-174 599,-180 593,-180"/>
<text text-anchor="middle" x="550" y="-159.5" font-family="sans" font-size="10.00">qzv_metadata_to_tsv</text>
</g>
<!-- 4&#45;&gt;0 -->
<g id="edge3" class="edge">
<title>4&#45;&gt;0</title>
<path fill="none" stroke="grey" stroke-width="2" d="M558.49,-143.02C569.71,-119.22 589.65,-76.97 603.09,-48.48"/>
<polygon fill="grey" stroke="grey" stroke-width="2" points="606.19,-50.11 607.29,-39.58 599.86,-47.13 606.19,-50.11"/>
</g>
<!-- 15 -->
<g id="node16" class="node">
<title>15</title>
<path fill="none" stroke="#d86656" stroke-width="2" d="M538.5,-108C538.5,-108 449.5,-108 449.5,-108 443.5,-108 437.5,-102 437.5,-96 437.5,-96 437.5,-84 437.5,-84 437.5,-78 443.5,-72 449.5,-72 449.5,-72 538.5,-72 538.5,-72 544.5,-72 550.5,-78 550.5,-84 550.5,-84 550.5,-96 550.5,-96 550.5,-102 544.5,-108 538.5,-108"/>
<text text-anchor="middle" x="494" y="-87.5" font-family="sans" font-size="10.00">qiime2_dada2_visuals</text>
</g>
<!-- 4&#45;&gt;15 -->
<g id="edge26" class="edge">
<title>4&#45;&gt;15</title>
<path fill="none" stroke="grey" stroke-width="2" d="M535.87,-143.34C529.95,-135.93 522.91,-127.14 516.32,-118.9"/>
<polygon fill="grey" stroke="grey" stroke-width="2" points="519.19,-116.89 510.21,-111.27 513.73,-121.26 519.19,-116.89"/>
</g>
<!-- 26 -->
<g id="node27" class="node">
<title>26</title>
<path fill="none" stroke="#88d856" stroke-width="2" d="M729,-108C729,-108 657,-108 657,-108 651,-108 645,-102 645,-96 645,-96 645,-84 645,-84 645,-78 651,-72 657,-72 657,-72 729,-72 729,-72 735,-72 741,-78 741,-84 741,-84 741,-96 741,-96 741,-102 735,-108 729,-108"/>
<text text-anchor="middle" x="693" y="-87.5" font-family="sans" font-size="10.00">qiime2_rarefaction</text>
</g>
<!-- 4&#45;&gt;26 -->
<g id="edge42" class="edge">
<title>4&#45;&gt;26</title>
<path fill="none" stroke="grey" stroke-width="2" d="M586.45,-143.15C604.27,-134.43 625.95,-123.82 645.08,-114.46"/>
<polygon fill="grey" stroke="grey" stroke-width="2" points="646.45,-117.68 653.89,-110.14 643.37,-111.4 646.45,-117.68"/>
</g>
<!-- 27 -->
<g id="node28" class="node">
<title>27</title>
<path fill="none" stroke="#56d88a" stroke-width="2" d="M1003.5,-108C1003.5,-108 908.5,-108 908.5,-108 902.5,-108 896.5,-102 896.5,-96 896.5,-96 896.5,-84 896.5,-84 896.5,-78 902.5,-72 908.5,-72 908.5,-72 1003.5,-72 1003.5,-72 1009.5,-72 1015.5,-78 1015.5,-84 1015.5,-84 1015.5,-96 1015.5,-96 1015.5,-102 1009.5,-108 1003.5,-108"/>
<text text-anchor="middle" x="956" y="-87.5" font-family="sans" font-size="10.00">alpha_diversity_metrics</text>
</g>
<!-- 4&#45;&gt;27 -->
<g id="edge45" class="edge">
<title>4&#45;&gt;27</title>
<path fill="none" stroke="grey" stroke-width="2" d="M605.9,-153.8C670.52,-145.12 780.33,-129.32 883.13,-108.9"/>
<polygon fill="grey" stroke="grey" stroke-width="2" points="883.55,-112.39 892.66,-106.99 882.17,-105.53 883.55,-112.39"/>
</g>
<!-- 5 -->
<g id="node6" class="node">
<title>5</title>
<path fill="none" stroke="#d8d356" stroke-width="2" d="M593,-252C593,-252 487,-252 487,-252 481,-252 475,-246 475,-240 475,-240 475,-228 475,-228 475,-222 481,-216 487,-216 487,-216 593,-216 593,-216 599,-216 605,-222 605,-228 605,-228 605,-240 605,-240 605,-246 599,-252 593,-252"/>
<text text-anchor="middle" x="540" y="-231.5" font-family="sans" font-size="10.00">qiime2_validate_metadata</text>
</g>
<!-- 5&#45;&gt;4 -->
<g id="edge18" class="edge">
<title>5&#45;&gt;4</title>
<path fill="none" stroke="grey" stroke-width="2" d="M542.52,-215.34C543.46,-208.75 544.56,-201.08 545.62,-193.67"/>
<polygon fill="grey" stroke="grey" stroke-width="2" points="549.07,-194.29 547.01,-183.9 542.14,-193.3 549.07,-194.29"/>
</g>
<!-- 6 -->
<g id="node7" class="node">
<title>6</title>
<path fill="none" stroke="#d87556" stroke-width="2" d="M552.5,-324C552.5,-324 487.5,-324 487.5,-324 481.5,-324 475.5,-318 475.5,-312 475.5,-312 475.5,-300 475.5,-300 475.5,-294 481.5,-288 487.5,-288 487.5,-288 552.5,-288 552.5,-288 558.5,-288 564.5,-294 564.5,-300 564.5,-300 564.5,-312 564.5,-312 564.5,-318 558.5,-324 552.5,-324"/>
<text text-anchor="middle" x="520" y="-303.5" font-family="sans" font-size="10.00">import_metadata</text>
</g>
<!-- 6&#45;&gt;5 -->
<g id="edge19" class="edge">
<title>6&#45;&gt;5</title>
<path fill="none" stroke="grey" stroke-width="2" d="M525.05,-287.34C526.95,-280.67 529.18,-272.89 531.32,-265.39"/>
<polygon fill="grey" stroke="grey" stroke-width="2" points="534.67,-266.39 534.05,-255.81 527.94,-264.47 534.67,-266.39"/>
</g>
<!-- 7 -->
<g id="node8" class="node">
<title>7</title>
<path fill="none" stroke="#56d8d0" stroke-width="2" d="M330.5,-108C330.5,-108 255.5,-108 255.5,-108 249.5,-108 243.5,-102 243.5,-96 243.5,-96 243.5,-84 243.5,-84 243.5,-78 249.5,-72 255.5,-72 255.5,-72 330.5,-72 330.5,-72 336.5,-72 342.5,-78 342.5,-84 342.5,-84 342.5,-96 342.5,-96 342.5,-102 336.5,-108 330.5,-108"/>
<text text-anchor="middle" x="293" y="-87.5" font-family="sans" font-size="10.00">import_qced_reads</text>
</g>
<!-- 7&#45;&gt;0 -->
<g id="edge6" class="edge">
<title>7&#45;&gt;0</title>
<path fill="none" stroke="grey" stroke-width="2" d="M343.24,-75.36C347.88,-74.19 352.52,-73.05 357,-72 434.2,-53.9 525.12,-36.18 576.41,-26.51"/>
<polygon fill="grey" stroke="grey" stroke-width="2" points="577.02,-29.96 586.2,-24.68 575.73,-23.08 577.02,-29.96"/>
</g>
<!-- 8 -->
<g id="node9" class="node">
<title>8</title>
<path fill="none" stroke="#ced856" stroke-width="2" d="M395.5,-468C395.5,-468 298.5,-468 298.5,-468 292.5,-468 286.5,-462 286.5,-456 286.5,-456 286.5,-444 286.5,-444 286.5,-438 292.5,-432 298.5,-432 298.5,-432 395.5,-432 395.5,-432 401.5,-432 407.5,-438 407.5,-444 407.5,-444 407.5,-456 407.5,-456 407.5,-462 401.5,-468 395.5,-468"/>
<text text-anchor="middle" x="347" y="-447.5" font-family="sans" font-size="10.00">demux_qzv_html_report</text>
</g>
<!-- 8&#45;&gt;0 -->
<g id="edge2" class="edge">
<title>8&#45;&gt;0</title>
<path fill="none" stroke="grey" stroke-width="2" d="M312.32,-431.06C273.21,-408.06 215,-364.22 215,-307 215,-307 215,-307 215,-161 215,-120.55 204.38,-99.54 234,-72 282.99,-26.45 487.84,-19.7 576.17,-18.95"/>
<polygon fill="grey" stroke="grey" stroke-width="2" points="576.06,-22.45 586.04,-18.89 576.02,-15.45 576.06,-22.45"/>
</g>
<!-- 9 -->
<g id="node10" class="node">
<title>9</title>
<path fill="none" stroke="#d89c56" stroke-width="2" d="M534,-540C534,-540 422,-540 422,-540 416,-540 410,-534 410,-528 410,-528 410,-516 410,-516 410,-510 416,-504 422,-504 422,-504 534,-504 534,-504 540,-504 546,-510 546,-516 546,-516 546,-528 546,-528 546,-534 540,-540 534,-540"/>
<text text-anchor="middle" x="478" y="-519.5" font-family="sans" font-size="10.00">qiime2_demux_qzv_artifact</text>
</g>
<!-- 9&#45;&gt;8 -->
<g id="edge20" class="edge">
<title>9&#45;&gt;8</title>
<path fill="none" stroke="grey" stroke-width="2" d="M444.6,-503.15C428.44,-494.52 408.8,-484.02 391.39,-474.72"/>
<polygon fill="grey" stroke="grey" stroke-width="2" points="393.47,-471.87 383,-470.24 390.17,-478.04 393.47,-471.87"/>
</g>
<!-- 10 -->
<g id="node11" class="node">
<title>10</title>
<path fill="none" stroke="#d85656" stroke-width="2" d="M615,-612C615,-612 503,-612 503,-612 497,-612 491,-606 491,-600 491,-600 491,-588 491,-588 491,-582 497,-576 503,-576 503,-576 615,-576 615,-576 621,-576 627,-582 627,-588 627,-588 627,-600 627,-600 627,-606 621,-612 615,-612"/>
<text text-anchor="middle" x="559" y="-591.5" font-family="sans" font-size="10.00">qiime2_demux_qza_artifact</text>
</g>
<!-- 10&#45;&gt;9 -->
<g id="edge21" class="edge">
<title>10&#45;&gt;9</title>
<path fill="none" stroke="grey" stroke-width="2" d="M538.56,-575.34C529.42,-567.44 518.46,-557.96 508.39,-549.26"/>
<polygon fill="grey" stroke="grey" stroke-width="2" points="510.86,-546.77 501.01,-542.88 506.28,-552.07 510.86,-546.77"/>
</g>
<!-- 14 -->
<g id="node15" class="node">
<title>14</title>
<path fill="none" stroke="#d8ac56" stroke-width="2" d="M771.5,-540C771.5,-540 642.5,-540 642.5,-540 636.5,-540 630.5,-534 630.5,-528 630.5,-528 630.5,-516 630.5,-516 630.5,-510 636.5,-504 642.5,-504 642.5,-504 771.5,-504 771.5,-504 777.5,-504 783.5,-510 783.5,-516 783.5,-516 783.5,-528 783.5,-528 783.5,-534 777.5,-540 771.5,-540"/>
<text text-anchor="middle" x="707" y="-519.5" font-family="sans" font-size="10.00">qiime2_demux_qza_subsample</text>
</g>
<!-- 10&#45;&gt;14 -->
<g id="edge25" class="edge">
<title>10&#45;&gt;14</title>
<path fill="none" stroke="grey" stroke-width="2" d="M596.73,-575.15C615.19,-566.43 637.64,-555.81 657.46,-546.43"/>
<polygon fill="grey" stroke="grey" stroke-width="2" points="658.8,-549.67 666.35,-542.23 655.81,-543.34 658.8,-549.67"/>
</g>
<!-- 11 -->
<g id="node12" class="node">
<title>11</title>
<path fill="none" stroke="#9fd856" stroke-width="2" d="M599,-684C599,-684 519,-684 519,-684 513,-684 507,-678 507,-672 507,-672 507,-660 507,-660 507,-654 513,-648 519,-648 519,-648 599,-648 599,-648 605,-648 611,-654 611,-660 611,-660 611,-672 611,-672 611,-678 605,-684 599,-684"/>
<text text-anchor="middle" x="559" y="-663.5" font-family="sans" font-size="10.00">import_manifest_file</text>
</g>
<!-- 11&#45;&gt;10 -->
<g id="edge22" class="edge">
<title>11&#45;&gt;10</title>
<path fill="none" stroke="grey" stroke-width="2" d="M559,-647.34C559,-640.75 559,-633.08 559,-625.67"/>
<polygon fill="grey" stroke="grey" stroke-width="2" points="562.5,-625.93 559,-615.93 555.5,-625.93 562.5,-625.93"/>
</g>
<!-- 12 -->
<g id="node13" class="node">
<title>12</title>
<path fill="none" stroke="#56d8c1" stroke-width="2" d="M1214,-396C1214,-396 1096,-396 1096,-396 1090,-396 1084,-390 1084,-384 1084,-384 1084,-372 1084,-372 1084,-366 1090,-360 1096,-360 1096,-360 1214,-360 1214,-360 1220,-360 1226,-366 1226,-372 1226,-372 1226,-384 1226,-384 1226,-390 1220,-396 1214,-396"/>
<text text-anchor="middle" x="1155" y="-375.5" font-family="sans" font-size="10.00">demux_qzv_sub_html_report</text>
</g>
<!-- 12&#45;&gt;0 -->
<g id="edge5" class="edge">
<title>12&#45;&gt;0</title>
<path fill="none" stroke="grey" stroke-width="2" d="M1168.67,-359.29C1187.2,-333.47 1218,-283.28 1218,-235 1218,-235 1218,-235 1218,-161 1218,-45.56 792.7,-23.85 657.64,-19.87"/>
<polygon fill="grey" stroke="grey" stroke-width="2" points="657.9,-16.38 647.81,-19.6 657.71,-23.37 657.9,-16.38"/>
</g>
<!-- 13 -->
<g id="node14" class="node">
<title>13</title>
<path fill="none" stroke="#567bd8" stroke-width="2" d="M1104.5,-468C1104.5,-468 975.5,-468 975.5,-468 969.5,-468 963.5,-462 963.5,-456 963.5,-456 963.5,-444 963.5,-444 963.5,-438 969.5,-432 975.5,-432 975.5,-432 1104.5,-432 1104.5,-432 1110.5,-432 1116.5,-438 1116.5,-444 1116.5,-444 1116.5,-456 1116.5,-456 1116.5,-462 1110.5,-468 1104.5,-468"/>
<text text-anchor="middle" x="1040" y="-447.5" font-family="sans" font-size="10.00">qiime2_demux_qzv_subsample</text>
</g>
<!-- 13&#45;&gt;12 -->
<g id="edge23" class="edge">
<title>13&#45;&gt;12</title>
<path fill="none" stroke="grey" stroke-width="2" d="M1069.32,-431.15C1083.1,-422.76 1099.76,-412.62 1114.71,-403.52"/>
<polygon fill="grey" stroke="grey" stroke-width="2" points="1116.43,-406.58 1123.15,-398.39 1112.79,-400.6 1116.43,-406.58"/>
</g>
<!-- 14&#45;&gt;13 -->
<g id="edge24" class="edge">
<title>14&#45;&gt;13</title>
<path fill="none" stroke="grey" stroke-width="2" d="M784.23,-504.76C833.76,-494.35 898.24,-480.8 950.06,-469.91"/>
<polygon fill="grey" stroke="grey" stroke-width="2" points="950.58,-473.37 959.65,-467.89 949.14,-466.52 950.58,-473.37"/>
</g>
<!-- 16 -->
<g id="node17" class="node">
<title>16</title>
<path fill="none" stroke="#566bd8" stroke-width="2" d="M753,-468C753,-468 661,-468 661,-468 655,-468 649,-462 649,-456 649,-456 649,-444 649,-444 649,-438 655,-432 661,-432 661,-432 753,-432 753,-432 759,-432 765,-438 765,-444 765,-444 765,-456 765,-456 765,-462 759,-468 753,-468"/>
<text text-anchor="middle" x="707" y="-447.5" font-family="sans" font-size="10.00">qiime2_dada2_denoise</text>
</g>
<!-- 14&#45;&gt;16 -->
<g id="edge28" class="edge">
<title>14&#45;&gt;16</title>
<path fill="none" stroke="grey" stroke-width="2" d="M707,-503.34C707,-496.75 707,-489.08 707,-481.67"/>
<polygon fill="grey" stroke="grey" stroke-width="2" points="710.5,-481.93 707,-471.93 703.5,-481.93 710.5,-481.93"/>
</g>
<!-- 15&#45;&gt;0 -->
<g id="edge8" class="edge">
<title>15&#45;&gt;0</title>
<path fill="none" stroke="grey" stroke-width="2" d="M525.36,-71.15C541.32,-62.07 560.88,-50.94 577.82,-41.3"/>
<polygon fill="grey" stroke="grey" stroke-width="2" points="579.47,-44.39 586.43,-36.4 576,-38.3 579.47,-44.39"/>
</g>
<!-- 16&#45;&gt;15 -->
<g id="edge27" class="edge">
<title>16&#45;&gt;15</title>
<path fill="none" stroke="grey" stroke-width="2" d="M648.08,-436.85C590.31,-421.47 505.35,-388.74 466,-324 427.04,-259.9 458.6,-167.48 479.4,-120.63"/>
<polygon fill="grey" stroke="grey" stroke-width="2" points="482.51,-122.25 483.52,-111.7 476.15,-119.32 482.51,-122.25"/>
</g>
<!-- 19 -->
<g id="node20" class="node">
<title>19</title>
<path fill="none" stroke="#569ad8" stroke-width="2" d="M991,-396C991,-396 895,-396 895,-396 889,-396 883,-390 883,-384 883,-384 883,-372 883,-372 883,-366 889,-360 895,-360 895,-360 991,-360 991,-360 997,-360 1003,-366 1003,-372 1003,-372 1003,-384 1003,-384 1003,-390 997,-396 991,-396"/>
<text text-anchor="middle" x="943" y="-375.5" font-family="sans" font-size="10.00">qiime2_mafft_alignment</text>
</g>
<!-- 16&#45;&gt;19 -->
<g id="edge31" class="edge">
<title>16&#45;&gt;19</title>
<path fill="none" stroke="grey" stroke-width="2" d="M765.94,-431.52C797.56,-422.14 836.79,-410.5 870.29,-400.57"/>
<polygon fill="grey" stroke="grey" stroke-width="2" points="870.85,-404.05 879.44,-397.85 868.86,-397.34 870.85,-404.05"/>
</g>
<!-- 22 -->
<g id="node23" class="node">
<title>22</title>
<path fill="none" stroke="#56c1d8" stroke-width="2" d="M472.5,-396C472.5,-396 345.5,-396 345.5,-396 339.5,-396 333.5,-390 333.5,-384 333.5,-384 333.5,-372 333.5,-372 333.5,-366 339.5,-360 345.5,-360 345.5,-360 472.5,-360 472.5,-360 478.5,-360 484.5,-366 484.5,-372 484.5,-372 484.5,-384 484.5,-384 484.5,-390 478.5,-396 472.5,-396"/>
<text text-anchor="middle" x="409" y="-375.5" font-family="sans" font-size="10.00">qiime2_taxonomic_assignment</text>
</g>
<!-- 16&#45;&gt;22 -->
<g id="edge34" class="edge">
<title>16&#45;&gt;22</title>
<path fill="none" stroke="grey" stroke-width="2" d="M648.12,-435.17C605.21,-425.09 546.33,-411.26 497.73,-399.84"/>
<polygon fill="grey" stroke="grey" stroke-width="2" points="498.77,-396.49 488.24,-397.61 497.17,-403.31 498.77,-396.49"/>
</g>
<!-- 23 -->
<g id="node24" class="node">
<title>23</title>
<path fill="none" stroke="#d88d56" stroke-width="2" d="M368.5,-324C368.5,-324 291.5,-324 291.5,-324 285.5,-324 279.5,-318 279.5,-312 279.5,-312 279.5,-300 279.5,-300 279.5,-294 285.5,-288 291.5,-288 291.5,-288 368.5,-288 368.5,-288 374.5,-288 380.5,-294 380.5,-300 380.5,-300 380.5,-312 380.5,-312 380.5,-318 374.5,-324 368.5,-324"/>
<text text-anchor="middle" x="330" y="-303.5" font-family="sans" font-size="10.00">qiime2_export_data</text>
</g>
<!-- 16&#45;&gt;23 -->
<g id="edge36" class="edge">
<title>16&#45;&gt;23</title>
<path fill="none" stroke="grey" stroke-width="2" d="M648.33,-445.07C546.3,-437.64 344.97,-420.07 324,-396 310.2,-380.16 312.71,-356.1 318.12,-337"/>
<polygon fill="grey" stroke="grey" stroke-width="2" points="321.42,-338.19 321.22,-327.6 314.77,-336 321.42,-338.19"/>
</g>
<!-- 24 -->
<g id="node25" class="node">
<title>24</title>
<path fill="none" stroke="#56d89a" stroke-width="2" d="M866.5,-108C866.5,-108 771.5,-108 771.5,-108 765.5,-108 759.5,-102 759.5,-96 759.5,-96 759.5,-84 759.5,-84 759.5,-78 765.5,-72 771.5,-72 771.5,-72 866.5,-72 866.5,-72 872.5,-72 878.5,-78 878.5,-84 878.5,-84 878.5,-96 878.5,-96 878.5,-102 872.5,-108 866.5,-108"/>
<text text-anchor="middle" x="819" y="-87.5" font-family="sans" font-size="10.00">qiime2_community_plot</text>
</g>
<!-- 16&#45;&gt;24 -->
<g id="edge38" class="edge">
<title>16&#45;&gt;24</title>
<path fill="none" stroke="grey" stroke-width="2" d="M720.02,-431.19C737.67,-405.24 767,-354.91 767,-307 767,-307 767,-307 767,-233 767,-192.46 771.88,-181.62 787,-144 790.3,-135.79 794.79,-127.37 799.36,-119.74"/>
<polygon fill="grey" stroke="grey" stroke-width="2" points="802.22,-121.76 804.6,-111.44 796.3,-118.03 802.22,-121.76"/>
</g>
<!-- 25 -->
<g id="node26" class="node">
<title>25</title>
<path fill="none" stroke="#56a9d8" stroke-width="2" d="M689,-324C689,-324 595,-324 595,-324 589,-324 583,-318 583,-312 583,-312 583,-300 583,-300 583,-294 589,-288 595,-288 595,-288 689,-288 689,-288 695,-288 701,-294 701,-300 701,-300 701,-312 701,-312 701,-318 695,-324 689,-324"/>
<text text-anchor="middle" x="642" y="-303.5" font-family="sans" font-size="10.00">qiime2_collapse_genus</text>
</g>
<!-- 16&#45;&gt;25 -->
<g id="edge40" class="edge">
<title>16&#45;&gt;25</title>
<path fill="none" stroke="grey" stroke-width="2" d="M698.77,-431.02C687.88,-407.22 668.54,-364.97 655.49,-336.48"/>
<polygon fill="grey" stroke="grey" stroke-width="2" points="658.77,-335.23 651.43,-327.59 652.41,-338.14 658.77,-335.23"/>
</g>
<!-- 16&#45;&gt;26 -->
<g id="edge43" class="edge">
<title>16&#45;&gt;26</title>
<path fill="none" stroke="grey" stroke-width="2" d="M711.56,-431.2C718,-404.44 729,-352.15 729,-307 729,-307 729,-307 729,-233 729,-193.08 715.47,-148.73 705,-120.39"/>
<polygon fill="grey" stroke="grey" stroke-width="2" points="708.39,-119.48 701.54,-111.4 701.86,-121.99 708.39,-119.48"/>
</g>
<!-- 16&#45;&gt;27 -->
<g id="edge46" class="edge">
<title>16&#45;&gt;27</title>
<path fill="none" stroke="grey" stroke-width="2" d="M728.69,-431.21C739.74,-421.5 752.93,-408.86 763,-396 819.68,-323.6 795.86,-276.62 865,-216 897.08,-187.87 929.75,-215.11 954,-180 965.61,-163.2 965.76,-140.03 963.2,-121.55"/>
<polygon fill="grey" stroke="grey" stroke-width="2" points="966.66,-120.99 961.45,-111.77 959.77,-122.23 966.66,-120.99"/>
</g>
<!-- 17 -->
<g id="node18" class="node">
<title>17</title>
<path fill="none" stroke="#d8bc56" stroke-width="2" d="M1177.5,-252C1177.5,-252 1062.5,-252 1062.5,-252 1056.5,-252 1050.5,-246 1050.5,-240 1050.5,-240 1050.5,-228 1050.5,-228 1050.5,-222 1056.5,-216 1062.5,-216 1062.5,-216 1177.5,-216 1177.5,-216 1183.5,-216 1189.5,-222 1189.5,-228 1189.5,-228 1189.5,-240 1189.5,-240 1189.5,-246 1183.5,-252 1177.5,-252"/>
<text text-anchor="middle" x="1120" y="-231.5" font-family="sans" font-size="10.00">qiime2_masked_aligned_viz</text>
</g>
<!-- 17&#45;&gt;0 -->
<g id="edge15" class="edge">
<title>17&#45;&gt;0</title>
<path fill="none" stroke="grey" stroke-width="2" d="M1119.46,-215.04C1117.4,-181.1 1107.7,-107.73 1063,-72 1000.98,-22.42 755.34,-18.18 657.51,-18.52"/>
<polygon fill="grey" stroke="grey" stroke-width="2" points="657.73,-15.02 647.75,-18.58 657.77,-22.02 657.73,-15.02"/>
</g>
<!-- 18 -->
<g id="node19" class="node">
<title>18</title>
<path fill="none" stroke="#68d856" stroke-width="2" d="M1002,-324C1002,-324 904,-324 904,-324 898,-324 892,-318 892,-312 892,-312 892,-300 892,-300 892,-294 898,-288 904,-288 904,-288 1002,-288 1002,-288 1008,-288 1014,-294 1014,-300 1014,-300 1014,-312 1014,-312 1014,-318 1008,-324 1002,-324"/>
<text text-anchor="middle" x="953" y="-303.5" font-family="sans" font-size="10.00">qiime2_mask_alignment</text>
</g>
<!-- 18&#45;&gt;17 -->
<g id="edge29" class="edge">
<title>18&#45;&gt;17</title>
<path fill="none" stroke="grey" stroke-width="2" d="M995.57,-287.15C1016.79,-278.26 1042.69,-267.41 1065.35,-257.91"/>
<polygon fill="grey" stroke="grey" stroke-width="2" points="1066.55,-261.2 1074.42,-254.1 1063.85,-254.74 1066.55,-261.2"/>
</g>
<!-- 20 -->
<g id="node21" class="node">
<title>20</title>
<path fill="none" stroke="#78d856" stroke-width="2" d="M1020.5,-252C1020.5,-252 885.5,-252 885.5,-252 879.5,-252 873.5,-246 873.5,-240 873.5,-240 873.5,-228 873.5,-228 873.5,-222 879.5,-216 885.5,-216 885.5,-216 1020.5,-216 1020.5,-216 1026.5,-216 1032.5,-222 1032.5,-228 1032.5,-228 1032.5,-240 1032.5,-240 1032.5,-246 1026.5,-252 1020.5,-252"/>
<text text-anchor="middle" x="953" y="-231.5" font-family="sans" font-size="10.00">qiime2_phylogeny_unrooted_tree</text>
</g>
<!-- 18&#45;&gt;20 -->
<g id="edge32" class="edge">
<title>18&#45;&gt;20</title>
<path fill="none" stroke="grey" stroke-width="2" d="M953,-287.34C953,-280.75 953,-273.08 953,-265.67"/>
<polygon fill="grey" stroke="grey" stroke-width="2" points="956.5,-265.93 953,-255.93 949.5,-265.93 956.5,-265.93"/>
</g>
<!-- 19&#45;&gt;18 -->
<g id="edge30" class="edge">
<title>19&#45;&gt;18</title>
<path fill="none" stroke="grey" stroke-width="2" d="M945.52,-359.34C946.46,-352.75 947.56,-345.08 948.62,-337.67"/>
<polygon fill="grey" stroke="grey" stroke-width="2" points="952.07,-338.29 950.01,-327.9 945.14,-337.3 952.07,-338.29"/>
</g>
<!-- 20&#45;&gt;0 -->
<g id="edge1" class="edge">
<title>20&#45;&gt;0</title>
<path fill="none" stroke="grey" stroke-width="2" d="M976.5,-215.01C1014.92,-183.5 1083.07,-117.36 1043,-72 1017.7,-43.36 759.57,-26.6 657.86,-21.06"/>
<polygon fill="grey" stroke="grey" stroke-width="2" points="658.06,-17.56 647.89,-20.53 657.69,-24.55 658.06,-17.56"/>
</g>
<!-- 21 -->
<g id="node22" class="node">
<title>21</title>
<path fill="none" stroke="#59d856" stroke-width="2" d="M932.5,-180C932.5,-180 807.5,-180 807.5,-180 801.5,-180 795.5,-174 795.5,-168 795.5,-168 795.5,-156 795.5,-156 795.5,-150 801.5,-144 807.5,-144 807.5,-144 932.5,-144 932.5,-144 938.5,-144 944.5,-150 944.5,-156 944.5,-156 944.5,-168 944.5,-168 944.5,-174 938.5,-180 932.5,-180"/>
<text text-anchor="middle" x="870" y="-159.5" font-family="sans" font-size="10.00">qiime2_phylogeny_rooted_tree</text>
</g>
<!-- 20&#45;&gt;21 -->
<g id="edge33" class="edge">
<title>20&#45;&gt;21</title>
<path fill="none" stroke="grey" stroke-width="2" d="M932.06,-215.34C922.69,-207.44 911.46,-197.96 901.14,-189.26"/>
<polygon fill="grey" stroke="grey" stroke-width="2" points="903.44,-186.62 893.54,-182.85 898.93,-191.98 903.44,-186.62"/>
</g>
<!-- 21&#45;&gt;0 -->
<g id="edge7" class="edge">
<title>21&#45;&gt;0</title>
<path fill="none" stroke="grey" stroke-width="2" d="M945.4,-145.34C998.58,-130.94 1055.36,-106.56 1025,-72 1000.97,-44.64 756.37,-27.24 657.82,-21.29"/>
<polygon fill="grey" stroke="grey" stroke-width="2" points="658.13,-17.8 647.94,-20.71 657.72,-24.79 658.13,-17.8"/>
</g>
<!-- 21&#45;&gt;24 -->
<g id="edge37" class="edge">
<title>21&#45;&gt;24</title>
<path fill="none" stroke="grey" stroke-width="2" d="M857.13,-143.34C851.8,-136.01 845.47,-127.34 839.53,-119.18"/>
<polygon fill="grey" stroke="grey" stroke-width="2" points="842.54,-117.37 833.83,-111.35 836.89,-121.49 842.54,-117.37"/>
</g>
<!-- 21&#45;&gt;26 -->
<g id="edge41" class="edge">
<title>21&#45;&gt;26</title>
<path fill="none" stroke="grey" stroke-width="2" d="M824.88,-143.15C802.18,-134.18 774.43,-123.21 750.26,-113.64"/>
<polygon fill="grey" stroke="grey" stroke-width="2" points="751.75,-110.47 741.16,-110.05 749.17,-116.98 751.75,-110.47"/>
</g>
<!-- 21&#45;&gt;27 -->
<g id="edge44" class="edge">
<title>21&#45;&gt;27</title>
<path fill="none" stroke="grey" stroke-width="2" d="M891.7,-143.34C901.51,-135.36 913.29,-125.77 924.07,-116.99"/>
<polygon fill="grey" stroke="grey" stroke-width="2" points="926.11,-119.84 931.66,-110.81 921.69,-114.41 926.11,-119.84"/>
</g>
<!-- 22&#45;&gt;0 -->
<g id="edge9" class="edge">
<title>22&#45;&gt;0</title>
<path fill="none" stroke="grey" stroke-width="2" d="M409,-359.07C409,-332.13 409,-279.62 409,-235 409,-235 409,-235 409,-161 409,-120.55 400.32,-101.49 428,-72 466.28,-31.22 533.17,-20.95 576.24,-18.82"/>
<polygon fill="grey" stroke="grey" stroke-width="2" points="576.15,-22.33 586.03,-18.5 575.92,-15.33 576.15,-22.33"/>
</g>
<!-- 22&#45;&gt;23 -->
<g id="edge35" class="edge">
<title>22&#45;&gt;23</title>
<path fill="none" stroke="grey" stroke-width="2" d="M389.06,-359.34C380.24,-351.52 369.68,-342.16 359.95,-333.53"/>
<polygon fill="grey" stroke="grey" stroke-width="2" points="362.27,-330.92 352.47,-326.91 357.63,-336.16 362.27,-330.92"/>
</g>
<!-- 22&#45;&gt;25 -->
<g id="edge39" class="edge">
<title>22&#45;&gt;25</title>
<path fill="none" stroke="grey" stroke-width="2" d="M468.7,-359.06C499.67,-349.76 537.72,-338.33 570.27,-328.55"/>
<polygon fill="grey" stroke="grey" stroke-width="2" points="570.99,-331.99 579.56,-325.76 568.97,-325.29 570.99,-331.99"/>
</g>
<!-- 23&#45;&gt;0 -->
<g id="edge10" class="edge">
<title>23&#45;&gt;0</title>
<path fill="none" stroke="grey" stroke-width="2" d="M329.31,-287.1C328.68,-243.55 333.44,-131.28 395,-72 420.63,-47.32 519.57,-31.18 576.33,-23.75"/>
<polygon fill="grey" stroke="grey" stroke-width="2" points="576.63,-27.24 586.11,-22.51 575.75,-20.29 576.63,-27.24"/>
</g>
<!-- 24&#45;&gt;0 -->
<g id="edge14" class="edge">
<title>24&#45;&gt;0</title>
<path fill="none" stroke="grey" stroke-width="2" d="M767.24,-71.06C733.03,-59.21 688.84,-43.89 657.25,-32.95"/>
<polygon fill="grey" stroke="grey" stroke-width="2" points="658.43,-29.65 647.84,-29.69 656.14,-36.27 658.43,-29.65"/>
</g>
<!-- 25&#45;&gt;0 -->
<g id="edge11" class="edge">
<title>25&#45;&gt;0</title>
<path fill="none" stroke="grey" stroke-width="2" d="M640.44,-287.11C636.28,-239.56 624.92,-109.6 619.69,-49.83"/>
<polygon fill="grey" stroke="grey" stroke-width="2" points="623.18,-49.56 618.83,-39.9 616.21,-50.17 623.18,-49.56"/>
</g>
<!-- 26&#45;&gt;0 -->
<g id="edge12" class="edge">
<title>26&#45;&gt;0</title>
<path fill="none" stroke="grey" stroke-width="2" d="M673.82,-71.34C665.34,-63.52 655.18,-54.16 645.81,-45.53"/>
<polygon fill="grey" stroke="grey" stroke-width="2" points="648.39,-43.15 638.66,-38.95 643.65,-48.3 648.39,-43.15"/>
</g>
<!-- 27&#45;&gt;0 -->
<g id="edge13" class="edge">
<title>27&#45;&gt;0</title>
<path fill="none" stroke="grey" stroke-width="2" d="M895.6,-73.73C893.04,-73.13 890.49,-72.56 888,-72 806.47,-53.85 710.39,-35.85 657.33,-26.21"/>
<polygon fill="grey" stroke="grey" stroke-width="2" points="658.24,-22.82 647.78,-24.48 656.99,-29.71 658.24,-22.82"/>
</g>
</g>
</svg>
