<?xml version="1.0" encoding="UTF-8" standalone="no"?>
<!DOCTYPE svg PUBLIC "-//W3C//DTD SVG 1.1//EN"
 "http://www.w3.org/Graphics/SVG/1.1/DTD/svg11.dtd">
<!-- Generated by graphviz version 7.1.0 (0)
 -->
<!-- Title: snakemake_dag Pages: 1 -->
<svg width="1164pt" height="548pt"
 viewBox="0.00 0.00 1164.00 548.00" xmlns="http://www.w3.org/2000/svg" xmlns:xlink="http://www.w3.org/1999/xlink">
<g id="graph0" class="graph" transform="scale(1 1) rotate(0) translate(4 544)">
<title>snakemake_dag</title>
<polygon fill="white" stroke="none" points="-4,4 -4,-544 1160,-544 1160,4 -4,4"/>
<!-- 0 -->
<g id="node1" class="node">
<title>0</title>
<path fill="none" stroke="#d8a456" stroke-width="2" d="M561,-36C561,-36 531,-36 531,-36 525,-36 519,-30 519,-24 519,-24 519,-12 519,-12 519,-6 525,0 531,0 531,0 561,0 561,0 567,0 573,-6 573,-12 573,-12 573,-24 573,-24 573,-30 567,-36 561,-36"/>
<text text-anchor="middle" x="546" y="-15.5" font-family="sans" font-size="10.00">all</text>
</g>
<!-- 1 -->
<g id="node2" class="node">
<title>1</title>
<path fill="none" stroke="#56b9d8" stroke-width="2" d="M74,-108C74,-108 12,-108 12,-108 6,-108 0,-102 0,-96 0,-96 0,-84 0,-84 0,-78 6,-72 12,-72 12,-72 74,-72 74,-72 80,-72 86,-78 86,-84 86,-84 86,-96 86,-96 86,-102 80,-108 74,-108"/>
<text text-anchor="middle" x="43" y="-87.5" font-family="sans" font-size="10.00">dot_rules_graph</text>
</g>
<!-- 1&#45;&gt;0 -->
<g id="edge14" class="edge">
<title>1&#45;&gt;0</title>
<path fill="none" stroke="grey" stroke-width="2" d="M86.8,-74C89.56,-73.27 92.31,-72.59 95,-72 244.21,-39.18 425.96,-25.68 505.48,-21.05"/>
<polygon fill="grey" stroke="grey" stroke-width="2" points="505.42,-24.56 515.21,-20.51 505.02,-17.57 505.42,-24.56"/>
</g>
<!-- 2 -->
<g id="node3" class="node">
<title>2</title>
<path fill="none" stroke="#5673d8" stroke-width="2" d="M214,-108C214,-108 116,-108 116,-108 110,-108 104,-102 104,-96 104,-96 104,-84 104,-84 104,-78 110,-72 116,-72 116,-72 214,-72 214,-72 220,-72 226,-78 226,-84 226,-84 226,-96 226,-96 226,-102 220,-108 214,-108"/>
<text text-anchor="middle" x="165" y="-87.5" font-family="sans" font-size="10.00">deploy_to_github_pages</text>
</g>
<!-- 2&#45;&gt;0 -->
<g id="edge11" class="edge">
<title>2&#45;&gt;0</title>
<path fill="none" stroke="grey" stroke-width="2" d="M226.78,-73.75C229.56,-73.14 232.31,-72.56 235,-72 331.5,-52.09 445.95,-33.99 505.47,-24.99"/>
<polygon fill="grey" stroke="grey" stroke-width="2" points="505.64,-28.5 515.01,-23.55 504.6,-21.58 505.64,-28.5"/>
</g>
<!-- 3 -->
<g id="node4" class="node">
<title>3</title>
<path fill="none" stroke="#d86e56" stroke-width="2" d="M353.5,-108C353.5,-108 256.5,-108 256.5,-108 250.5,-108 244.5,-102 244.5,-96 244.5,-96 244.5,-84 244.5,-84 244.5,-78 250.5,-72 256.5,-72 256.5,-72 353.5,-72 353.5,-72 359.5,-72 365.5,-78 365.5,-84 365.5,-84 365.5,-96 365.5,-96 365.5,-102 359.5,-108 353.5,-108"/>
<text text-anchor="middle" x="305" y="-87.5" font-family="sans" font-size="10.00">snakemake_html_report</text>
</g>
<!-- 3&#45;&gt;0 -->
<g id="edge4" class="edge">
<title>3&#45;&gt;0</title>
<path fill="none" stroke="grey" stroke-width="2" d="M366.44,-71.15C410.29,-58.42 468.01,-41.65 506.02,-30.61"/>
<polygon fill="grey" stroke="grey" stroke-width="2" points="506.57,-34.1 515.2,-27.95 504.62,-27.37 506.57,-34.1"/>
</g>
<!-- 4 -->
<g id="node5" class="node">
<title>4</title>
<path fill="none" stroke="#d85656" stroke-width="2" d="M942.5,-396C942.5,-396 841.5,-396 841.5,-396 835.5,-396 829.5,-390 829.5,-384 829.5,-384 829.5,-372 829.5,-372 829.5,-366 835.5,-360 841.5,-360 841.5,-360 942.5,-360 942.5,-360 948.5,-360 954.5,-366 954.5,-372 954.5,-372 954.5,-384 954.5,-384 954.5,-390 948.5,-396 942.5,-396"/>
<text text-anchor="middle" x="892" y="-375.5" font-family="sans" font-size="10.00">qiime2_summarize_fastq</text>
</g>
<!-- 4&#45;&gt;0 -->
<g id="edge3" class="edge">
<title>4&#45;&gt;0</title>
<path fill="none" stroke="grey" stroke-width="2" d="M903.09,-359.3C934.94,-306.03 1019.15,-146.36 934,-72 882.91,-27.39 675.73,-20.12 586.84,-19.09"/>
<polygon fill="grey" stroke="grey" stroke-width="2" points="586.93,-15.59 576.9,-19 586.87,-22.59 586.93,-15.59"/>
</g>
<!-- 5 -->
<g id="node6" class="node">
<title>5</title>
<path fill="none" stroke="#56d0d8" stroke-width="2" d="M772,-468C772,-468 660,-468 660,-468 654,-468 648,-462 648,-456 648,-456 648,-444 648,-444 648,-438 654,-432 660,-432 660,-432 772,-432 772,-432 778,-432 784,-438 784,-444 784,-444 784,-456 784,-456 784,-462 778,-468 772,-468"/>
<text text-anchor="middle" x="716" y="-447.5" font-family="sans" font-size="10.00">qiime2_import_paired_fastq</text>
</g>
<!-- 5&#45;&gt;4 -->
<g id="edge16" class="edge">
<title>5&#45;&gt;4</title>
<path fill="none" stroke="grey" stroke-width="2" d="M760.87,-431.15C783.43,-422.18 811.03,-411.21 835.07,-401.64"/>
<polygon fill="grey" stroke="grey" stroke-width="2" points="836.1,-405 844.1,-398.05 833.51,-398.5 836.1,-405"/>
</g>
<!-- 9 -->
<g id="node10" class="node">
<title>9</title>
<path fill="none" stroke="#56d863" stroke-width="2" d="M730.5,-396C730.5,-396 669.5,-396 669.5,-396 663.5,-396 657.5,-390 657.5,-384 657.5,-384 657.5,-372 657.5,-372 657.5,-366 663.5,-360 669.5,-360 669.5,-360 730.5,-360 730.5,-360 736.5,-360 742.5,-366 742.5,-372 742.5,-372 742.5,-384 742.5,-384 742.5,-390 736.5,-396 730.5,-396"/>
<text text-anchor="middle" x="700" y="-375.5" font-family="sans" font-size="10.00">qiime2_read_qc</text>
</g>
<!-- 5&#45;&gt;9 -->
<g id="edge21" class="edge">
<title>5&#45;&gt;9</title>
<path fill="none" stroke="grey" stroke-width="2" d="M711.96,-431.34C710.44,-424.67 708.66,-416.89 706.95,-409.39"/>
<polygon fill="grey" stroke="grey" stroke-width="2" points="710.41,-408.82 704.77,-399.85 703.58,-410.38 710.41,-408.82"/>
</g>
<!-- 6 -->
<g id="node7" class="node">
<title>6</title>
<path fill="none" stroke="#56d8c9" stroke-width="2" d="M775.5,-540C775.5,-540 656.5,-540 656.5,-540 650.5,-540 644.5,-534 644.5,-528 644.5,-528 644.5,-516 644.5,-516 644.5,-510 650.5,-504 656.5,-504 656.5,-504 775.5,-504 775.5,-504 781.5,-504 787.5,-510 787.5,-516 787.5,-516 787.5,-528 787.5,-528 787.5,-534 781.5,-540 775.5,-540"/>
<text text-anchor="middle" x="716" y="-519.5" font-family="sans" font-size="10.00">import_qiime2_mapping_files</text>
</g>
<!-- 6&#45;&gt;5 -->
<g id="edge17" class="edge">
<title>6&#45;&gt;5</title>
<path fill="none" stroke="grey" stroke-width="2" d="M716,-503.34C716,-496.75 716,-489.08 716,-481.67"/>
<polygon fill="grey" stroke="grey" stroke-width="2" points="719.5,-481.93 716,-471.93 712.5,-481.93 719.5,-481.93"/>
</g>
<!-- 8 -->
<g id="node9" class="node">
<title>8</title>
<path fill="none" stroke="#97d856" stroke-width="2" d="M951,-468C951,-468 845,-468 845,-468 839,-468 833,-462 833,-456 833,-456 833,-444 833,-444 833,-438 839,-432 845,-432 845,-432 951,-432 951,-432 957,-432 963,-438 963,-444 963,-444 963,-456 963,-456 963,-462 957,-468 951,-468"/>
<text text-anchor="middle" x="898" y="-447.5" font-family="sans" font-size="10.00">qiime2_validate_metadata</text>
</g>
<!-- 6&#45;&gt;8 -->
<g id="edge20" class="edge">
<title>6&#45;&gt;8</title>
<path fill="none" stroke="grey" stroke-width="2" d="M762.4,-503.15C785.84,-494.14 814.53,-483.11 839.47,-473.51"/>
<polygon fill="grey" stroke="grey" stroke-width="2" points="840.47,-476.88 848.55,-470.02 837.96,-470.34 840.47,-476.88"/>
</g>
<!-- 19 -->
<g id="node20" class="node">
<title>19</title>
<path fill="none" stroke="#d8d356" stroke-width="2" d="M360.5,-180C360.5,-180 225.5,-180 225.5,-180 219.5,-180 213.5,-174 213.5,-168 213.5,-168 213.5,-156 213.5,-156 213.5,-150 219.5,-144 225.5,-144 225.5,-144 360.5,-144 360.5,-144 366.5,-144 372.5,-150 372.5,-156 372.5,-156 372.5,-168 372.5,-168 372.5,-174 366.5,-180 360.5,-180"/>
<text text-anchor="middle" x="293" y="-159.5" font-family="sans" font-size="10.00">qiime2_taxa_interactive_barplots</text>
</g>
<!-- 6&#45;&gt;19 -->
<g id="edge31" class="edge">
<title>6&#45;&gt;19</title>
<path fill="none" stroke="grey" stroke-width="2" d="M643.67,-515.25C506.91,-502.37 224,-465.29 224,-379 224,-379 224,-379 224,-305 224,-262.12 249.77,-218.62 269.81,-191.27"/>
<polygon fill="grey" stroke="grey" stroke-width="2" points="272.58,-193.41 275.85,-183.33 267.01,-189.17 272.58,-193.41"/>
</g>
<!-- 7 -->
<g id="node8" class="node">
<title>7</title>
<path fill="none" stroke="#56d8a9" stroke-width="2" d="M1144,-324C1144,-324 1018,-324 1018,-324 1012,-324 1006,-318 1006,-312 1006,-312 1006,-300 1006,-300 1006,-294 1012,-288 1018,-288 1018,-288 1144,-288 1144,-288 1150,-288 1156,-294 1156,-300 1156,-300 1156,-312 1156,-312 1156,-318 1150,-324 1144,-324"/>
<text text-anchor="middle" x="1081" y="-303.5" font-family="sans" font-size="10.00">qiime2_create_n_view_qc_qvz</text>
</g>
<!-- 7&#45;&gt;0 -->
<g id="edge1" class="edge">
<title>7&#45;&gt;0</title>
<path fill="none" stroke="grey" stroke-width="2" d="M1081.52,-287.22C1081.76,-242.93 1075.64,-127.28 1009,-72 976.75,-45.25 693.56,-27.09 586.63,-21.13"/>
<polygon fill="grey" stroke="grey" stroke-width="2" points="587.12,-17.65 576.94,-20.6 586.73,-24.64 587.12,-17.65"/>
</g>
<!-- 8&#45;&gt;7 -->
<g id="edge19" class="edge">
<title>8&#45;&gt;7</title>
<path fill="none" stroke="grey" stroke-width="2" d="M921.18,-431.02C953.22,-406.16 1011.22,-361.15 1047.84,-332.73"/>
<polygon fill="grey" stroke="grey" stroke-width="2" points="1049.86,-335.59 1055.62,-326.69 1045.57,-330.06 1049.86,-335.59"/>
</g>
<!-- 9&#45;&gt;7 -->
<g id="edge18" class="edge">
<title>9&#45;&gt;7</title>
<path fill="none" stroke="grey" stroke-width="2" d="M743.33,-369.04C803.66,-357.96 914.31,-337.62 992.48,-323.26"/>
<polygon fill="grey" stroke="grey" stroke-width="2" points="993.04,-326.72 1002.25,-321.47 991.78,-319.83 993.04,-326.72"/>
</g>
<!-- 10 -->
<g id="node11" class="node">
<title>10</title>
<path fill="none" stroke="#c6d856" stroke-width="2" d="M516,-324C516,-324 424,-324 424,-324 418,-324 412,-318 412,-312 412,-312 412,-300 412,-300 412,-294 418,-288 424,-288 424,-288 516,-288 516,-288 522,-288 528,-294 528,-300 528,-300 528,-312 528,-312 528,-318 522,-324 516,-324"/>
<text text-anchor="middle" x="470" y="-303.5" font-family="sans" font-size="10.00">qiime2_denovo_cluster</text>
</g>
<!-- 9&#45;&gt;10 -->
<g id="edge22" class="edge">
<title>9&#45;&gt;10</title>
<path fill="none" stroke="grey" stroke-width="2" d="M656.74,-363.83C624.1,-353.9 578.61,-340.06 540.71,-328.52"/>
<polygon fill="grey" stroke="grey" stroke-width="2" points="542.18,-325.31 531.59,-325.74 540.14,-332 542.18,-325.31"/>
</g>
<!-- 11 -->
<g id="node12" class="node">
<title>11</title>
<path fill="none" stroke="#61d856" stroke-width="2" d="M611.5,-252C611.5,-252 510.5,-252 510.5,-252 504.5,-252 498.5,-246 498.5,-240 498.5,-240 498.5,-228 498.5,-228 498.5,-222 504.5,-216 510.5,-216 510.5,-216 611.5,-216 611.5,-216 617.5,-216 623.5,-222 623.5,-228 623.5,-228 623.5,-240 623.5,-240 623.5,-246 617.5,-252 611.5,-252"/>
<text text-anchor="middle" x="561" y="-231.5" font-family="sans" font-size="10.00">qiime2_closedref_cluster</text>
</g>
<!-- 9&#45;&gt;11 -->
<g id="edge23" class="edge">
<title>9&#45;&gt;11</title>
<path fill="none" stroke="grey" stroke-width="2" d="M682.4,-359.02C658.37,-334.48 615.13,-290.3 587.27,-261.84"/>
<polygon fill="grey" stroke="grey" stroke-width="2" points="590.08,-259.7 580.58,-255 585.07,-264.6 590.08,-259.7"/>
</g>
<!-- 12 -->
<g id="node13" class="node">
<title>12</title>
<path fill="none" stroke="#568ad8" stroke-width="2" d="M746.5,-252C746.5,-252 653.5,-252 653.5,-252 647.5,-252 641.5,-246 641.5,-240 641.5,-240 641.5,-228 641.5,-228 641.5,-222 647.5,-216 653.5,-216 653.5,-216 746.5,-216 746.5,-216 752.5,-216 758.5,-222 758.5,-228 758.5,-228 758.5,-240 758.5,-240 758.5,-246 752.5,-252 746.5,-252"/>
<text text-anchor="middle" x="700" y="-231.5" font-family="sans" font-size="10.00">qiime2_openref_cluster</text>
</g>
<!-- 9&#45;&gt;12 -->
<g id="edge24" class="edge">
<title>9&#45;&gt;12</title>
<path fill="none" stroke="grey" stroke-width="2" d="M700,-359.02C700,-335.54 700,-294.11 700,-265.64"/>
<polygon fill="grey" stroke="grey" stroke-width="2" points="703.5,-265.87 700,-255.87 696.5,-265.87 703.5,-265.87"/>
</g>
<!-- 13 -->
<g id="node14" class="node">
<title>13</title>
<path fill="none" stroke="#d88556" stroke-width="2" d="M886,-324C886,-324 790,-324 790,-324 784,-324 778,-318 778,-312 778,-312 778,-300 778,-300 778,-294 784,-288 790,-288 790,-288 886,-288 886,-288 892,-288 898,-294 898,-300 898,-300 898,-312 898,-312 898,-318 892,-324 886,-324"/>
<text text-anchor="middle" x="838" y="-303.5" font-family="sans" font-size="10.00">qiime2_mafft_alignment</text>
</g>
<!-- 9&#45;&gt;13 -->
<g id="edge25" class="edge">
<title>9&#45;&gt;13</title>
<path fill="none" stroke="grey" stroke-width="2" d="M735.18,-359.15C752.29,-350.47 773.09,-339.92 791.5,-330.59"/>
<polygon fill="grey" stroke="grey" stroke-width="2" points="792.85,-333.83 800.18,-326.18 789.68,-327.58 792.85,-333.83"/>
</g>
<!-- 9&#45;&gt;19 -->
<g id="edge32" class="edge">
<title>9&#45;&gt;19</title>
<path fill="none" stroke="grey" stroke-width="2" d="M656.94,-374.13C598.02,-369.14 489.69,-356.12 403,-324 343.96,-302.12 312.22,-306.68 281,-252 270.86,-234.24 274.26,-211.32 279.99,-193.18"/>
<polygon fill="grey" stroke="grey" stroke-width="2" points="283.27,-194.41 283.38,-183.81 276.69,-192.02 283.27,-194.41"/>
</g>
<!-- 10&#45;&gt;0 -->
<g id="edge15" class="edge">
<title>10&#45;&gt;0</title>
<path fill="none" stroke="grey" stroke-width="2" d="M473.02,-287.17C479.94,-247.77 498.33,-150.54 524,-72 526.5,-64.36 529.61,-56.26 532.7,-48.77"/>
<polygon fill="grey" stroke="grey" stroke-width="2" points="535.87,-50.25 536.57,-39.68 529.43,-47.5 535.87,-50.25"/>
</g>
<!-- 18 -->
<g id="node19" class="node">
<title>18</title>
<path fill="none" stroke="#d8bc56" stroke-width="2" d="M429.5,-252C429.5,-252 302.5,-252 302.5,-252 296.5,-252 290.5,-246 290.5,-240 290.5,-240 290.5,-228 290.5,-228 290.5,-222 296.5,-216 302.5,-216 302.5,-216 429.5,-216 429.5,-216 435.5,-216 441.5,-222 441.5,-228 441.5,-228 441.5,-240 441.5,-240 441.5,-246 435.5,-252 429.5,-252"/>
<text text-anchor="middle" x="366" y="-231.5" font-family="sans" font-size="10.00">qiime2_taxonomic_assignment</text>
</g>
<!-- 10&#45;&gt;18 -->
<g id="edge30" class="edge">
<title>10&#45;&gt;18</title>
<path fill="none" stroke="grey" stroke-width="2" d="M443.49,-287.15C431.26,-278.93 416.54,-269.02 403.23,-260.06"/>
<polygon fill="grey" stroke="grey" stroke-width="2" points="405.23,-257.18 394.98,-254.5 401.32,-262.99 405.23,-257.18"/>
</g>
<!-- 11&#45;&gt;0 -->
<g id="edge8" class="edge">
<title>11&#45;&gt;0</title>
<path fill="none" stroke="grey" stroke-width="2" d="M548.39,-215.31C542.13,-205.43 535.22,-192.6 532,-180 520.11,-133.5 525.82,-119.6 532,-72 532.97,-64.57 534.66,-56.69 536.55,-49.35"/>
<polygon fill="grey" stroke="grey" stroke-width="2" points="539.89,-50.41 539.21,-39.84 533.14,-48.52 539.89,-50.41"/>
</g>
<!-- 12&#45;&gt;0 -->
<g id="edge5" class="edge">
<title>12&#45;&gt;0</title>
<path fill="none" stroke="grey" stroke-width="2" d="M640.81,-215.22C611.13,-205.1 579.48,-192.08 570,-180 540.64,-142.62 539.5,-84.87 542.17,-49.65"/>
<polygon fill="grey" stroke="grey" stroke-width="2" points="545.63,-50.21 543.09,-39.92 538.66,-49.55 545.63,-50.21"/>
</g>
<!-- 13&#45;&gt;0 -->
<g id="edge10" class="edge">
<title>13&#45;&gt;0</title>
<path fill="none" stroke="grey" stroke-width="2" d="M868.62,-287.15C882.14,-278.03 897.35,-265.93 908,-252 928.96,-224.6 930.44,-213.87 937,-180 946.55,-130.73 944.14,-102.13 904,-72 854.56,-34.88 669.57,-23.51 586.65,-20.24"/>
<polygon fill="grey" stroke="grey" stroke-width="2" points="586.94,-16.75 576.82,-19.87 586.69,-23.74 586.94,-16.75"/>
</g>
<!-- 14 -->
<g id="node15" class="node">
<title>14</title>
<path fill="none" stroke="#afd856" stroke-width="2" d="M887,-252C887,-252 789,-252 789,-252 783,-252 777,-246 777,-240 777,-240 777,-228 777,-228 777,-222 783,-216 789,-216 789,-216 887,-216 887,-216 893,-216 899,-222 899,-228 899,-228 899,-240 899,-240 899,-246 893,-252 887,-252"/>
<text text-anchor="middle" x="838" y="-231.5" font-family="sans" font-size="10.00">qiime2_mask_alignment</text>
</g>
<!-- 13&#45;&gt;14 -->
<g id="edge26" class="edge">
<title>13&#45;&gt;14</title>
<path fill="none" stroke="grey" stroke-width="2" d="M838,-287.34C838,-280.75 838,-273.08 838,-265.67"/>
<polygon fill="grey" stroke="grey" stroke-width="2" points="841.5,-265.93 838,-255.93 834.5,-265.93 841.5,-265.93"/>
</g>
<!-- 14&#45;&gt;0 -->
<g id="edge6" class="edge">
<title>14&#45;&gt;0</title>
<path fill="none" stroke="grey" stroke-width="2" d="M776.06,-218.1C773,-217.38 769.96,-216.68 767,-216 694.27,-199.31 658.94,-229.39 603,-180 583.14,-162.46 563.23,-90.94 553.02,-49.36"/>
<polygon fill="grey" stroke="grey" stroke-width="2" points="556.44,-48.62 550.7,-39.71 549.63,-50.25 556.44,-48.62"/>
</g>
<!-- 15 -->
<g id="node16" class="node">
<title>15</title>
<path fill="none" stroke="#56d87b" stroke-width="2" d="M739.5,-180C739.5,-180 624.5,-180 624.5,-180 618.5,-180 612.5,-174 612.5,-168 612.5,-168 612.5,-156 612.5,-156 612.5,-150 618.5,-144 624.5,-144 624.5,-144 739.5,-144 739.5,-144 745.5,-144 751.5,-150 751.5,-156 751.5,-156 751.5,-168 751.5,-168 751.5,-174 745.5,-180 739.5,-180"/>
<text text-anchor="middle" x="682" y="-159.5" font-family="sans" font-size="10.00">qiime2_masked_aligned_viz</text>
</g>
<!-- 14&#45;&gt;15 -->
<g id="edge27" class="edge">
<title>14&#45;&gt;15</title>
<path fill="none" stroke="grey" stroke-width="2" d="M798.23,-215.15C778.6,-206.34 754.66,-195.61 733.63,-186.17"/>
<polygon fill="grey" stroke="grey" stroke-width="2" points="735.29,-183.07 724.73,-182.17 732.42,-189.46 735.29,-183.07"/>
</g>
<!-- 16 -->
<g id="node17" class="node">
<title>16</title>
<path fill="none" stroke="#56d892" stroke-width="2" d="M916.5,-180C916.5,-180 781.5,-180 781.5,-180 775.5,-180 769.5,-174 769.5,-168 769.5,-168 769.5,-156 769.5,-156 769.5,-150 775.5,-144 781.5,-144 781.5,-144 916.5,-144 916.5,-144 922.5,-144 928.5,-150 928.5,-156 928.5,-156 928.5,-168 928.5,-168 928.5,-174 922.5,-180 916.5,-180"/>
<text text-anchor="middle" x="849" y="-159.5" font-family="sans" font-size="10.00">qiime2_phylogeny_unrooted_tree</text>
</g>
<!-- 14&#45;&gt;16 -->
<g id="edge28" class="edge">
<title>14&#45;&gt;16</title>
<path fill="none" stroke="grey" stroke-width="2" d="M840.78,-215.34C841.81,-208.75 843.02,-201.08 844.18,-193.67"/>
<polygon fill="grey" stroke="grey" stroke-width="2" points="847.62,-194.31 845.72,-183.89 840.71,-193.23 847.62,-194.31"/>
</g>
<!-- 15&#45;&gt;0 -->
<g id="edge13" class="edge">
<title>15&#45;&gt;0</title>
<path fill="none" stroke="grey" stroke-width="2" d="M665.37,-143.17C648.49,-125.14 621.57,-96.5 598,-72 589.78,-63.45 580.75,-54.21 572.56,-45.86"/>
<polygon fill="grey" stroke="grey" stroke-width="2" points="575.05,-43.41 565.54,-38.74 570.06,-48.32 575.05,-43.41"/>
</g>
<!-- 16&#45;&gt;0 -->
<g id="edge9" class="edge">
<title>16&#45;&gt;0</title>
<path fill="none" stroke="grey" stroke-width="2" d="M810.62,-143.02C752.79,-115.91 643.86,-64.86 585.42,-37.47"/>
<polygon fill="grey" stroke="grey" stroke-width="2" points="587.03,-34.37 576.49,-33.29 584.06,-40.7 587.03,-34.37"/>
</g>
<!-- 17 -->
<g id="node18" class="node">
<title>17</title>
<path fill="none" stroke="#56a2d8" stroke-width="2" d="M883.5,-108C883.5,-108 758.5,-108 758.5,-108 752.5,-108 746.5,-102 746.5,-96 746.5,-96 746.5,-84 746.5,-84 746.5,-78 752.5,-72 758.5,-72 758.5,-72 883.5,-72 883.5,-72 889.5,-72 895.5,-78 895.5,-84 895.5,-84 895.5,-96 895.5,-96 895.5,-102 889.5,-108 883.5,-108"/>
<text text-anchor="middle" x="821" y="-87.5" font-family="sans" font-size="10.00">qiime2_phylogeny_rooted_tree</text>
</g>
<!-- 16&#45;&gt;17 -->
<g id="edge29" class="edge">
<title>16&#45;&gt;17</title>
<path fill="none" stroke="grey" stroke-width="2" d="M841.93,-143.34C839.2,-136.51 836,-128.5 832.93,-120.83"/>
<polygon fill="grey" stroke="grey" stroke-width="2" points="836.25,-119.7 829.28,-111.71 829.75,-122.3 836.25,-119.7"/>
</g>
<!-- 17&#45;&gt;0 -->
<g id="edge2" class="edge">
<title>17&#45;&gt;0</title>
<path fill="none" stroke="grey" stroke-width="2" d="M750.54,-71.06C698.47,-57.81 629.43,-40.24 586.37,-29.28"/>
<polygon fill="grey" stroke="grey" stroke-width="2" points="587.38,-25.92 576.82,-26.85 585.65,-32.7 587.38,-25.92"/>
</g>
<!-- 18&#45;&gt;0 -->
<g id="edge12" class="edge">
<title>18&#45;&gt;0</title>
<path fill="none" stroke="grey" stroke-width="2" d="M372.38,-215.09C384.49,-183.12 413.46,-115.5 456,-72 470.42,-57.25 489.79,-45.15 506.87,-36.25"/>
<polygon fill="grey" stroke="grey" stroke-width="2" points="508.13,-39.53 515.53,-31.95 505.02,-33.26 508.13,-39.53"/>
</g>
<!-- 18&#45;&gt;19 -->
<g id="edge33" class="edge">
<title>18&#45;&gt;19</title>
<path fill="none" stroke="grey" stroke-width="2" d="M347.58,-215.34C339.51,-207.6 329.87,-198.36 320.96,-189.81"/>
<polygon fill="grey" stroke="grey" stroke-width="2" points="323.49,-187.39 313.85,-183 318.65,-192.44 323.49,-187.39"/>
</g>
<!-- 19&#45;&gt;0 -->
<g id="edge7" class="edge">
<title>19&#45;&gt;0</title>
<path fill="none" stroke="grey" stroke-width="2" d="M321.99,-143.08C337.66,-133.14 357.19,-120.32 374,-108 394.38,-93.06 396.32,-84.97 418,-72 445.94,-55.29 480.11,-41.43 506.12,-32.08"/>
<polygon fill="grey" stroke="grey" stroke-width="2" points="507.03,-35.47 515.31,-28.86 504.72,-28.87 507.03,-35.47"/>
</g>
</g>
</svg>
